<?xml version="1.0" encoding="utf-8"?>
<!-- Generator: Adobe Illustrator 15.1.0, SVG Export Plug-In  -->
<!DOCTYPE svg PUBLIC "-//W3C//DTD SVG 1.1//EN" "http://www.w3.org/Graphics/SVG/1.1/DTD/svg11.dtd" [
	<!ENTITY ns_flows "http://ns.adobe.com/Flows/1.0/">
]>
<svg version="1.1"
	 xmlns="http://www.w3.org/2000/svg" xmlns:xlink="http://www.w3.org/1999/xlink" xmlns:a="http://ns.adobe.com/AdobeSVGViewerExtensions/3.0/"
	 x="0px" y="0px" width="42px" height="40px" viewBox="-0.454 -2.402 42 40" enable-background="new -0.454 -2.402 42 40"
	 xml:space="preserve">
<defs>
</defs>
<g id="Forma_1_2_">
	<g>
		<path fill-rule="evenodd" clip-rule="evenodd" fill="#FFFFFF" d="M40.97,23.199l-4.268-8.537c-5.475,0.557-7.33,1.67-7.98,2.506
			c-0.092,0.186-0.463,0.649-0.092,1.763c0.834,2.877,0,4.825-0.836,5.939c-2.041,2.783-6.68,3.99-14.846,3.99
			c-2.505,0-4.269,0.557-4.825,1.392s-0.186,2.32,0,2.784h21.991c0.835,0,1.577-0.464,1.948-1.114
			c0.464-0.649,0.464-1.577,0.093-2.227l-1.484-3.063h8.072c0.836,0,1.578-0.464,1.949-1.113
			C41.341,24.777,41.341,23.941,40.97,23.199z M24.269,22.179c0.093-0.186,0.464-0.649,0.093-1.949
			c-0.743-2.598,0-4.454,0.742-5.567c1.484-2.228,4.454-3.526,9.558-4.269l-2.135-4.361c-0.371-0.835-1.206-1.3-2.134-1.3
			c-0.929,0-1.671,0.465-2.134,1.3l-3.805,7.702L18.423,1.3C18.052,0.464,17.216,0,16.289,0s-1.67,0.464-2.134,1.3L0.236,29.603
			c-0.371,0.742-0.278,1.577,0.093,2.319c0.464,0.65,1.206,1.114,1.948,1.114h1.299c-0.278-1.393-0.371-3.341,0.835-5.197
			c1.485-2.319,4.361-3.526,8.629-3.526C21.392,24.313,23.712,23.014,24.269,22.179z"/>
	</g>
</g>
</svg>
