<svg xmlns="http://www.w3.org/2000/svg" width="42" height="40"><path fill="#18545A" d="M40.188 25.426l-4.054-8.11c-5.2.53-6.962 1.587-7.58 2.38-.087.177-.44.617-.087 1.675.793 2.74 0 4.59-.793 5.65-1.94 2.646-6.345 3.79-14.1 3.79-2.38 0-4.055.53-4.583 1.32-.52.795-.17 2.205 0 2.647h20.89c.8 0 1.5-.44 1.85-1.06.44-.615.44-1.496.09-2.113l-1.41-2.91h7.67c.797 0 1.5-.44 1.85-1.056.62-.705.62-1.5.268-2.203zm-15.864-.97c.088-.176.44-.616.088-1.85-.705-2.468 0-4.23.705-5.288 1.41-2.116 4.23-3.35 9.077-4.054L32.167 9.12c-.352-.792-1.145-1.233-2.026-1.233-.88 0-1.58.44-2.02 1.234l-3.62 7.32-5.724-11.81c-.353-.79-1.146-1.23-2.028-1.23s-1.586.442-2.027 1.235L1.5 31.51c-.35.705-.263 1.498.09 2.203.44.618 1.145 1.06 1.85 1.06H4.67c-.263-1.323-.352-3.175.794-4.937 1.41-2.203 4.142-3.35 8.196-3.35 7.938 0 10.14-1.232 10.67-2.026z"/></svg>