<?xml version="1.0" encoding="utf-8"?>
<!-- Generator: Adobe Illustrator 17.0.0, SVG Export Plug-In . SVG Version: 6.00 Build 0)  -->
<!DOCTYPE svg PUBLIC "-//W3C//DTD SVG 1.1//EN" "http://www.w3.org/Graphics/SVG/1.1/DTD/svg11.dtd">
<svg version="1.1" id="Layer_1" xmlns="http://www.w3.org/2000/svg" xmlns:xlink="http://www.w3.org/1999/xlink" x="0px" y="0px"
	 width="102px" height="40px" viewBox="0 0 102 40" enable-background="new 0 0 102 40" xml:space="preserve">
<path fill="#FFFFFF" d="M40.188,25.426l-4.054-8.11c-5.2,0.53-6.962,1.587-7.58,2.38c-0.087,0.177-0.44,0.617-0.087,1.675
	c0.793,2.74,0,4.59-0.793,5.65c-1.94,2.646-6.345,3.79-14.1,3.79c-2.38,0-4.055,0.53-4.583,1.32c-0.52,0.795-0.17,2.205,0,2.647
	h20.89c0.8,0,1.5-0.44,1.85-1.06c0.44-0.615,0.44-1.496,0.09-2.113l-1.41-2.91h7.67c0.797,0,1.5-0.44,1.85-1.056
	c0.62-0.705,0.62-1.5,0.268-2.203L40.188,25.426z M24.324,24.456c0.088-0.176,0.44-0.616,0.088-1.85
	c-0.705-2.468,0-4.23,0.705-5.288c1.41-2.116,4.23-3.35,9.077-4.054L32.167,9.12c-0.352-0.792-1.145-1.233-2.026-1.233
	c-0.88,0-1.58,0.44-2.02,1.234l-3.62,7.32l-5.724-11.81c-0.353-0.79-1.146-1.23-2.028-1.23s-1.586,0.442-2.027,1.235L1.5,31.51
	c-0.35,0.705-0.263,1.498,0.09,2.203c0.44,0.618,1.145,1.06,1.85,1.06h1.23c-0.263-1.323-0.352-3.175,0.794-4.937
	c1.41-2.203,4.142-3.35,8.196-3.35c7.938,0,10.14-1.232,10.67-2.026L24.324,24.456z M47.602,4.956c0.676,0,1.27,0.09,1.78,0.273
	c0.508,0.18,0.933,0.42,1.27,0.72s0.594,0.64,0.765,1.04s0.257,0.79,0.257,1.21c0,0.39-0.076,0.78-0.23,1.163
	c-0.152,0.385-0.383,0.74-0.69,1.064c-0.31,0.325-0.698,0.605-1.167,0.84s-1.02,0.403-1.653,0.5c-0.01,0.292-0.022,0.56-0.03,0.804
	l-0.012,0.31l-0.01,0.288l-0.005,0.225l-0.003,0.133c-0.01,0.28-0.04,0.57-0.1,0.873c-0.058,0.3-0.142,0.594-0.254,0.882
	c-0.11,0.286-0.245,0.558-0.404,0.816s-0.344,0.483-0.554,0.676s-0.447,0.347-0.708,0.46s-0.546,0.172-0.856,0.172
	c-0.328,0-0.62-0.086-0.88-0.256c-0.258-0.17-0.484-0.4-0.678-0.688c-0.194-0.29-0.358-0.62-0.492-0.996s-0.243-0.765-0.327-1.175
	s-0.14-0.823-0.18-1.24s-0.05-0.806-0.05-1.174c0-0.63,0.06-1.24,0.175-1.83c0.117-0.587,0.283-1.138,0.5-1.65
	c0.216-0.515,0.478-0.983,0.787-1.407c0.31-0.426,0.656-0.79,1.043-1.093c0.385-0.304,0.806-0.54,1.26-0.704
	c0.46-0.162,0.94-0.246,1.456-0.246L47.602,4.956z M43.992,11.736c0,0.164,0,0.386,0.002,0.664s0.013,0.576,0.033,0.892
	s0.052,0.636,0.096,0.96s0.11,0.62,0.195,0.88s0.194,0.478,0.324,0.644s0.293,0.25,0.49,0.25c0.203,0,0.377-0.072,0.52-0.215
	c0.145-0.14,0.265-0.32,0.36-0.55c0.097-0.22,0.173-0.48,0.23-0.77c0.056-0.28,0.098-0.57,0.126-0.86s0.046-0.56,0.054-0.82
	s0.012-0.486,0.012-0.67v-0.283c-0.33-0.13-0.59-0.243-0.777-0.34s-0.33-0.194-0.426-0.284c-0.09-0.09-0.15-0.186-0.18-0.286
	c-0.02-0.1-0.04-0.22-0.04-0.35c0-0.076,0.01-0.15,0.01-0.22s0.02-0.137,0.04-0.19c0.02-0.058,0.044-0.103,0.077-0.138
	c0.035-0.037,0.08-0.054,0.14-0.054c0.04,0,0.077,0.01,0.11,0.024c0.035,0.016,0.077,0.04,0.13,0.07
	c0.13,0.073,0.25,0.134,0.356,0.182s0.198,0.084,0.274,0.113c0.086,0.034,0.166,0.06,0.237,0.076c0-0.052,0-0.16,0.003-0.313
	s0.014-0.334,0.036-0.534s0.06-0.41,0.11-0.63c0.053-0.215,0.13-0.415,0.23-0.6s0.233-0.33,0.394-0.45s0.36-0.18,0.6-0.18
	c0.07,0,0.146,0.01,0.22,0.02s0.147,0.04,0.21,0.08s0.113,0.09,0.155,0.155c0.04,0.064,0.063,0.147,0.063,0.247v0.058
	c-0.002,0.01-0.003,0.024-0.003,0.04l-0.368,1.56l-0.055,0.48c0.39-0.064,0.725-0.16,1.01-0.295c0.283-0.134,0.52-0.292,0.703-0.474
	c0.184-0.18,0.32-0.38,0.41-0.6s0.136-0.44,0.136-0.67c0-0.225-0.044-0.455-0.13-0.69c-0.086-0.236-0.235-0.45-0.447-0.643
	s-0.498-0.35-0.85-0.476c-0.36-0.125-0.807-0.188-1.346-0.188c-0.406,0-0.772,0.076-1.1,0.23s-0.622,0.365-0.88,0.63
	c-0.256,0.265-0.48,0.574-0.668,0.927c-0.19,0.35-0.345,0.73-0.467,1.13c-0.123,0.396-0.214,0.81-0.27,1.23s-0.09,0.83-0.09,1.234
	L43.992,11.736z M57.32,14.41c-0.09,0.13-0.214,0.28-0.37,0.455c-0.153,0.174-0.326,0.34-0.518,0.498s-0.398,0.29-0.618,0.4
	s-0.44,0.165-0.66,0.165c-0.266,0-0.487-0.084-0.665-0.253c-0.18-0.168-0.34-0.413-0.46-0.733c-0.1,0.11-0.22,0.224-0.36,0.34
	s-0.3,0.218-0.47,0.31c-0.168,0.094-0.34,0.17-0.524,0.23c-0.18,0.06-0.363,0.09-0.544,0.09c-0.193,0-0.38-0.04-0.56-0.12
	s-0.345-0.19-0.485-0.338c-0.14-0.147-0.253-0.327-0.336-0.54c-0.085-0.21-0.126-0.45-0.126-0.716c0-0.3,0.04-0.606,0.125-0.92
	c0.085-0.316,0.216-0.657,0.392-1.023c0.176-0.367,0.366-0.684,0.57-0.95c0.202-0.268,0.425-0.5,0.666-0.7s0.496-0.36,0.764-0.476
	s0.54-0.18,0.82-0.18c0.09,0,0.164,0.02,0.217,0.05c0.052,0.034,0.096,0.08,0.13,0.122l0.1,0.137
	c0.032,0.045,0.072,0.076,0.12,0.097c0.05,0.02,0.1,0.034,0.15,0.04s0.1,0.01,0.153,0.01c0.042,0,0.09,0,0.134-0.004H55.1
	c0.06,0,0.118,0.005,0.17,0.017s0.1,0.04,0.14,0.08s0.07,0.098,0.092,0.17s0.032,0.17,0.032,0.298c0,0.19-0.02,0.403-0.06,0.636
	s-0.087,0.47-0.138,0.715l-0.176,0.836c-0.066,0.31-0.1,0.574-0.1,0.79c0,0.182,0.018,0.326,0.052,0.43
	c0.033,0.102,0.106,0.154,0.22,0.154c0.082,0,0.17-0.022,0.262-0.063s0.185-0.095,0.28-0.162c0.093-0.068,0.187-0.144,0.28-0.23
	c0.095-0.086,0.184-0.173,0.268-0.265c0.196-0.215,0.394-0.457,0.595-0.727l0.287,1.316L57.32,14.41z M52.172,13.94
	c0,0.104,0.007,0.204,0.02,0.3s0.04,0.184,0.076,0.26c0.036,0.077,0.085,0.14,0.144,0.187c0.06,0.047,0.136,0.07,0.23,0.07
	c0.147,0,0.28-0.064,0.402-0.192c0.12-0.13,0.224-0.284,0.313-0.465c0.088-0.18,0.16-0.37,0.214-0.562s0.09-0.354,0.11-0.483
	l0.45-1.95c-0.16,0-0.322,0.04-0.48,0.12c-0.154,0.082-0.3,0.192-0.44,0.33c-0.14,0.14-0.264,0.298-0.38,0.477s-0.23,0.4-0.342,0.66
	s-0.19,0.493-0.237,0.69c-0.047,0.198-0.07,0.385-0.07,0.56L52.172,13.94z M61.828,14.554c-0.385,0.224-0.727,0.42-1.027,0.588
	s-0.56,0.308-0.8,0.42c-0.23,0.112-0.44,0.196-0.62,0.252s-0.35,0.084-0.494,0.084c-0.303,0-0.57-0.092-0.8-0.276
	s-0.424-0.45-0.58-0.795c-0.154-0.346-0.27-0.765-0.35-1.257c-0.08-0.492-0.116-1.046-0.116-1.663c0-0.24,0.01-0.496,0.03-0.768
	c0.02-0.28,0.046-0.55,0.082-0.81c-0.12-0.02-0.214-0.04-0.28-0.05l-0.212-0.05l-0.284-0.05l-0.5-0.07
	c-0.096-0.017-0.17-0.04-0.223-0.08c-0.05-0.04-0.09-0.083-0.114-0.134c-0.024-0.05-0.037-0.105-0.04-0.16
	c-0.007-0.057-0.01-0.104-0.01-0.144c0-0.064,0.04-0.11,0.12-0.145c0.08-0.033,0.18-0.058,0.3-0.075
	c0.124-0.015,0.258-0.025,0.405-0.027c0.147,0,0.288,0,0.422,0.003l0.36,0.01c0,0,0.18,0,0.22-0.01
	c0.107-0.54,0.244-1.06,0.41-1.565s0.35-0.955,0.557-1.348s0.43-0.708,0.673-0.946c0.247-0.238,0.5-0.357,0.77-0.357
	c0.173,0,0.33,0.05,0.47,0.144c0.144,0.096,0.265,0.224,0.365,0.384s0.18,0.347,0.23,0.56c0.056,0.214,0.083,0.437,0.083,0.67
	c0,0.19-0.028,0.393-0.084,0.606c-0.054,0.213-0.13,0.43-0.226,0.65c-0.096,0.22-0.21,0.445-0.34,0.67
	c-0.13,0.23-0.266,0.454-0.41,0.677c0.036-0.012,0.097-0.015,0.18-0.007c0.084,0.008,0.18,0.014,0.29,0.017l0.358,0.01l0.374,0.01
	l0.337,0.013l0.26,0.01c0.08,0.006,0.14,0.05,0.174,0.134c0.037,0.086,0.055,0.193,0.055,0.32c0,0.15-0.04,0.273-0.12,0.367
	s-0.17,0.14-0.265,0.14h-2.31c-0.117,0.16-0.234,0.318-0.353,0.472c-0.115,0.15-0.225,0.29-0.325,0.414
	c-0.017,0.248-0.03,0.49-0.043,0.73l-0.01,0.323l-0.013,0.33l-0.01,0.31l-0.003,0.277c0,0.217,0.02,0.4,0.06,0.547
	c0.04,0.148,0.1,0.27,0.175,0.363c0.076,0.093,0.17,0.16,0.28,0.203c0.11,0.04,0.234,0.062,0.37,0.062c0.084,0,0.19-0.02,0.315-0.06
	s0.264-0.096,0.414-0.166s0.31-0.153,0.476-0.25s0.33-0.2,0.495-0.314c0.164-0.113,0.32-0.233,0.467-0.36
	c0.15-0.125,0.282-0.254,0.402-0.386v1.536h0.004L61.828,14.554z M59.908,6.954c0-0.044-0.003-0.092-0.01-0.146
	c-0.005-0.054-0.018-0.105-0.038-0.153s-0.05-0.087-0.093-0.12c-0.042-0.032-0.102-0.048-0.178-0.048c-0.11,0-0.21,0.092-0.32,0.274
	c-0.11,0.19-0.21,0.42-0.31,0.7c-0.1,0.29-0.19,0.6-0.28,0.94c-0.087,0.34-0.167,0.68-0.24,1l0.18,0.02l0.187,0.015
	c0.12-0.202,0.246-0.42,0.376-0.655s0.247-0.467,0.35-0.694s0.19-0.44,0.26-0.635s0.104-0.36,0.104-0.485L59.908,6.954z
	 M65.016,14.62c-0.144,0.132-0.323,0.273-0.537,0.423c-0.22,0.15-0.45,0.288-0.7,0.414c-0.25,0.126-0.5,0.23-0.76,0.315
	s-0.5,0.126-0.737,0.126c-0.208,0-0.383-0.03-0.525-0.087c-0.14-0.05-0.257-0.13-0.345-0.24s-0.15-0.23-0.19-0.38
	s-0.054-0.31-0.054-0.49c0-0.25,0.03-0.545,0.084-0.88c0.114-0.695,0.19-1.086,0.22-1.17c0.056-0.17,0.164-0.55,0.328-1.137
	c0.15-0.48,0.245-0.79,0.28-0.933c0.02-0.1,0.075-0.19,0.165-0.273c0.08-0.072,0.175-0.13,0.28-0.18
	c0.103-0.044,0.212-0.08,0.324-0.1c0.113-0.023,0.215-0.034,0.305-0.034c0.164,0,0.276,0.03,0.335,0.093s0.09,0.145,0.09,0.25
	c0,0.087-0.02,0.21-0.06,0.37l-0.14,0.55c-0.054,0.207-0.13,0.47-0.236,0.794c-0.105,0.322-0.175,0.598-0.21,0.825
	c-0.04,0.23-0.09,0.457-0.146,0.68s-0.085,0.43-0.085,0.616c0,0.18,0.02,0.32,0.06,0.43s0.122,0.16,0.246,0.16
	c0.144,0,0.304-0.05,0.48-0.15c0.176-0.1,0.354-0.223,0.534-0.365s0.358-0.29,0.53-0.44s0.324-0.283,0.456-0.39v1.216L65.016,14.62z
	 M62.333,8.322c0-0.093,0.02-0.198,0.06-0.315s0.105-0.228,0.195-0.33c0.09-0.104,0.21-0.19,0.36-0.26
	c0.15-0.072,0.337-0.107,0.56-0.107c0.14,0,0.273,0.016,0.397,0.048c0.124,0.032,0.232,0.082,0.325,0.148
	c0.092,0.066,0.165,0.154,0.22,0.264c0.053,0.11,0.08,0.238,0.08,0.388c0,0.137-0.022,0.27-0.066,0.4s-0.114,0.244-0.21,0.346
	c-0.096,0.1-0.218,0.183-0.363,0.245s-0.32,0.09-0.52,0.09c-0.35,0-0.61-0.09-0.78-0.25c-0.17-0.17-0.25-0.39-0.25-0.67
	L62.333,8.322z"/>
<path fill="#FFFFFF" d="M66.61,15.9c-0.374,0-0.7-0.07-0.982-0.21c-0.28-0.137-0.514-0.324-0.7-0.558
	c-0.187-0.234-0.327-0.505-0.42-0.813c-0.094-0.31-0.14-0.63-0.14-0.97c0-0.22,0.04-0.49,0.124-0.79c0.083-0.31,0.17-0.58,0.26-0.82
	c0.088-0.24,0.2-0.467,0.336-0.68c0.135-0.217,0.294-0.407,0.474-0.57c0.18-0.165,0.384-0.295,0.61-0.39
	c0.224-0.1,0.473-0.147,0.748-0.147c0.224,0,0.432,0.036,0.625,0.11s0.36,0.17,0.502,0.3c0.143,0.13,0.254,0.288,0.333,0.47
	c0.08,0.186,0.12,0.39,0.12,0.62c0,0.243-0.08,0.514-0.244,0.816c-0.162,0.3-0.35,0.56-0.568,0.775
	c-0.217,0.215-0.474,0.407-0.773,0.575s-0.623,0.3-0.97,0.395c0.06,0.105,0.12,0.193,0.177,0.263
	c0.058,0.07,0.118,0.125,0.178,0.164c0.06,0.04,0.123,0.067,0.19,0.083c0.066,0.014,0.137,0.022,0.214,0.022
	c0.24,0,0.493-0.048,0.76-0.14c0.265-0.096,0.524-0.213,0.776-0.354c0.252-0.14,0.49-0.294,0.714-0.46
	c0.224-0.167,0.414-0.325,0.57-0.474l0.774,0.784c-0.352,0.376-0.727,0.708-1.123,0.996c-0.172,0.123-0.357,0.245-0.555,0.365
	s-0.406,0.227-0.624,0.32c-0.218,0.092-0.444,0.166-0.678,0.222c-0.232,0.057-0.47,0.085-0.71,0.085L66.61,15.9z M65.807,13.04
	c0.144,0,0.302-0.036,0.473-0.108s0.33-0.165,0.476-0.28c0.147-0.112,0.29-0.265,0.43-0.457s0.212-0.35,0.212-0.475
	c0-0.176-0.033-0.32-0.1-0.434c-0.065-0.114-0.147-0.17-0.243-0.17c-0.173,0-0.32,0.03-0.443,0.094s-0.225,0.143-0.307,0.244
	c-0.082,0.1-0.148,0.213-0.2,0.34s-0.107,0.286-0.174,0.474c-0.06,0.188-0.1,0.342-0.11,0.463c0,0.12-0.01,0.23-0.01,0.31
	L65.807,13.04z"/>
<path fill="#FFFFFF" d="M69.12,14.645c0-0.264,0.017-0.57,0.05-0.915s0.07-0.727,0.12-1.14c0.047-0.414,0.1-0.787,0.16-1.12
	c0.062-0.33,0.12-0.615,0.175-0.85c0.044-0.185,0.13-0.34,0.255-0.463s0.297-0.186,0.513-0.186s0.366,0.07,0.45,0.2
	c0.085,0.13,0.126,0.31,0.126,0.53c0,0.06-0.01,0.14-0.02,0.25c-0.01,0.102-0.03,0.214-0.05,0.336l-0.06,0.378
	c0,0-0.04,0.28-0.058,0.445s-0.033,0.29-0.046,0.37c-0.01,0.084-0.018,0.14-0.018,0.167h0.12l0.113-0.213c0,0,0.115-0.24,0.18-0.424
	c0.07-0.185,0.144-0.348,0.22-0.49c0.08-0.14,0.15-0.278,0.22-0.408s0.13-0.246,0.187-0.346l0.125-0.222
	c0.13-0.215,0.273-0.363,0.44-0.443s0.343-0.12,0.543-0.12s0.36,0.087,0.477,0.255c0.12,0.17,0.178,0.4,0.178,0.697
	c0,0.044-0.01,0.118-0.027,0.22c-0.017,0.106-0.04,0.23-0.07,0.374s-0.057,0.33-0.09,0.558l-0.09,0.615c0,0-0.05,0.357-0.07,0.533
	s-0.028,0.34-0.028,0.487c0,0.25,0.032,0.453,0.094,0.613s0.16,0.24,0.29,0.24c0.05,0,0.116-0.02,0.204-0.056
	c0.13-0.045,0.217-0.09,0.25-0.123c0.18-0.134,0.27-0.2,0.28-0.196c0.012,0.002,0.146-0.078,0.402-0.24
	c0.32-0.206,0.7-0.456,1.144-0.75l-0.007,1.342l-0.3,0.23c-0.024,0.02-0.213,0.124-0.564,0.31c-0.51,0.274-0.827,0.438-0.955,0.494
	c-0.31,0.14-0.505,0.22-0.58,0.24c-0.2,0.064-0.41,0.096-0.63,0.096s-0.406-0.16-0.556-0.477s-0.225-0.79-0.225-1.4
	c0-0.24,0.014-0.5,0.046-0.778s0.07-0.578,0.12-0.898h-0.096l-1.57,3.12c-0.085,0.17-0.175,0.28-0.27,0.336
	c-0.1,0.06-0.217,0.09-0.35,0.09c-0.16,0-0.296-0.035-0.396-0.105c-0.1-0.07-0.178-0.163-0.23-0.28
	c-0.055-0.12-0.09-0.253-0.11-0.403c-0.014-0.15-0.023-0.304-0.023-0.463L69.12,14.645z M79.93,14.555
	c-0.386,0.223-0.728,0.42-1.028,0.587s-0.568,0.308-0.803,0.42c-0.24,0.112-0.45,0.196-0.63,0.252s-0.35,0.084-0.5,0.084
	c-0.304,0-0.57-0.092-0.8-0.276s-0.425-0.45-0.58-0.795c-0.155-0.346-0.27-0.765-0.35-1.257s-0.117-1.046-0.117-1.663
	c0-0.24,0.01-0.496,0.03-0.768c0.02-0.28,0.046-0.55,0.082-0.81c-0.12-0.02-0.215-0.04-0.28-0.05l-0.213-0.05l-0.283-0.05
	c-0.116-0.02-0.28-0.04-0.5-0.07c-0.097-0.017-0.17-0.04-0.224-0.08c-0.05-0.04-0.09-0.083-0.114-0.134
	c-0.024-0.05-0.037-0.105-0.042-0.16c-0.003-0.057-0.005-0.104-0.005-0.144c0-0.064,0.04-0.11,0.12-0.145
	c0.08-0.033,0.18-0.058,0.3-0.075c0.122-0.015,0.256-0.025,0.403-0.027s0.288,0,0.422,0.003l0.36,0.01c0,0,0.18,0,0.22-0.01
	c0.107-0.54,0.244-1.06,0.41-1.565s0.35-0.955,0.557-1.348s0.43-0.708,0.674-0.946c0.248-0.238,0.5-0.357,0.77-0.357
	c0.174,0,0.33,0.05,0.47,0.144c0.145,0.096,0.266,0.224,0.366,0.384s0.18,0.347,0.23,0.56c0.056,0.214,0.083,0.437,0.083,0.67
	c0,0.19-0.03,0.393-0.085,0.606c-0.056,0.213-0.13,0.43-0.228,0.65c-0.098,0.22-0.21,0.445-0.34,0.67
	c-0.13,0.23-0.266,0.454-0.41,0.677c0.036-0.012,0.097-0.015,0.18-0.007c0.084,0.008,0.18,0.014,0.29,0.017l0.358,0.01l0.374,0.01
	l0.335,0.013l0.258,0.01c0.08,0.006,0.14,0.05,0.175,0.134c0.037,0.086,0.055,0.193,0.055,0.32c0,0.15-0.04,0.273-0.12,0.367
	s-0.167,0.14-0.263,0.14h-2.31c-0.117,0.16-0.234,0.318-0.353,0.472s-0.228,0.29-0.328,0.414c-0.02,0.248-0.03,0.49-0.046,0.73
	l-0.01,0.323l-0.012,0.33l-0.01,0.31l-0.002,0.277c0,0.217,0.02,0.4,0.06,0.547c0.04,0.148,0.1,0.27,0.176,0.363
	c0.078,0.093,0.17,0.16,0.28,0.203c0.11,0.04,0.236,0.062,0.37,0.062c0.086,0,0.19-0.02,0.317-0.06s0.264-0.096,0.414-0.166
	s0.31-0.153,0.474-0.25s0.33-0.2,0.495-0.314s0.32-0.233,0.468-0.36s0.282-0.254,0.402-0.386v1.536h0.004L79.93,14.555z
	 M78.01,6.955c0-0.045-0.004-0.093-0.01-0.147s-0.02-0.105-0.04-0.153s-0.05-0.087-0.092-0.12c-0.042-0.032-0.102-0.048-0.178-0.048
	c-0.104,0-0.21,0.092-0.316,0.274c-0.107,0.19-0.21,0.42-0.308,0.7c-0.098,0.29-0.19,0.6-0.277,0.94c-0.09,0.34-0.17,0.68-0.24,1
	l0.18,0.02l0.18,0.015c0.12-0.202,0.245-0.42,0.375-0.655s0.25-0.467,0.352-0.694s0.19-0.44,0.26-0.635s0.102-0.36,0.102-0.485
	L78.01,6.955z M49.31,17.195c0.876,0,1.645,0.116,2.305,0.352c0.66,0.235,1.21,0.55,1.648,0.94c0.44,0.39,0.768,0.838,0.99,1.346
	c0.223,0.507,0.334,1.032,0.334,1.575c0,0.51-0.1,1.012-0.297,1.51c-0.2,0.498-0.498,0.958-0.897,1.378s-0.903,0.784-1.51,1.09
	s-1.323,0.522-2.143,0.646c-0.015,0.38-0.03,0.727-0.04,1.044l-0.014,0.405c0,0-0.01,0.26-0.01,0.37l-0.01,0.3l-0.003,0.17
	c-0.01,0.368-0.054,0.74-0.13,1.13s-0.184,0.77-0.327,1.148s-0.317,0.727-0.523,1.06c-0.206,0.333-0.446,0.626-0.72,0.877
	s-0.578,0.45-0.917,0.598c-0.338,0.148-0.708,0.22-1.11,0.22c-0.425,0-0.804-0.11-1.14-0.33c-0.333-0.22-0.627-0.516-0.878-0.89
	c-0.252-0.372-0.465-0.802-0.638-1.29c-0.174-0.486-0.315-0.995-0.424-1.526c-0.11-0.53-0.188-1.065-0.237-1.603
	c-0.05-0.54-0.08-1.046-0.08-1.523c0-0.82,0.07-1.61,0.222-2.37c0.15-0.76,0.366-1.475,0.647-2.14c0.28-0.667,0.62-1.274,1.02-1.824
	s0.852-1.02,1.354-1.414s1.05-0.7,1.637-0.91c0.586-0.215,1.213-0.323,1.88-0.323L49.31,17.195z M44.628,25.981
	c0,0.22,0,0.5,0.004,0.86c0.002,0.37,0.016,0.75,0.043,1.16c0.026,0.41,0.067,0.83,0.124,1.25c0.05,0.42,0.14,0.8,0.25,1.14
	s0.25,0.62,0.42,0.838c0.17,0.215,0.38,0.323,0.63,0.323c0.26,0,0.49-0.092,0.673-0.277c0.187-0.184,0.342-0.423,0.467-0.717
	s0.223-0.626,0.296-0.997c0.07-0.37,0.126-0.743,0.162-1.117s0.06-0.73,0.07-1.074c0.01-0.34,0.015-0.63,0.015-0.87v-0.366
	c-0.427-0.165-0.763-0.313-1.007-0.44c-0.244-0.128-0.428-0.25-0.55-0.368s-0.2-0.242-0.236-0.37c-0.034-0.13-0.05-0.283-0.05-0.456
	c0-0.098,0.003-0.19,0.008-0.286c0.005-0.095,0.02-0.178,0.043-0.25s0.057-0.13,0.1-0.176s0.105-0.068,0.18-0.068
	c0.05,0,0.1,0.01,0.144,0.03c0.043,0.02,0.1,0.05,0.165,0.09c0.17,0.095,0.322,0.175,0.46,0.237s0.258,0.11,0.356,0.15
	c0.112,0.042,0.215,0.075,0.31,0.096l0.002-0.406c0.003-0.204,0.02-0.434,0.047-0.694c0.03-0.26,0.078-0.53,0.146-0.814
	c0.07-0.284,0.17-0.544,0.3-0.78c0.13-0.234,0.3-0.43,0.51-0.584s0.47-0.234,0.777-0.234c0.092,0,0.19,0.01,0.287,0.028
	s0.188,0.05,0.27,0.1c0.08,0.05,0.146,0.12,0.2,0.2c0.056,0.087,0.083,0.19,0.083,0.32c0,0.04,0,0.065-0.005,0.078
	s-0.003,0.03-0.003,0.05l-0.473,2.025l-0.07,0.623c0.51-0.08,0.946-0.205,1.314-0.378c0.365-0.174,0.67-0.38,0.91-0.616
	c0.24-0.238,0.42-0.498,0.535-0.782c0.116-0.284,0.174-0.575,0.174-0.875c0-0.292-0.054-0.59-0.165-0.895s-0.306-0.582-0.58-0.833
	c-0.275-0.25-0.643-0.458-1.104-0.62c-0.46-0.16-1.04-0.243-1.74-0.243c-0.525,0-1,0.1-1.427,0.3c-0.428,0.2-0.807,0.47-1.14,0.814
	s-0.62,0.744-0.866,1.2c-0.243,0.46-0.445,0.947-0.603,1.464c-0.16,0.52-0.276,1.05-0.35,1.6c-0.08,0.554-0.117,1.087-0.117,1.61
	L44.628,25.981z M61.908,29.451c-0.12,0.17-0.28,0.37-0.48,0.59s-0.424,0.44-0.673,0.65c-0.25,0.206-0.516,0.38-0.8,0.52
	c-0.286,0.14-0.572,0.21-0.857,0.21c-0.346,0-0.633-0.11-0.863-0.33s-0.428-0.53-0.596-0.95c-0.13,0.14-0.28,0.29-0.47,0.44
	s-0.384,0.286-0.6,0.407c-0.218,0.123-0.444,0.22-0.68,0.298s-0.47,0.118-0.706,0.118c-0.25,0-0.49-0.05-0.727-0.152
	s-0.445-0.25-0.626-0.44c-0.18-0.19-0.325-0.422-0.434-0.696c-0.11-0.274-0.164-0.584-0.164-0.93c0-0.387,0.054-0.785,0.163-1.193
	s0.28-0.85,0.51-1.326c0.227-0.476,0.474-0.887,0.74-1.233c0.26-0.344,0.55-0.65,0.863-0.905c0.312-0.26,0.642-0.463,0.99-0.615
	c0.346-0.15,0.7-0.23,1.06-0.23c0.12,0,0.213,0.026,0.28,0.073s0.124,0.1,0.168,0.16l0.13,0.176c0,0,0.093,0.1,0.156,0.125
	c0.06,0.027,0.124,0.044,0.19,0.05s0.132,0.013,0.2,0.013c0.056,0,0.115,0,0.175-0.006s0.12,0,0.177,0
	c0.077,0,0.15,0.007,0.218,0.023s0.13,0.05,0.18,0.102c0.053,0.05,0.093,0.124,0.12,0.22s0.045,0.22,0.045,0.383
	c0,0.247-0.027,0.522-0.08,0.824c-0.05,0.3-0.11,0.61-0.176,0.93l-0.23,1.08c-0.086,0.41-0.13,0.75-0.13,1.03
	c0,0.236,0.02,0.42,0.067,0.557c0.045,0.137,0.14,0.204,0.285,0.204c0.11,0,0.223-0.03,0.34-0.08s0.24-0.127,0.364-0.215
	s0.244-0.19,0.366-0.3c0.12-0.11,0.236-0.225,0.345-0.344c0.255-0.277,0.51-0.59,0.77-0.94l0.373,1.71L61.908,29.451z
	 M55.232,28.841c0,0.14,0.01,0.27,0.027,0.39s0.05,0.24,0.09,0.34c0.045,0.1,0.11,0.18,0.185,0.24c0.08,0.06,0.177,0.09,0.296,0.09
	c0.19,0,0.366-0.08,0.52-0.25c0.158-0.17,0.29-0.37,0.407-0.6s0.206-0.48,0.276-0.73s0.116-0.46,0.136-0.624l0.58-2.53
	c-0.215,0-0.42,0.05-0.624,0.158c-0.204,0.106-0.394,0.25-0.573,0.43s-0.343,0.385-0.493,0.616c-0.15,0.23-0.296,0.516-0.442,0.855
	c-0.144,0.338-0.247,0.636-0.306,0.894s-0.088,0.5-0.088,0.724L55.232,28.841z M67.75,29.641c-0.498,0.29-0.942,0.546-1.332,0.765
	c-0.39,0.218-0.736,0.4-1.04,0.544c-0.304,0.146-0.574,0.255-0.81,0.33c-0.237,0.07-0.45,0.11-0.643,0.11
	c-0.392,0-0.737-0.12-1.037-0.36s-0.55-0.58-0.75-1.03c-0.202-0.45-0.353-0.994-0.454-1.63c-0.1-0.64-0.15-1.358-0.15-2.157
	c0-0.31,0.012-0.642,0.038-0.995c0.025-0.35,0.06-0.7,0.107-1.05c-0.16-0.02-0.28-0.043-0.37-0.063l-0.278-0.06
	c-0.097-0.02-0.22-0.043-0.368-0.066c-0.15-0.024-0.366-0.053-0.647-0.087c-0.125-0.016-0.22-0.05-0.29-0.1s-0.117-0.106-0.15-0.172
	c-0.03-0.063-0.048-0.133-0.054-0.205c-0.006-0.074-0.01-0.136-0.01-0.188c0-0.083,0.05-0.145,0.154-0.188s0.234-0.078,0.39-0.1
	c0.16-0.023,0.336-0.035,0.527-0.037c0.19-0.002,0.372,0,0.547,0.004c0.177,0.005,0.334,0.01,0.47,0.01
	c0.14,0.004,0.236,0,0.287-0.01c0.14-0.698,0.316-1.374,0.53-2.03s0.457-1.235,0.723-1.744c0.267-0.51,0.558-0.918,0.874-1.226
	c0.316-0.308,0.648-0.462,0.995-0.462c0.224,0,0.43,0.062,0.61,0.187c0.186,0.125,0.343,0.29,0.473,0.5
	c0.13,0.207,0.226,0.45,0.3,0.726c0.07,0.276,0.102,0.565,0.102,0.865c0,0.25-0.038,0.513-0.11,0.79
	c-0.07,0.277-0.17,0.56-0.296,0.845c-0.126,0.284-0.27,0.575-0.44,0.87c-0.17,0.293-0.348,0.585-0.535,0.874
	c0.048-0.018,0.125-0.02,0.235-0.01s0.238,0.017,0.38,0.02l0.463,0.013l0.486,0.013l0.434,0.016c0.137,0.004,0.248,0.01,0.337,0.014
	c0.105,0.007,0.18,0.065,0.226,0.174c0.05,0.11,0.07,0.248,0.07,0.416c0,0.19-0.05,0.35-0.154,0.47
	c-0.103,0.122-0.217,0.183-0.342,0.183h-2.99c-0.15,0.208-0.302,0.41-0.456,0.61c-0.152,0.2-0.294,0.38-0.425,0.54
	c-0.02,0.32-0.04,0.638-0.058,0.95l-0.014,0.415l-0.018,0.425c0,0-0.01,0.273-0.01,0.403c-0.006,0.13-0.007,0.25-0.007,0.36
	c0,0.28,0.025,0.516,0.077,0.708s0.13,0.35,0.227,0.47s0.22,0.21,0.364,0.268c0.144,0.055,0.304,0.082,0.48,0.082
	c0.11,0,0.247-0.027,0.41-0.08c0.163-0.05,0.343-0.123,0.538-0.214s0.4-0.196,0.614-0.32c0.215-0.127,0.428-0.264,0.638-0.41
	c0.21-0.15,0.413-0.305,0.605-0.468s0.366-0.33,0.522-0.5v1.992L67.75,29.641z M65.26,19.791c0-0.057-0.004-0.12-0.01-0.19
	c-0.01-0.07-0.026-0.136-0.052-0.2s-0.066-0.113-0.12-0.154s-0.133-0.063-0.232-0.063c-0.135,0-0.272,0.12-0.41,0.357
	c-0.138,0.236-0.27,0.54-0.398,0.906c-0.127,0.37-0.248,0.772-0.36,1.215c-0.11,0.444-0.214,0.874-0.308,1.29l0.234,0.02
	c0.078,0.007,0.16,0.01,0.242,0.02c0.157-0.26,0.32-0.543,0.488-0.85s0.32-0.603,0.457-0.9c0.14-0.293,0.25-0.57,0.34-0.824
	s0.14-0.466,0.14-0.63L65.26,19.791z M69.836,26.634c0.213-0.29,0.45-0.597,0.716-0.927c0.264-0.33,0.618-0.712,1.062-1.143
	c0.444-0.434,0.806-0.744,1.09-0.93s0.548-0.287,0.797-0.287c0.07,0,0.14,0.014,0.21,0.038s0.16,0.07,0.23,0.13
	s0.13,0.155,0.177,0.27c0.047,0.11,0.07,0.26,0.07,0.44c0,0.36-0.05,0.71-0.15,1.05s-0.283,0.754-0.56,1.24s-0.46,0.905-0.554,1.26
	c-0.096,0.354-0.144,0.724-0.144,1.11c0,0.21,0.03,0.38,0.094,0.507c0.06,0.128,0.14,0.19,0.24,0.19c0.125,0,0.257-0.025,0.398-0.08
	c0.14-0.05,0.28-0.12,0.42-0.202c0.14-0.083,0.28-0.18,0.414-0.286c0.136-0.107,0.263-0.22,0.38-0.334
	c0.287-0.27,0.567-0.573,0.84-0.914l0.134,2.07c-0.093,0.07-0.212,0.155-0.354,0.257c-0.146,0.1-0.3,0.21-0.477,0.325
	c-0.174,0.115-0.36,0.23-0.564,0.347s-0.406,0.22-0.61,0.31s-0.41,0.163-0.616,0.22c-0.204,0.058-0.4,0.087-0.586,0.087
	c-0.29,0-0.545-0.074-0.76-0.22c-0.216-0.146-0.39-0.33-0.53-0.556c-0.138-0.22-0.24-0.47-0.31-0.734s-0.104-0.52-0.104-0.756
	c0-0.17,0.024-0.357,0.07-0.564s0.1-0.416,0.17-0.626c0.067-0.21,0.143-0.414,0.227-0.613c0.088-0.2,0.166-0.377,0.24-0.534
	s0.136-0.285,0.19-0.385c0.053-0.1,0.09-0.16,0.104-0.172l-0.163-0.024c-0.09,0.057-0.24,0.2-0.45,0.43s-0.446,0.524-0.71,0.876
	c-0.265,0.35-0.54,0.746-0.82,1.184c-0.285,0.44-0.54,0.89-0.77,1.358c-0.113,0.23-0.207,0.43-0.28,0.603
	c-0.072,0.175-0.143,0.31-0.213,0.418s-0.147,0.183-0.23,0.236c-0.083,0.052-0.19,0.08-0.32,0.08c-0.17,0-0.305-0.047-0.404-0.14
	c-0.1-0.09-0.175-0.216-0.226-0.37c-0.053-0.15-0.087-0.327-0.103-0.52c-0.014-0.196-0.022-0.396-0.022-0.6
	c0-0.356,0.005-0.823,0.01-1.4c0.01-0.576,0.034-1.215,0.076-1.916c0.04-0.705,0.117-1.43,0.227-2.18l0.324-2.25
	c0.11-0.744,0.27-1.453,0.487-2.126c0.218-0.673,0.48-1.266,0.79-1.777c0.31-0.51,0.67-0.92,1.087-1.22
	c0.416-0.3,0.893-0.45,1.433-0.45c0.28,0,0.51,0.04,0.69,0.12c0.18,0.087,0.32,0.2,0.427,0.355c0.106,0.15,0.18,0.33,0.22,0.543
	c0.043,0.21,0.063,0.447,0.063,0.707c0,0.39-0.053,0.82-0.162,1.29s-0.253,0.96-0.432,1.47c-0.18,0.508-0.383,1.023-0.61,1.544
	c-0.23,0.522-0.463,1.027-0.7,1.517c-0.24,0.49-0.474,0.953-0.705,1.388c-0.23,0.437-0.43,0.82-0.61,1.15l0.16,0.11L69.836,26.634z
	 M70.526,21.738c0.307-0.794,0.53-1.463,0.666-2.01c0.138-0.542,0.207-0.944,0.207-1.203c0-0.394-0.06-0.59-0.17-0.59
	c-0.14,0-0.34,0.22-0.6,0.66c-0.27,0.44-0.58,1.08-0.94,1.92c-0.09,0.286-0.17,0.58-0.245,0.887
	c-0.075,0.307-0.135,0.613-0.18,0.918l-0.13,0.9l-0.12,0.836c-0.114,0.613-0.2,1.215-0.26,1.805c0.14-0.328,0.293-0.683,0.46-1.067
	s0.33-0.765,0.49-1.14l0.456-1.066c0.145-0.335,0.264-0.62,0.357-0.853L70.526,21.738z M78.866,27.543
	c-0.15,0.565-0.326,1.083-0.53,1.55c-0.204,0.47-0.422,0.875-0.655,1.215s-0.47,0.606-0.72,0.794c-0.24,0.19-0.49,0.284-0.72,0.284
	c-0.39,0-0.68-0.295-0.862-0.892c-0.183-0.596-0.275-1.48-0.275-2.644v-1.53c0-0.44,0.003-0.884,0.008-1.326
	c0.006-0.44,0.006-0.585,0-0.427l-0.014,0.44l-0.005,0.17c0,0.08,0.02,0.04,0.06-0.12s0.1-0.32,0.17-0.494s0.16-0.33,0.27-0.47
	c0.11-0.14,0.238-0.26,0.386-0.35s0.326-0.14,0.534-0.14l0.2,0.015c0.247,0,0.436,0.046,0.57,0.135c0.13,0.09,0.196,0.21,0.196,0.36
	l-0.63,4.522l0.104-0.006c0.23-0.53,0.44-1.064,0.636-1.606s0.363-0.99,0.506-1.336c0.14-0.347,0.28-0.65,0.41-0.91
	c0.13-0.26,0.276-0.474,0.43-0.646c0.157-0.17,0.33-0.3,0.527-0.384s0.425-0.128,0.695-0.128c0.23,0,0.405,0.045,0.527,0.135
	c0.125,0.09,0.186,0.21,0.186,0.36l-0.725,4.52h0.117l1.936-4.467c0.062-0.146,0.197-0.275,0.405-0.386
	c0.208-0.112,0.455-0.168,0.74-0.168c0.295,0,0.534,0.06,0.716,0.18c0.18,0.12,0.272,0.28,0.272,0.47c0,0.146-0.025,0.3-0.074,0.468
	c-0.05,0.167-0.1,0.32-0.16,0.464c-0.054,0.14-0.11,0.264-0.16,0.366l-0.086,0.166c-0.116,0.21-0.234,0.454-0.356,0.734
	c-0.12,0.28-0.22,0.486-0.29,0.62c-0.09,0.156-0.166,0.3-0.233,0.436c0.07,0.203,0.166,0.385,0.28,0.545
	c0.1,0.136,0.22,0.26,0.366,0.374c0.144,0.114,0.32,0.17,0.52,0.17c0.172,0,0.37-0.045,0.59-0.135
	c0.224-0.09,0.434-0.194,0.63-0.308c0.236-0.13,0.474-0.277,0.718-0.444v1.88c-0.34,0.23-0.695,0.41-1.06,0.545
	c-0.367,0.136-0.718,0.203-1.055,0.203c-0.266,0-0.517-0.033-0.753-0.098s-0.443-0.167-0.622-0.31s-0.32-0.324-0.426-0.55
	c-0.11-0.226-0.164-0.5-0.17-0.82c-0.176,0.414-0.36,0.794-0.55,1.14c-0.194,0.343-0.39,0.64-0.593,0.89
	c-0.2,0.25-0.405,0.442-0.613,0.583c-0.208,0.14-0.415,0.21-0.62,0.21c-0.074,0-0.138-0.055-0.19-0.166
	c-0.057-0.11-0.1-0.26-0.14-0.45c-0.035-0.19-0.065-0.41-0.09-0.66c-0.02-0.25-0.04-0.517-0.052-0.797
	c-0.013-0.28-0.022-0.567-0.027-0.863c-0.004-0.297-0.007-0.586-0.007-0.866l-0.23-0.035L78.866,27.543z M93.758,29.45
	c-0.12,0.167-0.28,0.364-0.478,0.59c-0.2,0.224-0.424,0.44-0.673,0.644c-0.25,0.204-0.516,0.377-0.8,0.52
	c-0.286,0.14-0.572,0.212-0.857,0.212c-0.345,0-0.632-0.11-0.862-0.328c-0.23-0.218-0.428-0.535-0.596-0.95
	c-0.126,0.142-0.28,0.29-0.463,0.438s-0.39,0.284-0.6,0.405c-0.22,0.13-0.45,0.22-0.68,0.3s-0.47,0.12-0.71,0.12
	c-0.25,0-0.49-0.05-0.73-0.15c-0.237-0.1-0.446-0.25-0.627-0.44c-0.18-0.19-0.327-0.424-0.436-0.698
	c-0.11-0.275-0.163-0.585-0.163-0.93c0-0.39,0.055-0.786,0.164-1.194c0.11-0.41,0.28-0.85,0.51-1.326
	c0.23-0.477,0.474-0.888,0.74-1.234c0.26-0.345,0.55-0.65,0.863-0.906c0.31-0.26,0.64-0.464,0.99-0.616
	c0.346-0.153,0.7-0.23,1.06-0.23c0.12,0,0.213,0.025,0.28,0.072s0.125,0.1,0.17,0.16l0.13,0.177c0,0,0.09,0.1,0.155,0.126
	s0.125,0.04,0.19,0.05s0.133,0.01,0.2,0.01c0.057,0,0.116,0,0.176-0.004s0.12-0.002,0.177-0.002c0.076,0,0.15,0.01,0.217,0.025
	s0.13,0.05,0.18,0.1s0.093,0.125,0.12,0.22s0.045,0.222,0.045,0.384c0,0.248-0.028,0.523-0.08,0.825
	c-0.05,0.303-0.11,0.613-0.178,0.93l-0.23,1.084c-0.085,0.408-0.127,0.75-0.127,1.028c0,0.24,0.02,0.425,0.066,0.56
	c0.045,0.135,0.14,0.2,0.285,0.2c0.11,0,0.223-0.025,0.34-0.08c0.12-0.053,0.24-0.123,0.364-0.21
	c0.12-0.086,0.242-0.186,0.364-0.296c0.12-0.11,0.234-0.225,0.343-0.344c0.254-0.28,0.51-0.59,0.77-0.94l0.373,1.71L93.758,29.45z
	 M87.083,28.84c0,0.133,0.01,0.263,0.027,0.39c0.018,0.125,0.05,0.237,0.098,0.336c0.047,0.1,0.11,0.18,0.187,0.24
	c0.078,0.062,0.177,0.092,0.296,0.092c0.2,0,0.37-0.084,0.53-0.25s0.29-0.37,0.407-0.604s0.207-0.478,0.277-0.73
	c0.07-0.25,0.116-0.458,0.136-0.625l0.58-2.53c-0.213,0-0.42,0.05-0.62,0.15c-0.205,0.104-0.395,0.25-0.574,0.43
	s-0.346,0.384-0.496,0.615c-0.15,0.23-0.3,0.517-0.445,0.856c-0.145,0.34-0.25,0.637-0.307,0.895s-0.09,0.5-0.09,0.728L87.083,28.84
	z"/>
<path fill="#FFFFFF" d="M96.18,31.51l0.17-0.94c-0.28,0.245-0.57,0.445-0.874,0.596c-0.304,0.152-0.598,0.227-0.883,0.227
	c-0.25,0-0.49-0.05-0.727-0.152c-0.236-0.1-0.445-0.24-0.626-0.43c-0.182-0.19-0.327-0.42-0.436-0.69
	c-0.11-0.27-0.163-0.58-0.163-0.92c0-0.45,0.04-0.864,0.1-1.24l0.23-1.393c0.09-0.552,0.2-0.99,0.326-1.307s0.267-0.643,0.428-0.97
	c0.12-0.234,0.29-0.41,0.514-0.533s0.44-0.182,0.654-0.182c0.18,0,0.338,0.047,0.467,0.138s0.19,0.233,0.19,0.425
	c0,0.056-0.007,0.12-0.02,0.186c-0.012,0.068-0.034,0.14-0.064,0.22c-0.093,0.24-0.17,0.523-0.233,0.85l-0.252,1.317l-0.25,1.308
	c-0.06,0.32-0.09,0.607-0.09,0.86c0,0.13,0.01,0.257,0.026,0.38s0.05,0.234,0.096,0.33s0.11,0.177,0.187,0.237
	s0.175,0.09,0.294,0.09c0.19,0,0.365-0.086,0.52-0.253s0.29-0.366,0.406-0.6c0.114-0.235,0.206-0.478,0.276-0.73
	s0.115-0.46,0.136-0.626l0.623-2.91c0.036-0.17,0.11-0.327,0.22-0.467c0.1-0.135,0.224-0.25,0.364-0.346s0.282-0.167,0.434-0.214
	c0.15-0.047,0.294-0.07,0.43-0.07c0.16,0,0.293,0.036,0.403,0.105c0.11,0.07,0.163,0.18,0.163,0.33c0,0.05-0.008,0.104-0.023,0.165
	l-0.098,0.556l-0.14,0.794c-0.05,0.298-0.124,0.71-0.217,1.25l-0.226,1.292c-0.13,0.77-0.264,1.598-0.4,2.483
	c0.157-0.09,0.326-0.2,0.51-0.328s0.383-0.304,0.606-0.52s0.47-0.493,0.745-0.82s0.583-0.74,0.926-1.234l0.375,1.73
	c-0.09,0.16-0.21,0.325-0.356,0.49c-0.157,0.175-0.32,0.346-0.5,0.51c-0.26,0.237-0.446,0.397-0.56,0.48
	c-0.036,0.025-0.225,0.174-0.57,0.446c-0.102,0.09-0.445,0.326-1.03,0.714c-0.14,0.095-0.24,0.265-0.29,0.51
	c-0.053,0.247-0.113,0.705-0.18,1.374c-0.03,0.19-0.05,0.34-0.057,0.44c-0.03,0.25-0.06,0.486-0.09,0.71s-0.08,0.48-0.15,0.768
	s-0.16,0.55-0.258,0.792c-0.1,0.24-0.228,0.482-0.39,0.72c-0.16,0.238-0.336,0.442-0.53,0.61c-0.195,0.17-0.43,0.306-0.704,0.41
	c-0.274,0.103-0.574,0.155-0.9,0.155c-0.264,0-0.51-0.03-0.733-0.09s-0.43-0.15-0.62-0.275c-0.184-0.124-0.337-0.294-0.456-0.51
	c-0.12-0.214-0.19-0.466-0.21-0.757c-0.04-0.55,0.11-1.13,0.453-1.74c0.192-0.342,0.326-0.58,0.405-0.71
	c0.08-0.133,0.2-0.324,0.37-0.572c0.166-0.245,0.34-0.465,0.52-0.66c0.364-0.41,0.664-0.74,0.9-0.99
	c0.234-0.247,0.516-0.514,0.843-0.8L96.18,31.51z M96.206,33.385c-0.364,0.26-0.722,0.674-1.075,1.245
	c-0.35,0.57-0.63,1.15-0.84,1.742c-0.17,0.498-0.08,0.747,0.26,0.747c0.128,0,0.24-0.02,0.338-0.05s0.19-0.09,0.27-0.17
	c0.085-0.08,0.158-0.17,0.22-0.268c0.06-0.096,0.128-0.23,0.2-0.405c0.07-0.174,0.13-0.345,0.186-0.514
	c0.054-0.17,0.123-0.393,0.206-0.673c0.05-0.152,0.082-0.32,0.105-0.504c0.025-0.187,0.05-0.41,0.08-0.668
	c0.034-0.26,0.055-0.424,0.06-0.496L96.206,33.385z"/>
</svg>
