<?xml version="1.0" encoding="utf-8"?>
<!-- Generator: Adobe Illustrator 17.0.0, SVG Export Plug-In . SVG Version: 6.00 Build 0)  -->
<!DOCTYPE svg PUBLIC "-//W3C//DTD SVG 1.1//EN" "http://www.w3.org/Graphics/SVG/1.1/DTD/svg11.dtd">
<svg version="1.1" id="Layer_1" xmlns="http://www.w3.org/2000/svg" xmlns:xlink="http://www.w3.org/1999/xlink" x="0px" y="0px"
	 width="42px" height="40px" viewBox="0 0 42 40" enable-background="new 0 0 42 40" xml:space="preserve">
<g id="Forma_1_1_">
	<g>
		<path fill="#18545A" d="M40.188,25.426l-4.054-8.109c-5.199,0.529-6.962,1.586-7.579,2.38c-0.088,0.176-0.441,0.616-0.088,1.674
			c0.793,2.732,0,4.583-0.793,5.641c-1.939,2.645-6.345,3.789-14.101,3.789c-2.38,0-4.054,0.529-4.582,1.322
			c-0.529,0.793-0.176,2.203,0,2.645h20.887c0.793,0,1.498-0.441,1.851-1.058c0.44-0.617,0.44-1.498,0.088-2.115l-1.41-2.909h7.667
			c0.793,0,1.498-0.441,1.851-1.057C40.54,26.924,40.54,26.131,40.188,25.426z M24.324,24.456c0.088-0.176,0.441-0.616,0.088-1.85
			c-0.705-2.468,0-4.231,0.705-5.288c1.41-2.116,4.23-3.349,9.077-4.054l-2.027-4.143c-0.352-0.793-1.145-1.234-2.026-1.234
			c-0.882,0-1.587,0.44-2.027,1.234L24.5,16.436L18.772,4.625c-0.352-0.793-1.146-1.234-2.027-1.234s-1.586,0.441-2.027,1.234
			L1.499,31.507c-0.352,0.705-0.264,1.498,0.088,2.203c0.441,0.617,1.146,1.058,1.851,1.058h1.234
			c-0.264-1.322-0.353-3.174,0.793-4.936c1.41-2.203,4.142-3.349,8.196-3.349C21.592,26.483,23.795,25.25,24.324,24.456z"/>
	</g>
</g>
</svg>
