<?xml version="1.0" encoding="utf-8"?>
<!-- Generator: Adobe Illustrator 17.0.0, SVG Export Plug-In . SVG Version: 6.00 Build 0)  -->
<!DOCTYPE svg PUBLIC "-//W3C//DTD SVG 1.1//EN" "http://www.w3.org/Graphics/SVG/1.1/DTD/svg11.dtd">
<svg version="1.1" id="Layer_1" xmlns="http://www.w3.org/2000/svg" xmlns:xlink="http://www.w3.org/1999/xlink" x="0px" y="0px"
	 width="42px" height="40px" viewBox="0 0 42 40" enable-background="new 0 0 42 40" xml:space="preserve">
<path fill="#FFFFFF" d="M40.188,25.426l-4.054-8.11c-5.2,0.53-6.962,1.587-7.58,2.38c-0.087,0.177-0.44,0.617-0.087,1.675
	c0.793,2.74,0,4.59-0.793,5.65c-1.94,2.646-6.345,3.79-14.1,3.79c-2.38,0-4.055,0.53-4.583,1.32c-0.52,0.795-0.17,2.205,0,2.647
	h20.89c0.8,0,1.5-0.44,1.85-1.06c0.44-0.615,0.44-1.496,0.09-2.113l-1.41-2.91h7.67c0.797,0,1.5-0.44,1.85-1.056
	c0.62-0.705,0.62-1.5,0.268-2.203L40.188,25.426z M24.324,24.456c0.088-0.176,0.44-0.616,0.088-1.85
	c-0.705-2.468,0-4.23,0.705-5.288c1.41-2.116,4.23-3.35,9.077-4.054L32.167,9.12c-0.352-0.792-1.145-1.233-2.026-1.233
	c-0.88,0-1.58,0.44-2.02,1.234l-3.62,7.32l-5.724-11.81c-0.353-0.79-1.146-1.23-2.028-1.23s-1.586,0.442-2.027,1.235L1.5,31.51
	c-0.35,0.705-0.263,1.498,0.09,2.203c0.44,0.618,1.145,1.06,1.85,1.06h1.23c-0.263-1.323-0.352-3.175,0.794-4.937
	c1.41-2.203,4.142-3.35,8.196-3.35c7.938,0,10.14-1.232,10.67-2.026L24.324,24.456z"/>
</svg>
