<?xml version="1.0" encoding="utf-8"?>
<!-- Generator: Adobe Illustrator 17.0.0, SVG Export Plug-In . SVG Version: 6.00 Build 0)  -->
<!DOCTYPE svg PUBLIC "-//W3C//DTD SVG 1.1//EN" "http://www.w3.org/Graphics/SVG/1.1/DTD/svg11.dtd">
<svg version="1.1" id="Layer_1" xmlns="http://www.w3.org/2000/svg" xmlns:xlink="http://www.w3.org/1999/xlink" x="0px" y="0px"
	 width="102px" height="40px" viewBox="0 0 102 40" enable-background="new 0 0 102 40" xml:space="preserve">
<g id="Forma_1_1_">
	<g>
		<path fill="#18545A" d="M40.188,25.426l-4.054-8.109c-5.199,0.529-6.962,1.586-7.579,2.38c-0.088,0.176-0.441,0.616-0.088,1.674
			c0.793,2.732,0,4.583-0.793,5.641c-1.939,2.645-6.345,3.789-14.101,3.789c-2.38,0-4.054,0.529-4.582,1.322
			c-0.529,0.793-0.176,2.203,0,2.645h20.887c0.793,0,1.498-0.441,1.851-1.058c0.44-0.617,0.44-1.498,0.088-2.115l-1.41-2.909h7.667
			c0.793,0,1.498-0.441,1.851-1.057C40.54,26.924,40.54,26.131,40.188,25.426z M24.324,24.456c0.088-0.176,0.441-0.616,0.088-1.85
			c-0.705-2.468,0-4.231,0.705-5.288c1.41-2.116,4.23-3.349,9.077-4.054l-2.027-4.143c-0.352-0.793-1.145-1.234-2.026-1.234
			c-0.882,0-1.587,0.44-2.027,1.234L24.5,16.436L18.772,4.625c-0.352-0.793-1.146-1.234-2.027-1.234s-1.586,0.441-2.027,1.234
			L1.499,31.507c-0.352,0.705-0.264,1.498,0.088,2.203c0.441,0.617,1.146,1.058,1.851,1.058h1.234
			c-0.264-1.322-0.353-3.174,0.793-4.936c1.41-2.203,4.142-3.349,8.196-3.349C21.592,26.483,23.795,25.25,24.324,24.456z"/>
	</g>
</g>
<path fill="#18545A" d="M47.602,4.957c0.676,0,1.27,0.091,1.779,0.272c0.509,0.182,0.934,0.423,1.272,0.724s0.593,0.647,0.764,1.038
	s0.257,0.796,0.257,1.215c0,0.392-0.076,0.781-0.229,1.165c-0.153,0.384-0.384,0.739-0.692,1.063
	c-0.308,0.325-0.697,0.605-1.166,0.841s-1.02,0.402-1.653,0.498c-0.011,0.293-0.022,0.561-0.03,0.805
	c-0.004,0.104-0.008,0.208-0.012,0.313c-0.004,0.104-0.007,0.199-0.009,0.285s-0.004,0.161-0.006,0.225s-0.003,0.108-0.003,0.132
	c-0.009,0.28-0.041,0.571-0.1,0.873c-0.058,0.301-0.142,0.595-0.254,0.883c-0.11,0.287-0.245,0.559-0.404,0.817
	s-0.344,0.483-0.554,0.676c-0.211,0.193-0.447,0.347-0.708,0.461s-0.546,0.171-0.856,0.171c-0.328,0-0.621-0.085-0.88-0.255
	c-0.258-0.17-0.484-0.399-0.678-0.687c-0.194-0.288-0.358-0.62-0.492-0.995c-0.134-0.376-0.243-0.768-0.327-1.178
	s-0.145-0.822-0.183-1.238s-0.057-0.807-0.057-1.175c0-0.631,0.058-1.241,0.174-1.829c0.117-0.588,0.283-1.139,0.499-1.652
	c0.217-0.514,0.479-0.982,0.788-1.406c0.309-0.424,0.656-0.788,1.043-1.091c0.387-0.304,0.808-0.539,1.263-0.704
	C46.605,5.041,47.089,4.957,47.602,4.957z M43.991,11.736c0,0.164,0.001,0.386,0.003,0.664s0.013,0.576,0.033,0.892
	s0.052,0.636,0.096,0.961s0.109,0.618,0.195,0.88s0.194,0.477,0.324,0.643s0.293,0.249,0.489,0.249c0.204,0,0.378-0.071,0.522-0.214
	c0.144-0.142,0.264-0.326,0.36-0.553c0.096-0.226,0.172-0.483,0.229-0.769c0.056-0.286,0.098-0.574,0.126-0.863
	c0.028-0.289,0.046-0.564,0.054-0.826s0.012-0.486,0.012-0.67v-0.283c-0.33-0.13-0.589-0.244-0.777-0.342s-0.331-0.193-0.426-0.283
	c-0.095-0.091-0.156-0.186-0.181-0.286c-0.026-0.1-0.039-0.218-0.039-0.351c0-0.074,0.002-0.147,0.006-0.219
	s0.015-0.136,0.033-0.191c0.018-0.056,0.044-0.101,0.077-0.136c0.034-0.035,0.08-0.052,0.14-0.052c0.04,0,0.076,0.009,0.11,0.025
	c0.034,0.017,0.076,0.04,0.128,0.069c0.131,0.075,0.25,0.136,0.357,0.184s0.198,0.086,0.274,0.115
	c0.087,0.033,0.167,0.058,0.238,0.075c0-0.052,0.001-0.157,0.003-0.313s0.014-0.334,0.036-0.534s0.06-0.409,0.112-0.628
	c0.052-0.218,0.129-0.418,0.23-0.6c0.101-0.182,0.232-0.333,0.393-0.452s0.361-0.179,0.599-0.179c0.072,0,0.146,0.007,0.222,0.021
	s0.145,0.04,0.207,0.078c0.062,0.038,0.114,0.089,0.156,0.154c0.042,0.064,0.063,0.147,0.063,0.247c0,0.029-0.001,0.047-0.003,0.058
	c-0.002,0.01-0.003,0.023-0.003,0.04l-0.366,1.562l-0.054,0.48c0.391-0.061,0.728-0.158,1.012-0.292
	c0.284-0.134,0.518-0.292,0.704-0.474c0.185-0.182,0.323-0.383,0.413-0.602c0.09-0.219,0.135-0.444,0.135-0.675
	c0-0.225-0.043-0.455-0.129-0.691c-0.086-0.235-0.235-0.449-0.447-0.642s-0.496-0.352-0.851-0.477
	c-0.356-0.124-0.804-0.187-1.343-0.187c-0.406,0-0.772,0.077-1.101,0.232s-0.621,0.364-0.879,0.629
	c-0.256,0.265-0.479,0.574-0.668,0.927c-0.188,0.353-0.344,0.729-0.466,1.129c-0.122,0.399-0.213,0.81-0.271,1.233
	S43.991,11.333,43.991,11.736z"/>
<path fill="#18545A" d="M57.321,14.41c-0.092,0.13-0.215,0.281-0.37,0.455c-0.154,0.174-0.327,0.34-0.519,0.498
	c-0.192,0.158-0.398,0.291-0.618,0.401c-0.22,0.109-0.44,0.164-0.66,0.164c-0.266,0-0.487-0.084-0.665-0.253
	c-0.178-0.168-0.331-0.413-0.46-0.733c-0.097,0.111-0.216,0.224-0.357,0.339s-0.295,0.219-0.463,0.312
	c-0.167,0.093-0.341,0.169-0.523,0.229c-0.181,0.06-0.363,0.089-0.544,0.089c-0.192,0-0.379-0.039-0.561-0.118
	s-0.343-0.192-0.483-0.339c-0.141-0.147-0.253-0.327-0.336-0.539c-0.085-0.212-0.126-0.451-0.126-0.717
	c0-0.299,0.042-0.606,0.127-0.921c0.085-0.315,0.216-0.656,0.392-1.022c0.177-0.367,0.367-0.684,0.57-0.951
	c0.203-0.267,0.426-0.5,0.667-0.7s0.496-0.358,0.764-0.475s0.54-0.177,0.818-0.177c0.092,0,0.165,0.018,0.218,0.055
	c0.052,0.036,0.096,0.078,0.13,0.124c0.034,0.046,0.067,0.092,0.1,0.137c0.032,0.045,0.072,0.076,0.121,0.097
	c0.048,0.02,0.097,0.034,0.147,0.04s0.102,0.009,0.154,0.009c0.044,0,0.089-0.001,0.136-0.003c0.046-0.002,0.091-0.003,0.136-0.003
	c0.061,0,0.117,0.006,0.169,0.018s0.099,0.038,0.139,0.079s0.071,0.097,0.093,0.17s0.033,0.172,0.033,0.297
	c0,0.191-0.02,0.403-0.06,0.636s-0.086,0.472-0.137,0.717c-0.052,0.245-0.111,0.524-0.177,0.837
	c-0.066,0.313-0.099,0.577-0.099,0.792c0,0.183,0.017,0.327,0.051,0.43c0.034,0.103,0.107,0.155,0.219,0.155
	c0.084,0,0.172-0.021,0.264-0.062s0.185-0.096,0.279-0.163c0.094-0.067,0.188-0.143,0.282-0.229
	c0.094-0.086,0.183-0.173,0.267-0.265c0.196-0.214,0.394-0.456,0.595-0.726L57.321,14.41z M52.172,13.941
	c0,0.103,0.007,0.203,0.021,0.3s0.039,0.183,0.075,0.26c0.036,0.076,0.085,0.138,0.144,0.186c0.06,0.047,0.136,0.071,0.229,0.071
	c0.148,0,0.282-0.065,0.403-0.193c0.12-0.129,0.224-0.284,0.313-0.465c0.088-0.181,0.159-0.369,0.214-0.562s0.089-0.354,0.105-0.483
	l0.448-1.951c-0.164,0-0.325,0.041-0.48,0.122c-0.157,0.081-0.303,0.191-0.442,0.33c-0.138,0.139-0.265,0.297-0.381,0.476
	s-0.23,0.399-0.342,0.661s-0.191,0.492-0.237,0.69C52.195,13.58,52.172,13.767,52.172,13.941z"/>
<path fill="#18545A" d="M61.828,14.554c-0.385,0.224-0.727,0.42-1.027,0.588c-0.3,0.168-0.568,0.308-0.803,0.42
	c-0.234,0.112-0.443,0.196-0.625,0.252s-0.348,0.084-0.496,0.084c-0.303,0-0.569-0.092-0.8-0.276
	c-0.231-0.184-0.424-0.449-0.579-0.795c-0.155-0.346-0.272-0.765-0.349-1.257c-0.078-0.492-0.117-1.046-0.117-1.663
	c0-0.24,0.01-0.496,0.03-0.768c0.02-0.272,0.047-0.542,0.083-0.81c-0.121-0.018-0.214-0.035-0.281-0.05
	c-0.066-0.015-0.137-0.031-0.211-0.047c-0.075-0.015-0.169-0.032-0.284-0.05s-0.281-0.04-0.498-0.067
	c-0.097-0.013-0.171-0.039-0.224-0.076c-0.052-0.038-0.091-0.082-0.115-0.133c-0.025-0.051-0.038-0.105-0.043-0.161
	c-0.004-0.056-0.006-0.103-0.006-0.143c0-0.063,0.039-0.111,0.118-0.144c0.078-0.033,0.179-0.058,0.301-0.075
	c0.123-0.016,0.257-0.026,0.404-0.028c0.147-0.002,0.288-0.001,0.422,0.003s0.256,0.007,0.362,0.009s0.18-0.001,0.22-0.009
	c0.107-0.539,0.244-1.06,0.41-1.565s0.351-0.954,0.557-1.347s0.43-0.708,0.674-0.946c0.244-0.237,0.499-0.356,0.767-0.356
	c0.173,0,0.33,0.048,0.472,0.144c0.142,0.096,0.263,0.224,0.363,0.384s0.178,0.347,0.231,0.56c0.054,0.214,0.081,0.437,0.081,0.668
	c0,0.192-0.028,0.395-0.084,0.608c-0.056,0.214-0.132,0.431-0.228,0.652c-0.096,0.221-0.209,0.445-0.339,0.672
	c-0.13,0.227-0.267,0.452-0.411,0.675c0.036-0.013,0.097-0.016,0.18-0.008c0.084,0.008,0.181,0.014,0.291,0.017
	s0.229,0.006,0.357,0.01c0.128,0.003,0.252,0.007,0.372,0.011s0.232,0.008,0.336,0.012s0.19,0.008,0.258,0.012
	c0.08,0.005,0.138,0.049,0.174,0.133c0.036,0.085,0.054,0.192,0.054,0.321c0,0.149-0.04,0.271-0.12,0.365s-0.168,0.141-0.264,0.141
	h-2.307c-0.117,0.16-0.234,0.317-0.353,0.471c-0.118,0.154-0.228,0.293-0.328,0.417c-0.016,0.248-0.03,0.492-0.042,0.732
	c-0.004,0.104-0.008,0.211-0.012,0.321s-0.008,0.219-0.012,0.327s-0.007,0.212-0.009,0.312s-0.003,0.192-0.003,0.276
	c0,0.216,0.02,0.398,0.06,0.546c0.041,0.148,0.099,0.269,0.175,0.363c0.076,0.094,0.169,0.162,0.28,0.204
	c0.11,0.042,0.234,0.063,0.37,0.063c0.084,0,0.189-0.02,0.315-0.06s0.264-0.095,0.414-0.165s0.309-0.153,0.475-0.249
	s0.331-0.201,0.493-0.315c0.162-0.114,0.317-0.234,0.465-0.36c0.148-0.126,0.282-0.255,0.402-0.387v1.536
	C61.827,14.554,61.828,14.554,61.828,14.554z M59.908,6.954c0-0.044-0.003-0.092-0.009-0.146c-0.006-0.054-0.019-0.105-0.039-0.153
	c-0.02-0.048-0.051-0.087-0.093-0.12c-0.042-0.032-0.102-0.048-0.178-0.048c-0.104,0-0.21,0.092-0.316,0.274
	c-0.107,0.183-0.209,0.416-0.308,0.7c-0.098,0.284-0.191,0.597-0.277,0.939c-0.086,0.341-0.166,0.673-0.238,0.995
	c0.06,0.006,0.121,0.011,0.18,0.015c0.061,0.005,0.123,0.01,0.187,0.015c0.121-0.202,0.246-0.42,0.376-0.655
	c0.131-0.235,0.248-0.467,0.352-0.694s0.191-0.44,0.259-0.637C59.874,7.243,59.908,7.081,59.908,6.954z"/>
<path fill="#18545A" d="M65.016,14.62c-0.144,0.132-0.323,0.273-0.537,0.423c-0.214,0.15-0.446,0.288-0.693,0.414
	c-0.248,0.126-0.501,0.231-0.759,0.315s-0.503,0.126-0.735,0.126c-0.208,0-0.383-0.029-0.525-0.087
	c-0.142-0.058-0.257-0.139-0.345-0.243s-0.151-0.231-0.189-0.381s-0.057-0.315-0.057-0.495c0-0.252,0.028-0.546,0.084-0.882
	c0.115-0.695,0.189-1.086,0.222-1.171c0.055-0.171,0.163-0.549,0.327-1.136c0.152-0.478,0.246-0.789,0.281-0.933
	c0.02-0.101,0.075-0.192,0.165-0.273c0.082-0.073,0.176-0.132,0.28-0.179c0.104-0.046,0.213-0.081,0.325-0.103
	c0.112-0.022,0.214-0.033,0.304-0.033c0.165,0,0.277,0.031,0.336,0.093s0.088,0.145,0.088,0.249c0,0.088-0.02,0.213-0.062,0.373
	c-0.041,0.161-0.087,0.344-0.141,0.549c-0.052,0.206-0.13,0.47-0.234,0.793c-0.103,0.323-0.173,0.599-0.211,0.826
	c-0.038,0.228-0.086,0.455-0.143,0.68s-0.086,0.43-0.086,0.614c0,0.18,0.02,0.323,0.06,0.429s0.122,0.159,0.246,0.159
	c0.144,0,0.304-0.05,0.48-0.15c0.176-0.1,0.354-0.221,0.534-0.363s0.356-0.289,0.528-0.441s0.324-0.282,0.456-0.39v1.217H65.016z
	 M62.333,8.322c0-0.093,0.02-0.198,0.06-0.315s0.105-0.228,0.195-0.331c0.09-0.103,0.21-0.19,0.36-0.26
	c0.15-0.071,0.337-0.106,0.561-0.106c0.14,0,0.272,0.016,0.396,0.048s0.232,0.082,0.325,0.148c0.092,0.066,0.165,0.154,0.219,0.264
	c0.054,0.109,0.081,0.238,0.081,0.388c0,0.137-0.022,0.271-0.066,0.4s-0.114,0.244-0.21,0.346c-0.096,0.101-0.218,0.183-0.363,0.245
	c-0.146,0.063-0.321,0.094-0.525,0.094c-0.352,0-0.613-0.084-0.781-0.251C62.416,8.824,62.333,8.601,62.333,8.322z"/>
<path fill="#18545A" d="M66.609,15.899c-0.373,0-0.7-0.069-0.981-0.208c-0.28-0.138-0.514-0.325-0.7-0.559
	c-0.187-0.234-0.327-0.505-0.421-0.813c-0.093-0.308-0.14-0.63-0.14-0.968c0-0.221,0.042-0.484,0.125-0.791
	c0.083-0.306,0.17-0.578,0.259-0.815c0.089-0.237,0.202-0.463,0.337-0.678c0.135-0.215,0.294-0.405,0.474-0.569
	c0.181-0.164,0.384-0.294,0.609-0.391c0.225-0.097,0.474-0.145,0.749-0.145c0.224,0,0.432,0.036,0.625,0.108s0.36,0.173,0.502,0.303
	c0.143,0.13,0.254,0.287,0.333,0.471c0.08,0.184,0.12,0.39,0.12,0.617c0,0.243-0.081,0.514-0.244,0.816
	c-0.162,0.301-0.351,0.559-0.568,0.775c-0.217,0.215-0.474,0.407-0.773,0.575s-0.623,0.3-0.971,0.393
	c0.06,0.106,0.12,0.194,0.178,0.264c0.058,0.071,0.118,0.125,0.178,0.164c0.061,0.039,0.123,0.066,0.19,0.082
	c0.066,0.015,0.137,0.023,0.214,0.023c0.24,0,0.493-0.047,0.759-0.141c0.266-0.094,0.525-0.211,0.777-0.352
	c0.252-0.141,0.49-0.294,0.714-0.461c0.224-0.166,0.414-0.324,0.57-0.473l0.774,0.786c-0.352,0.375-0.727,0.707-1.123,0.995
	c-0.172,0.123-0.357,0.245-0.555,0.365c-0.198,0.119-0.406,0.226-0.624,0.318c-0.218,0.093-0.444,0.167-0.678,0.223
	C67.086,15.871,66.849,15.899,66.609,15.899z M65.807,13.04c0.144,0,0.302-0.036,0.473-0.108s0.329-0.165,0.476-0.279
	c0.147-0.113,0.29-0.266,0.431-0.458c0.14-0.192,0.211-0.35,0.211-0.475c0-0.176-0.033-0.321-0.099-0.434
	c-0.066-0.114-0.148-0.17-0.244-0.17c-0.173,0-0.32,0.031-0.443,0.094s-0.225,0.143-0.307,0.244c-0.082,0.1-0.148,0.213-0.199,0.341
	s-0.108,0.285-0.175,0.473c-0.066,0.188-0.104,0.342-0.112,0.463C65.812,12.85,65.807,12.954,65.807,13.04z"/>
<path fill="#18545A" d="M69.121,14.645c0-0.264,0.016-0.569,0.048-0.915s0.072-0.727,0.12-1.14c0.048-0.414,0.102-0.787,0.162-1.119
	c0.061-0.332,0.118-0.616,0.174-0.852c0.044-0.184,0.129-0.338,0.255-0.462s0.297-0.186,0.513-0.186s0.366,0.066,0.45,0.198
	c0.085,0.132,0.126,0.308,0.126,0.528c0,0.06-0.006,0.141-0.018,0.243c-0.012,0.102-0.027,0.214-0.046,0.336
	c-0.018,0.122-0.037,0.248-0.057,0.378s-0.039,0.278-0.057,0.444s-0.033,0.29-0.046,0.372c-0.011,0.082-0.018,0.137-0.018,0.165
	h0.12c0.024-0.044,0.062-0.115,0.114-0.213s0.112-0.239,0.18-0.423c0.067-0.184,0.141-0.347,0.219-0.489
	c0.078-0.142,0.151-0.278,0.219-0.408c0.068-0.13,0.13-0.245,0.186-0.345c0.056-0.1,0.098-0.174,0.126-0.222
	c0.128-0.216,0.274-0.364,0.438-0.444s0.346-0.12,0.546-0.12c0.2,0,0.359,0.084,0.477,0.252c0.118,0.168,0.177,0.4,0.177,0.696
	c0,0.044-0.009,0.118-0.027,0.222c-0.018,0.104-0.041,0.228-0.069,0.372s-0.059,0.33-0.093,0.558
	c-0.034,0.228-0.065,0.432-0.093,0.612s-0.051,0.358-0.069,0.534s-0.027,0.338-0.027,0.486c0,0.248,0.031,0.452,0.093,0.612
	s0.159,0.24,0.291,0.24c0.048,0,0.116-0.018,0.204-0.054c0.132-0.048,0.216-0.09,0.252-0.126c0.176-0.136,0.268-0.202,0.276-0.198
	c0.012,0.004,0.146-0.076,0.402-0.24c0.32-0.204,0.702-0.454,1.146-0.75l-0.006,1.344l-0.3,0.228
	c-0.024,0.02-0.213,0.124-0.564,0.312c-0.508,0.272-0.826,0.436-0.954,0.492c-0.312,0.14-0.506,0.22-0.582,0.24
	c-0.2,0.064-0.41,0.096-0.63,0.096s-0.405-0.159-0.555-0.477s-0.225-0.783-0.225-1.395c0-0.24,0.016-0.499,0.048-0.777
	s0.072-0.577,0.12-0.897h-0.096l-1.572,3.121c-0.084,0.168-0.174,0.28-0.27,0.336c-0.101,0.06-0.216,0.09-0.349,0.09
	c-0.164,0-0.296-0.035-0.396-0.105c-0.101-0.07-0.178-0.164-0.231-0.282c-0.054-0.118-0.09-0.252-0.108-0.402
	C69.13,14.959,69.121,14.804,69.121,14.645z"/>
<path fill="#18545A" d="M79.929,14.554c-0.385,0.224-0.727,0.42-1.027,0.588s-0.568,0.308-0.803,0.42
	c-0.234,0.112-0.443,0.196-0.625,0.252s-0.348,0.084-0.496,0.084c-0.303,0-0.569-0.092-0.8-0.276
	c-0.231-0.184-0.424-0.449-0.579-0.795c-0.155-0.346-0.272-0.765-0.349-1.257c-0.078-0.492-0.117-1.046-0.117-1.663
	c0-0.24,0.01-0.496,0.03-0.768c0.02-0.272,0.047-0.542,0.083-0.81c-0.121-0.018-0.214-0.035-0.281-0.05s-0.137-0.031-0.211-0.047
	c-0.075-0.015-0.169-0.032-0.284-0.05c-0.115-0.018-0.281-0.04-0.499-0.067c-0.097-0.013-0.171-0.039-0.224-0.076
	c-0.052-0.038-0.091-0.082-0.115-0.133c-0.025-0.051-0.038-0.105-0.043-0.161c-0.004-0.056-0.006-0.103-0.006-0.143
	c0-0.063,0.039-0.111,0.118-0.144c0.078-0.033,0.179-0.058,0.301-0.075c0.123-0.016,0.257-0.026,0.404-0.028
	s0.288-0.001,0.422,0.003s0.256,0.007,0.362,0.009s0.18-0.001,0.22-0.009c0.107-0.539,0.244-1.06,0.41-1.565
	s0.351-0.954,0.557-1.347s0.43-0.708,0.674-0.946c0.244-0.237,0.499-0.356,0.767-0.356c0.173,0,0.33,0.048,0.472,0.144
	c0.142,0.096,0.263,0.224,0.363,0.384s0.178,0.347,0.231,0.56c0.054,0.214,0.081,0.437,0.081,0.668c0,0.192-0.028,0.395-0.084,0.608
	c-0.056,0.214-0.132,0.431-0.228,0.652s-0.209,0.445-0.339,0.672c-0.13,0.227-0.267,0.452-0.411,0.675
	c0.036-0.013,0.097-0.016,0.18-0.008c0.084,0.008,0.181,0.014,0.291,0.017s0.229,0.006,0.357,0.01
	c0.128,0.003,0.252,0.007,0.372,0.011s0.232,0.008,0.336,0.012s0.19,0.008,0.258,0.012c0.08,0.005,0.138,0.049,0.174,0.133
	c0.036,0.085,0.054,0.192,0.054,0.321c0,0.149-0.04,0.271-0.12,0.365s-0.168,0.141-0.264,0.141h-2.307
	c-0.117,0.16-0.234,0.317-0.353,0.471s-0.228,0.293-0.328,0.417c-0.016,0.248-0.03,0.492-0.042,0.732
	c-0.004,0.104-0.008,0.211-0.012,0.321s-0.008,0.219-0.012,0.327c-0.004,0.108-0.007,0.212-0.009,0.312s-0.003,0.192-0.003,0.276
	c0,0.216,0.02,0.398,0.06,0.546c0.041,0.148,0.099,0.269,0.175,0.363c0.076,0.094,0.169,0.162,0.28,0.204
	c0.11,0.042,0.234,0.063,0.37,0.063c0.084,0,0.189-0.02,0.315-0.06s0.264-0.095,0.414-0.165s0.309-0.153,0.475-0.249
	s0.331-0.201,0.493-0.315s0.317-0.234,0.465-0.36s0.282-0.255,0.402-0.387v1.536C79.928,14.554,79.929,14.554,79.929,14.554z
	 M78.009,6.954c0-0.044-0.003-0.092-0.009-0.146s-0.019-0.105-0.039-0.153s-0.051-0.087-0.093-0.12
	c-0.042-0.032-0.102-0.048-0.178-0.048c-0.104,0-0.21,0.092-0.316,0.274c-0.107,0.183-0.209,0.416-0.308,0.7
	c-0.098,0.284-0.191,0.597-0.277,0.939c-0.086,0.341-0.166,0.673-0.238,0.995c0.06,0.006,0.121,0.011,0.18,0.015
	c0.061,0.005,0.123,0.01,0.187,0.015c0.121-0.202,0.246-0.42,0.376-0.655c0.131-0.235,0.248-0.467,0.352-0.694
	s0.191-0.44,0.259-0.637C77.975,7.243,78.009,7.081,78.009,6.954z"/>
<path fill="#18545A" d="M49.309,17.194c0.877,0,1.646,0.117,2.306,0.353c0.66,0.235,1.21,0.549,1.648,0.939
	c0.439,0.391,0.768,0.839,0.991,1.347c0.222,0.507,0.333,1.032,0.333,1.575c0,0.509-0.099,1.012-0.297,1.51
	c-0.199,0.498-0.498,0.958-0.897,1.378s-0.903,0.784-1.511,1.09s-1.322,0.522-2.142,0.646c-0.015,0.379-0.029,0.727-0.039,1.044
	c-0.005,0.135-0.01,0.27-0.015,0.405s-0.01,0.258-0.011,0.37c-0.003,0.112-0.005,0.209-0.008,0.293
	c-0.003,0.083-0.004,0.14-0.004,0.171c-0.01,0.364-0.054,0.741-0.129,1.131s-0.185,0.772-0.328,1.144s-0.317,0.726-0.523,1.059
	c-0.206,0.333-0.446,0.626-0.719,0.877s-0.579,0.45-0.918,0.598c-0.338,0.147-0.708,0.221-1.109,0.221
	c-0.426,0-0.805-0.11-1.14-0.331c-0.334-0.22-0.628-0.517-0.879-0.89c-0.252-0.373-0.465-0.803-0.638-1.29
	c-0.174-0.487-0.315-0.996-0.424-1.527c-0.109-0.531-0.188-1.066-0.237-1.604c-0.049-0.539-0.074-1.047-0.074-1.524
	c0-0.819,0.075-1.609,0.226-2.371c0.151-0.762,0.366-1.475,0.647-2.141c0.28-0.666,0.62-1.273,1.021-1.823
	c0.4-0.549,0.851-1.021,1.353-1.415s1.048-0.698,1.637-0.913C48.016,17.302,48.643,17.194,49.309,17.194z M44.628,25.981
	c0,0.213,0.001,0.5,0.004,0.86c0.002,0.361,0.016,0.747,0.043,1.157c0.026,0.41,0.067,0.825,0.124,1.246
	c0.057,0.421,0.142,0.801,0.253,1.141s0.251,0.618,0.42,0.834c0.168,0.215,0.38,0.323,0.634,0.323c0.264,0,0.49-0.092,0.676-0.277
	c0.187-0.184,0.342-0.423,0.467-0.717s0.223-0.626,0.296-0.997c0.072-0.371,0.127-0.744,0.163-1.118s0.06-0.731,0.07-1.072
	c0.01-0.34,0.016-0.63,0.016-0.869v-0.366c-0.427-0.168-0.763-0.316-1.007-0.444c-0.244-0.127-0.428-0.25-0.552-0.367
	S46.033,25.073,46,24.944c-0.034-0.13-0.05-0.282-0.05-0.455c0-0.096,0.003-0.19,0.008-0.284c0.005-0.093,0.02-0.176,0.043-0.248
	s0.056-0.131,0.1-0.176s0.104-0.068,0.181-0.068c0.051,0,0.099,0.011,0.142,0.032c0.044,0.022,0.099,0.051,0.166,0.089
	c0.169,0.097,0.324,0.177,0.463,0.239s0.257,0.112,0.355,0.15c0.113,0.043,0.216,0.076,0.309,0.097c0-0.068,0.001-0.203,0.004-0.406
	c0.003-0.202,0.018-0.432,0.047-0.692c0.029-0.26,0.077-0.531,0.145-0.814c0.068-0.283,0.168-0.543,0.298-0.778
	c0.131-0.236,0.3-0.431,0.509-0.586s0.468-0.232,0.777-0.232c0.093,0,0.189,0.009,0.288,0.027s0.188,0.052,0.269,0.102
	c0.08,0.049,0.147,0.116,0.202,0.199c0.055,0.084,0.082,0.19,0.082,0.32c0,0.037-0.001,0.062-0.004,0.075s-0.004,0.03-0.004,0.051
	l-0.473,2.024l-0.07,0.622c0.507-0.079,0.944-0.205,1.312-0.378c0.367-0.173,0.671-0.378,0.912-0.615
	c0.24-0.237,0.419-0.497,0.535-0.781c0.117-0.284,0.175-0.575,0.175-0.875c0-0.292-0.056-0.59-0.167-0.895s-0.305-0.582-0.579-0.833
	c-0.275-0.25-0.643-0.456-1.104-0.618c-0.462-0.161-1.042-0.242-1.741-0.242c-0.525,0-1.001,0.1-1.427,0.3
	c-0.427,0.2-0.806,0.472-1.139,0.815s-0.621,0.743-0.866,1.201c-0.244,0.458-0.446,0.945-0.604,1.462
	c-0.159,0.518-0.275,1.051-0.351,1.599C44.666,24.926,44.628,25.459,44.628,25.981z"/>
<path fill="#18545A" d="M61.907,29.449c-0.119,0.168-0.279,0.365-0.478,0.59s-0.424,0.441-0.673,0.645
	c-0.249,0.204-0.516,0.377-0.801,0.519c-0.285,0.142-0.571,0.213-0.856,0.213c-0.345,0-0.632-0.109-0.862-0.328
	c-0.23-0.218-0.428-0.535-0.596-0.951c-0.126,0.143-0.28,0.29-0.463,0.439s-0.383,0.284-0.6,0.405
	c-0.217,0.121-0.443,0.219-0.678,0.296s-0.47,0.116-0.706,0.116c-0.249,0-0.491-0.051-0.727-0.153s-0.445-0.249-0.626-0.44
	c-0.182-0.191-0.327-0.424-0.436-0.698c-0.109-0.275-0.163-0.585-0.163-0.93c0-0.388,0.055-0.786,0.164-1.194
	s0.279-0.85,0.509-1.326c0.229-0.475,0.476-0.886,0.74-1.232c0.263-0.346,0.551-0.649,0.865-0.907
	c0.313-0.258,0.643-0.464,0.99-0.616c0.347-0.153,0.7-0.229,1.06-0.229c0.12,0,0.214,0.024,0.282,0.071s0.124,0.101,0.168,0.161
	c0.045,0.061,0.087,0.119,0.129,0.177s0.094,0.1,0.157,0.126c0.063,0.026,0.126,0.043,0.192,0.051s0.132,0.011,0.199,0.011
	c0.057,0,0.116-0.001,0.176-0.004s0.119-0.004,0.176-0.004c0.078,0,0.152,0.008,0.219,0.024c0.068,0.015,0.128,0.05,0.18,0.102
	c0.052,0.053,0.092,0.126,0.121,0.22s0.043,0.223,0.043,0.385c0,0.248-0.026,0.523-0.078,0.825
	c-0.052,0.302-0.112,0.612-0.178,0.929c-0.067,0.317-0.143,0.678-0.229,1.084c-0.086,0.407-0.128,0.748-0.128,1.027
	c0,0.237,0.022,0.423,0.066,0.558c0.044,0.134,0.139,0.201,0.284,0.201c0.109,0,0.223-0.027,0.342-0.081s0.239-0.124,0.362-0.212
	c0.122-0.087,0.244-0.187,0.366-0.297c0.122-0.111,0.237-0.225,0.346-0.344c0.254-0.277,0.511-0.591,0.77-0.941L61.907,29.449z
	 M55.232,28.84c0,0.133,0.009,0.263,0.027,0.389s0.051,0.238,0.098,0.337c0.047,0.099,0.109,0.179,0.187,0.24
	c0.078,0.062,0.177,0.092,0.296,0.092c0.192,0,0.366-0.084,0.522-0.251c0.156-0.167,0.291-0.368,0.405-0.603
	s0.207-0.478,0.277-0.729s0.116-0.459,0.136-0.626l0.58-2.529c-0.213,0-0.421,0.052-0.622,0.158
	c-0.203,0.105-0.393,0.248-0.572,0.428s-0.344,0.386-0.494,0.617c-0.151,0.231-0.298,0.517-0.444,0.856
	c-0.145,0.339-0.248,0.637-0.307,0.895S55.232,28.614,55.232,28.84z"/>
<path fill="#18545A" d="M67.75,29.634c-0.498,0.291-0.942,0.544-1.332,0.763c-0.39,0.218-0.736,0.4-1.04,0.544
	c-0.304,0.145-0.574,0.254-0.81,0.327c-0.237,0.073-0.451,0.109-0.643,0.109c-0.392,0-0.737-0.119-1.037-0.358
	c-0.299-0.238-0.549-0.582-0.751-1.031c-0.201-0.448-0.352-0.992-0.453-1.63c-0.101-0.638-0.151-1.356-0.151-2.155
	c0-0.311,0.013-0.643,0.039-0.996c0.025-0.352,0.061-0.702,0.107-1.05c-0.157-0.023-0.278-0.045-0.364-0.065
	c-0.087-0.02-0.178-0.041-0.274-0.061c-0.097-0.02-0.219-0.042-0.368-0.065c-0.149-0.023-0.365-0.052-0.646-0.086
	c-0.125-0.017-0.222-0.051-0.29-0.1s-0.117-0.107-0.149-0.173c-0.031-0.066-0.049-0.136-0.055-0.208
	c-0.005-0.072-0.008-0.134-0.008-0.186c0-0.082,0.051-0.144,0.153-0.187s0.232-0.076,0.391-0.097
	c0.159-0.022,0.333-0.034,0.524-0.036c0.19-0.002,0.373-0.001,0.548,0.004c0.174,0.005,0.331,0.01,0.469,0.011
	c0.138,0.003,0.234-0.001,0.285-0.011c0.14-0.698,0.317-1.374,0.532-2.029s0.456-1.236,0.722-1.745
	c0.267-0.509,0.558-0.918,0.874-1.226c0.315-0.308,0.647-0.462,0.994-0.462c0.223,0,0.427,0.062,0.611,0.187
	c0.184,0.124,0.341,0.29,0.471,0.498c0.13,0.208,0.229,0.45,0.3,0.727c0.07,0.277,0.105,0.566,0.105,0.866
	c0,0.249-0.036,0.512-0.109,0.788c-0.072,0.277-0.171,0.559-0.295,0.845c-0.124,0.286-0.271,0.577-0.44,0.871
	c-0.168,0.294-0.346,0.586-0.533,0.875c0.047-0.017,0.124-0.02,0.234-0.01c0.109,0.01,0.235,0.018,0.377,0.022
	c0.142,0.004,0.296,0.008,0.463,0.012c0.166,0.004,0.327,0.009,0.483,0.014s0.3,0.01,0.436,0.015
	c0.135,0.005,0.246,0.01,0.335,0.015c0.104,0.006,0.179,0.064,0.225,0.173c0.047,0.109,0.07,0.248,0.07,0.416
	c0,0.193-0.052,0.351-0.156,0.473c-0.104,0.122-0.218,0.183-0.343,0.183h-2.99c-0.151,0.208-0.304,0.411-0.458,0.611
	c-0.153,0.199-0.295,0.38-0.426,0.541c-0.021,0.322-0.039,0.638-0.055,0.949c-0.005,0.135-0.01,0.274-0.015,0.416
	c-0.005,0.142-0.01,0.284-0.015,0.424s-0.01,0.275-0.011,0.405c-0.003,0.13-0.004,0.249-0.004,0.358c0,0.28,0.026,0.516,0.078,0.708
	s0.127,0.349,0.226,0.471s0.22,0.21,0.363,0.264c0.143,0.055,0.303,0.082,0.481,0.082c0.109,0,0.245-0.026,0.408-0.078
	c0.163-0.051,0.343-0.123,0.538-0.214s0.4-0.198,0.615-0.323c0.215-0.124,0.428-0.261,0.638-0.408
	c0.21-0.148,0.412-0.304,0.604-0.467s0.366-0.331,0.522-0.502L67.75,29.634L67.75,29.634z M65.26,19.782
	c0-0.057-0.004-0.12-0.011-0.19c-0.008-0.07-0.025-0.136-0.051-0.198s-0.066-0.114-0.121-0.155s-0.132-0.062-0.231-0.062
	c-0.135,0-0.272,0.118-0.41,0.356c-0.138,0.237-0.271,0.539-0.398,0.907c-0.127,0.369-0.248,0.774-0.359,1.217
	c-0.112,0.443-0.215,0.873-0.309,1.29c0.078,0.008,0.156,0.015,0.234,0.02c0.078,0.006,0.159,0.012,0.242,0.02
	c0.157-0.261,0.319-0.544,0.488-0.849s0.321-0.605,0.457-0.9c0.136-0.295,0.248-0.57,0.336-0.826S65.26,19.945,65.26,19.782z"/>
<path fill="#18545A" d="M69.836,26.625c0.213-0.288,0.451-0.597,0.716-0.927c0.264-0.331,0.618-0.712,1.062-1.143
	c0.444-0.432,0.806-0.742,1.089-0.931s0.549-0.284,0.798-0.284c0.062,0,0.132,0.012,0.21,0.036s0.152,0.067,0.222,0.131
	s0.128,0.152,0.175,0.266c0.047,0.113,0.07,0.26,0.07,0.44c0,0.36-0.049,0.71-0.148,1.051s-0.285,0.755-0.56,1.241
	s-0.461,0.906-0.556,1.261c-0.096,0.354-0.144,0.724-0.144,1.11c0,0.211,0.031,0.381,0.093,0.507c0.062,0.127,0.142,0.19,0.241,0.19
	c0.124,0,0.256-0.026,0.397-0.079c0.14-0.052,0.28-0.121,0.42-0.204c0.14-0.084,0.277-0.18,0.412-0.287
	c0.135-0.107,0.262-0.219,0.381-0.334c0.285-0.267,0.565-0.571,0.84-0.912l0.132,2.071c-0.093,0.068-0.212,0.154-0.354,0.256
	c-0.143,0.102-0.301,0.21-0.474,0.325c-0.174,0.115-0.362,0.23-0.564,0.347s-0.406,0.22-0.611,0.31s-0.41,0.164-0.615,0.223
	c-0.205,0.058-0.401,0.087-0.587,0.087c-0.292,0-0.545-0.073-0.761-0.219c-0.215-0.146-0.391-0.331-0.529-0.556
	c-0.138-0.224-0.241-0.47-0.31-0.737s-0.104-0.519-0.104-0.756c0-0.168,0.023-0.355,0.069-0.562s0.102-0.415,0.17-0.625
	c0.067-0.21,0.143-0.414,0.227-0.613c0.084-0.199,0.162-0.377,0.235-0.534s0.137-0.285,0.19-0.385
	c0.054-0.1,0.089-0.158,0.105-0.173l-0.163-0.024c-0.088,0.056-0.237,0.2-0.448,0.431c-0.21,0.231-0.447,0.522-0.712,0.874
	c-0.264,0.351-0.539,0.747-0.821,1.185c-0.283,0.439-0.539,0.891-0.767,1.358c-0.114,0.231-0.208,0.432-0.28,0.604
	c-0.073,0.172-0.144,0.31-0.214,0.415s-0.147,0.184-0.23,0.237c-0.083,0.054-0.189,0.081-0.319,0.081
	c-0.171,0-0.306-0.046-0.405-0.139c-0.099-0.092-0.174-0.216-0.225-0.369c-0.052-0.153-0.086-0.328-0.102-0.522
	c-0.015-0.195-0.023-0.395-0.023-0.599c0-0.356,0.004-0.823,0.011-1.399c0.008-0.577,0.032-1.216,0.074-1.917
	c0.041-0.702,0.117-1.429,0.227-2.181s0.219-1.5,0.328-2.245c0.109-0.744,0.271-1.453,0.487-2.126
	c0.216-0.672,0.478-1.265,0.787-1.776c0.309-0.512,0.671-0.918,1.087-1.22c0.416-0.301,0.893-0.452,1.433-0.452
	c0.28,0,0.51,0.042,0.689,0.125c0.179,0.084,0.321,0.201,0.428,0.352c0.106,0.151,0.18,0.332,0.221,0.544
	c0.042,0.211,0.062,0.448,0.062,0.708c0,0.388-0.054,0.818-0.163,1.289s-0.253,0.961-0.432,1.47
	c-0.179,0.508-0.383,1.023-0.611,1.544c-0.229,0.522-0.462,1.027-0.7,1.517c-0.239,0.49-0.473,0.952-0.704,1.387
	c-0.231,0.435-0.434,0.817-0.61,1.148L69.836,26.625z M70.526,21.729c0.307-0.793,0.529-1.462,0.666-2.007
	c0.138-0.544,0.207-0.946,0.207-1.205c0-0.394-0.055-0.591-0.166-0.591c-0.135,0-0.335,0.22-0.599,0.661
	c-0.264,0.441-0.576,1.081-0.934,1.921c-0.088,0.285-0.17,0.581-0.245,0.886c-0.075,0.306-0.135,0.612-0.179,0.917
	s-0.087,0.605-0.13,0.9c-0.043,0.295-0.083,0.573-0.121,0.834c-0.114,0.616-0.201,1.218-0.261,1.808
	c0.141-0.327,0.294-0.682,0.46-1.066s0.33-0.764,0.491-1.139c0.161-0.376,0.313-0.731,0.456-1.066
	C70.314,22.247,70.433,21.963,70.526,21.729z"/>
<path fill="#18545A" d="M78.867,27.534c-0.15,0.565-0.327,1.083-0.531,1.552c-0.204,0.469-0.422,0.874-0.655,1.214
	s-0.473,0.605-0.72,0.793c-0.248,0.189-0.49,0.284-0.728,0.284c-0.392,0-0.68-0.298-0.864-0.895
	c-0.183-0.597-0.275-1.479-0.275-2.645c0-0.578,0-1.088,0-1.53c0-0.442,0.003-0.885,0.008-1.327c0.005-0.442,0.005-0.585,0-0.427
	c-0.006,0.158-0.01,0.304-0.015,0.438c-0.001,0.032-0.003,0.089-0.006,0.169c-0.003,0.08,0.017,0.04,0.059-0.119
	s0.098-0.324,0.168-0.496c0.07-0.172,0.16-0.328,0.269-0.468c0.11-0.141,0.239-0.257,0.387-0.35s0.327-0.139,0.535-0.139
	l0.202,0.015c0.247,0,0.436,0.046,0.568,0.135c0.132,0.09,0.198,0.209,0.198,0.359l-0.629,4.524l0.102-0.007
	c0.229-0.529,0.441-1.065,0.636-1.607s0.364-0.987,0.507-1.335c0.143-0.347,0.28-0.651,0.413-0.91
	c0.132-0.259,0.277-0.474,0.432-0.646c0.156-0.171,0.331-0.299,0.526-0.385s0.427-0.128,0.697-0.128
	c0.228,0,0.403,0.046,0.525,0.136c0.122,0.091,0.183,0.211,0.183,0.362l-0.723,4.52l0.117-0.007l1.937-4.467
	c0.062-0.145,0.197-0.274,0.405-0.385c0.207-0.112,0.454-0.168,0.739-0.168c0.295,0,0.534,0.061,0.716,0.183
	c0.181,0.122,0.272,0.279,0.272,0.471c0,0.145-0.025,0.301-0.074,0.467c-0.049,0.166-0.103,0.32-0.16,0.463
	c-0.057,0.142-0.112,0.264-0.163,0.366c-0.052,0.101-0.081,0.157-0.086,0.167c-0.114,0.208-0.232,0.451-0.354,0.731
	c-0.122,0.28-0.219,0.488-0.292,0.622c-0.088,0.156-0.166,0.301-0.233,0.436c0.072,0.202,0.166,0.384,0.28,0.544
	c0.098,0.135,0.22,0.259,0.366,0.373c0.145,0.114,0.319,0.171,0.521,0.171c0.172,0,0.369-0.046,0.591-0.136
	c0.223-0.091,0.433-0.193,0.631-0.307c0.234-0.13,0.472-0.277,0.716-0.444v1.877c-0.342,0.229-0.696,0.412-1.062,0.548
	c-0.366,0.137-0.717,0.204-1.054,0.204c-0.264,0-0.515-0.033-0.751-0.098c-0.236-0.066-0.443-0.168-0.622-0.31
	s-0.321-0.325-0.427-0.552c-0.107-0.226-0.162-0.5-0.168-0.821c-0.176,0.415-0.361,0.795-0.552,1.139
	c-0.192,0.345-0.389,0.642-0.591,0.891c-0.203,0.249-0.407,0.443-0.615,0.584c-0.208,0.14-0.415,0.21-0.622,0.21
	c-0.073,0-0.137-0.056-0.191-0.167c-0.055-0.112-0.1-0.262-0.137-0.451c-0.036-0.189-0.066-0.41-0.089-0.661
	c-0.023-0.251-0.041-0.517-0.054-0.797c-0.013-0.28-0.022-0.568-0.027-0.864c-0.005-0.295-0.008-0.584-0.008-0.864L78.867,27.534z"
	/>
<path fill="#18545A" d="M93.758,29.449c-0.119,0.168-0.279,0.365-0.478,0.59c-0.199,0.225-0.424,0.441-0.673,0.645
	c-0.249,0.204-0.516,0.377-0.801,0.519c-0.285,0.142-0.571,0.213-0.856,0.213c-0.345,0-0.632-0.109-0.862-0.328
	c-0.23-0.218-0.428-0.535-0.596-0.951c-0.126,0.143-0.28,0.29-0.463,0.439s-0.383,0.284-0.6,0.405
	c-0.217,0.121-0.443,0.219-0.678,0.296s-0.47,0.116-0.706,0.116c-0.249,0-0.491-0.051-0.727-0.153
	c-0.236-0.102-0.445-0.249-0.626-0.44c-0.182-0.191-0.327-0.424-0.436-0.698c-0.109-0.275-0.163-0.585-0.163-0.93
	c0-0.388,0.055-0.786,0.164-1.194c0.109-0.408,0.279-0.85,0.508-1.326c0.229-0.475,0.476-0.886,0.74-1.232
	c0.263-0.346,0.551-0.649,0.865-0.907c0.313-0.258,0.643-0.464,0.99-0.616c0.347-0.153,0.7-0.229,1.06-0.229
	c0.12,0,0.214,0.024,0.282,0.071s0.124,0.101,0.168,0.161c0.045,0.061,0.087,0.119,0.129,0.177s0.094,0.1,0.157,0.126
	s0.126,0.043,0.192,0.051s0.132,0.011,0.199,0.011c0.057,0,0.116-0.001,0.176-0.004s0.119-0.004,0.176-0.004
	c0.078,0,0.152,0.008,0.219,0.024c0.068,0.015,0.128,0.05,0.18,0.102s0.092,0.126,0.121,0.22s0.043,0.223,0.043,0.385
	c0,0.248-0.026,0.523-0.078,0.825c-0.052,0.302-0.112,0.612-0.178,0.929c-0.067,0.317-0.143,0.678-0.229,1.084
	c-0.086,0.407-0.128,0.748-0.128,1.027c0,0.237,0.022,0.423,0.066,0.558c0.044,0.134,0.139,0.201,0.284,0.201
	c0.109,0,0.223-0.027,0.342-0.081c0.119-0.054,0.239-0.124,0.362-0.212c0.122-0.087,0.244-0.187,0.366-0.297
	c0.122-0.111,0.237-0.225,0.346-0.344c0.254-0.277,0.511-0.591,0.77-0.941L93.758,29.449z M87.083,28.84
	c0,0.133,0.009,0.263,0.027,0.389c0.018,0.126,0.051,0.238,0.098,0.337c0.047,0.099,0.109,0.179,0.187,0.24
	c0.078,0.062,0.177,0.092,0.296,0.092c0.192,0,0.366-0.084,0.522-0.251s0.291-0.368,0.405-0.603s0.207-0.478,0.277-0.729
	c0.07-0.251,0.116-0.459,0.136-0.626l0.58-2.529c-0.213,0-0.421,0.052-0.622,0.158c-0.203,0.105-0.393,0.248-0.572,0.428
	s-0.344,0.386-0.494,0.617c-0.151,0.231-0.298,0.517-0.444,0.856c-0.145,0.339-0.248,0.637-0.307,0.895S87.083,28.614,87.083,28.84z
	"/>
<path fill="#18545A" d="M96.179,31.509l0.172-0.94c-0.28,0.246-0.572,0.446-0.875,0.597c-0.304,0.152-0.598,0.227-0.883,0.227
	c-0.249,0-0.491-0.051-0.727-0.152c-0.236-0.102-0.445-0.246-0.626-0.436c-0.182-0.189-0.327-0.42-0.436-0.692
	c-0.109-0.272-0.163-0.58-0.163-0.922c0-0.451,0.031-0.865,0.093-1.241s0.139-0.84,0.23-1.393c0.091-0.552,0.199-0.988,0.323-1.307
	s0.267-0.642,0.428-0.969c0.119-0.234,0.29-0.411,0.513-0.533s0.441-0.183,0.654-0.183c0.181,0,0.337,0.046,0.466,0.137
	s0.195,0.232,0.195,0.424c0,0.057-0.007,0.119-0.019,0.187c-0.013,0.067-0.035,0.14-0.065,0.218
	c-0.092,0.239-0.169,0.523-0.232,0.851c-0.063,0.329-0.147,0.768-0.252,1.316c-0.105,0.548-0.188,0.982-0.25,1.304
	c-0.062,0.321-0.092,0.607-0.092,0.859c0,0.131,0.009,0.258,0.027,0.381c0.018,0.123,0.051,0.234,0.097,0.331
	s0.109,0.176,0.187,0.236s0.176,0.09,0.295,0.09c0.192,0,0.366-0.084,0.522-0.251s0.29-0.368,0.405-0.603
	c0.114-0.235,0.206-0.478,0.276-0.729s0.115-0.46,0.136-0.627l0.623-2.91c0.036-0.171,0.109-0.327,0.218-0.467
	c0.104-0.135,0.226-0.25,0.366-0.346s0.285-0.167,0.437-0.214c0.15-0.047,0.294-0.07,0.428-0.07c0.161,0,0.295,0.036,0.405,0.105
	c0.109,0.07,0.163,0.18,0.163,0.331c0,0.047-0.008,0.102-0.023,0.163c-0.025,0.138-0.057,0.323-0.097,0.556
	c-0.041,0.233-0.087,0.497-0.139,0.793c-0.051,0.297-0.124,0.712-0.217,1.248s-0.169,0.966-0.227,1.292
	c-0.132,0.77-0.265,1.597-0.402,2.482c0.158-0.088,0.327-0.197,0.509-0.326s0.385-0.303,0.608-0.521s0.472-0.491,0.747-0.82
	s0.583-0.74,0.926-1.232l0.373,1.732c-0.093,0.16-0.213,0.322-0.358,0.487c-0.156,0.175-0.321,0.346-0.498,0.51
	c-0.259,0.237-0.446,0.397-0.56,0.479c-0.036,0.026-0.225,0.175-0.568,0.447c-0.104,0.088-0.447,0.327-1.03,0.715
	c-0.143,0.093-0.239,0.263-0.292,0.509c-0.053,0.246-0.113,0.704-0.181,1.373c-0.03,0.191-0.048,0.338-0.056,0.441
	c-0.031,0.248-0.061,0.484-0.09,0.708s-0.079,0.481-0.151,0.768s-0.158,0.552-0.256,0.793c-0.099,0.241-0.228,0.482-0.389,0.72
	c-0.161,0.238-0.337,0.442-0.532,0.611c-0.194,0.168-0.428,0.305-0.703,0.408c-0.275,0.104-0.575,0.156-0.901,0.156
	c-0.264,0-0.508-0.03-0.733-0.089s-0.431-0.152-0.617-0.275c-0.186-0.124-0.339-0.294-0.458-0.509
	c-0.119-0.215-0.189-0.467-0.21-0.758c-0.041-0.549,0.109-1.129,0.452-1.741c0.192-0.342,0.326-0.579,0.405-0.711
	c0.077-0.132,0.199-0.323,0.366-0.571c0.166-0.244,0.34-0.464,0.521-0.661c0.363-0.409,0.663-0.738,0.899-0.987
	C95.57,32.061,95.852,31.794,96.179,31.509z M96.206,33.385c-0.364,0.259-0.722,0.674-1.075,1.245
	c-0.353,0.57-0.634,1.151-0.842,1.742c-0.172,0.498-0.086,0.747,0.256,0.747c0.124,0,0.236-0.015,0.334-0.047
	c0.098-0.031,0.189-0.087,0.272-0.167c0.083-0.081,0.156-0.169,0.218-0.264c0.062-0.096,0.128-0.231,0.199-0.405
	c0.07-0.174,0.132-0.345,0.187-0.514c0.054-0.169,0.123-0.393,0.206-0.673c0.047-0.151,0.081-0.318,0.104-0.503
	c0.023-0.185,0.05-0.407,0.081-0.666C96.177,33.622,96.198,33.457,96.206,33.385z"/>
</svg>
