<?xml version="1.0" encoding="utf-8"?>
<!-- Generator: Adobe Illustrator 15.1.0, SVG Export Plug-In  -->
<!DOCTYPE svg PUBLIC "-//W3C//DTD SVG 1.1//EN" "http://www.w3.org/Graphics/SVG/1.1/DTD/svg11.dtd" [
	<!ENTITY ns_flows "http://ns.adobe.com/Flows/1.0/">
]>
<svg version="1.1"
	 xmlns="http://www.w3.org/2000/svg" xmlns:xlink="http://www.w3.org/1999/xlink" xmlns:a="http://ns.adobe.com/AdobeSVGViewerExtensions/3.0/"
	 x="0px" y="0px" width="250px" height="100px" viewBox="-11.845 -8.28 250 100" enable-background="new -11.845 -8.28 250 100"
	 xml:space="preserve">
<defs>
</defs>
<g id="Forma_1_2_">
	<g>
		<path fill-rule="evenodd" clip-rule="evenodd" fill="#FFFFFF" d="M83.244,47.137l-8.672-17.346
			c-11.123,1.131-14.894,3.394-16.213,5.091c-0.188,0.377-0.943,1.319-0.188,3.582c1.697,5.845,0,9.805-1.697,12.066
			c-4.147,5.656-13.574,8.107-30.165,8.107c-5.09,0-8.672,1.132-9.804,2.829c-1.131,1.696-0.377,4.713,0,5.656h44.682
			c1.697,0,3.205-0.943,3.959-2.263c0.943-1.32,0.943-3.205,0.188-4.525l-3.017-6.222H78.72c1.697,0,3.205-0.943,3.959-2.263
			C83.999,50.342,83.999,48.646,83.244,47.137z M49.309,45.063c0.188-0.377,0.943-1.319,0.188-3.959
			c-1.508-5.279,0-9.051,1.508-11.313c3.017-4.525,9.049-7.165,19.418-8.674l-4.336-8.861c-0.754-1.697-2.451-2.64-4.336-2.64
			s-3.394,0.942-4.336,2.64l-7.729,15.649L37.432,2.64C36.678,0.943,34.981,0,33.096,0s-3.394,0.943-4.336,2.64L0.48,60.146
			c-0.754,1.509-0.565,3.205,0.188,4.714c0.943,1.319,2.451,2.263,3.959,2.263h2.64c-0.565-2.828-0.754-6.788,1.697-10.559
			c3.017-4.714,8.861-7.165,17.533-7.165C43.465,49.399,48.178,46.76,49.309,45.063z"/>
	</g>
</g>
<path fill="#FFFFFF" d="M102.602,6.621c1.53,0,2.871,0.206,4.023,0.616c1.152,0.411,2.111,0.957,2.876,1.638
	c0.765,0.681,1.341,1.464,1.728,2.349c0.387,0.884,0.581,1.8,0.581,2.748c0,0.888-0.173,1.766-0.52,2.636s-0.867,1.671-1.564,2.404
	c-0.697,0.734-1.576,1.368-2.637,1.902c-1.062,0.535-2.307,0.911-3.737,1.127c-0.027,0.662-0.05,1.269-0.068,1.822
	c-0.009,0.235-0.018,0.471-0.027,0.707c-0.009,0.236-0.016,0.451-0.021,0.646c-0.005,0.195-0.009,0.365-0.014,0.51
	c-0.005,0.145-0.007,0.245-0.007,0.299c-0.018,0.634-0.093,1.292-0.225,1.974c-0.132,0.682-0.322,1.347-0.572,1.997
	s-0.555,1.266-0.914,1.848s-0.777,1.092-1.254,1.53c-0.477,0.438-1.011,0.785-1.602,1.042s-1.236,0.386-1.936,0.386
	c-0.742,0-1.405-0.192-1.989-0.576c-0.583-0.384-1.095-0.902-1.534-1.552c-0.439-0.651-0.81-1.401-1.113-2.251
	s-0.55-1.738-0.74-2.665c-0.19-0.926-0.328-1.86-0.414-2.8s-0.129-1.826-0.129-2.658c0-1.429,0.131-2.807,0.395-4.137
	c0.263-1.329,0.639-2.575,1.128-3.736c0.49-1.162,1.083-2.222,1.782-3.181s1.484-1.781,2.359-2.468
	c0.875-0.688,1.827-1.218,2.856-1.594C100.347,6.809,101.441,6.621,102.602,6.621z M94.435,21.951c0,0.371,0.002,0.872,0.007,1.501
	s0.029,1.302,0.075,2.018s0.118,1.44,0.217,2.174s0.247,1.397,0.441,1.991c0.194,0.593,0.438,1.078,0.733,1.454
	c0.294,0.376,0.663,0.564,1.106,0.564c0.462,0,0.855-0.161,1.181-0.482c0.326-0.322,0.597-0.739,0.814-1.251s0.389-1.092,0.516-1.74
	c0.127-0.648,0.222-1.298,0.285-1.951s0.104-1.275,0.122-1.869s0.027-1.099,0.027-1.516v-0.639
	c-0.745-0.293-1.331-0.551-1.757-0.774c-0.426-0.222-0.747-0.436-0.962-0.641s-0.352-0.42-0.411-0.647
	c-0.058-0.227-0.087-0.492-0.087-0.794c0-0.167,0.005-0.332,0.014-0.495s0.034-0.307,0.074-0.432
	c0.041-0.125,0.099-0.228,0.175-0.307c0.076-0.079,0.182-0.119,0.316-0.119c0.09,0,0.173,0.019,0.249,0.056
	c0.076,0.038,0.173,0.09,0.29,0.155c0.296,0.169,0.565,0.309,0.807,0.417c0.242,0.108,0.449,0.195,0.619,0.261
	c0.197,0.076,0.377,0.132,0.539,0.169c0-0.119,0.002-0.354,0.006-0.707s0.032-0.755,0.082-1.208s0.134-0.926,0.253-1.42
	s0.292-0.947,0.52-1.358s0.525-0.752,0.89-1.022c0.365-0.27,0.816-0.405,1.355-0.405c0.163,0,0.33,0.016,0.502,0.048
	c0.172,0.032,0.328,0.091,0.468,0.177s0.258,0.202,0.353,0.348c0.095,0.146,0.143,0.332,0.143,0.56c0,0.064-0.002,0.107-0.007,0.13
	c-0.005,0.023-0.007,0.053-0.007,0.089l-0.826,3.532l-0.122,1.086c0.884-0.138,1.647-0.357,2.288-0.66
	c0.641-0.302,1.171-0.66,1.591-1.072c0.42-0.413,0.731-0.867,0.934-1.362s0.305-1.003,0.305-1.526c0-0.509-0.098-1.03-0.292-1.562
	c-0.194-0.532-0.531-1.017-1.01-1.453c-0.479-0.437-1.121-0.795-1.926-1.078c-0.805-0.282-1.817-0.423-3.038-0.423
	c-0.917,0-1.747,0.175-2.49,0.524c-0.744,0.35-1.406,0.824-1.987,1.422c-0.581,0.599-1.084,1.297-1.511,2.096
	s-0.778,1.649-1.055,2.552c-0.276,0.903-0.48,1.833-0.612,2.79C94.501,20.112,94.435,21.044,94.435,21.951z"/>
<path fill="#FFFFFF" d="M124.583,28.003c-0.208,0.293-0.486,0.636-0.834,1.029c-0.349,0.394-0.74,0.769-1.175,1.125
	c-0.435,0.357-0.9,0.659-1.397,0.906c-0.498,0.247-0.996,0.371-1.493,0.371c-0.602,0-1.103-0.19-1.504-0.571
	c-0.401-0.381-0.748-0.934-1.04-1.66c-0.22,0.251-0.488,0.506-0.808,0.766c-0.319,0.26-0.668,0.495-1.047,0.706
	s-0.773,0.383-1.184,0.517s-0.821,0.202-1.232,0.202c-0.435,0-0.857-0.089-1.269-0.267c-0.412-0.178-0.776-0.434-1.093-0.767
	c-0.317-0.333-0.57-0.739-0.76-1.219s-0.285-1.02-0.285-1.623c0-0.676,0.096-1.371,0.287-2.083c0.191-0.712,0.487-1.483,0.888-2.313
	s0.831-1.547,1.291-2.151c0.459-0.604,0.962-1.132,1.509-1.583c0.546-0.451,1.122-0.81,1.728-1.075
	c0.605-0.266,1.222-0.399,1.851-0.399c0.209,0,0.373,0.041,0.491,0.124c0.118,0.082,0.216,0.176,0.294,0.281
	c0.077,0.105,0.152,0.208,0.225,0.309c0.073,0.101,0.164,0.174,0.273,0.219c0.109,0.046,0.221,0.076,0.335,0.089
	c0.113,0.014,0.229,0.021,0.348,0.021c0.101,0,0.202-0.002,0.308-0.007c0.104-0.004,0.207-0.007,0.307-0.007
	c0.137,0,0.265,0.014,0.383,0.041c0.118,0.028,0.223,0.087,0.313,0.178c0.091,0.092,0.161,0.22,0.211,0.384s0.075,0.389,0.075,0.672
	c0,0.433-0.046,0.912-0.136,1.439c-0.091,0.527-0.194,1.068-0.312,1.621s-0.25,1.184-0.399,1.892s-0.224,1.305-0.224,1.79
	c0,0.415,0.038,0.739,0.115,0.973c0.077,0.234,0.242,0.351,0.495,0.351c0.19,0,0.39-0.047,0.598-0.141s0.418-0.217,0.631-0.37
	c0.213-0.153,0.426-0.325,0.639-0.519c0.212-0.193,0.414-0.393,0.604-0.599c0.443-0.484,0.892-1.032,1.344-1.642L124.583,28.003z
	 M112.937,26.94c0,0.233,0.016,0.46,0.047,0.679s0.088,0.416,0.17,0.588c0.083,0.173,0.191,0.313,0.327,0.42
	c0.137,0.107,0.309,0.161,0.517,0.161c0.336,0,0.64-0.146,0.911-0.438c0.272-0.292,0.508-0.642,0.707-1.052
	c0.2-0.41,0.36-0.833,0.483-1.271c0.122-0.438,0.201-0.802,0.237-1.094l1.013-4.413c-0.371,0-0.733,0.092-1.086,0.276
	c-0.353,0.184-0.686,0.433-0.998,0.747c-0.312,0.314-0.6,0.673-0.861,1.077c-0.263,0.404-0.521,0.901-0.774,1.494
	c-0.253,0.592-0.432,1.112-0.536,1.561C112.989,26.124,112.937,26.545,112.937,26.94z"/>
<path fill="#FFFFFF" d="M134.778,28.327c-0.87,0.507-1.645,0.95-2.324,1.33c-0.68,0.38-1.285,0.697-1.814,0.95
	c-0.53,0.253-1.002,0.443-1.414,0.57s-0.786,0.19-1.121,0.19c-0.685,0-1.287-0.208-1.81-0.625c-0.521-0.416-0.958-1.016-1.31-1.798
	c-0.351-0.783-0.614-1.731-0.789-2.844c-0.176-1.113-0.264-2.367-0.264-3.76c0-0.543,0.022-1.122,0.067-1.737
	c0.045-0.616,0.107-1.227,0.188-1.833c-0.273-0.041-0.485-0.078-0.636-0.113c-0.15-0.036-0.31-0.071-0.479-0.106
	c-0.168-0.035-0.383-0.073-0.642-0.113c-0.26-0.041-0.636-0.091-1.128-0.151c-0.218-0.03-0.387-0.088-0.506-0.173
	c-0.117-0.086-0.204-0.187-0.259-0.302s-0.087-0.237-0.096-0.363s-0.014-0.234-0.014-0.325c0-0.143,0.089-0.252,0.266-0.327
	c0.178-0.075,0.405-0.131,0.683-0.169c0.277-0.037,0.582-0.058,0.914-0.063c0.332-0.004,0.65-0.002,0.955,0.007
	c0.305,0.009,0.578,0.016,0.818,0.021c0.241,0.004,0.407-0.002,0.498-0.021c0.244-1.218,0.554-2.398,0.929-3.54
	s0.795-2.157,1.26-3.045c0.466-0.889,0.974-1.602,1.524-2.139c0.552-0.537,1.13-0.806,1.734-0.806c0.39,0,0.745,0.109,1.066,0.326
	c0.322,0.217,0.596,0.506,0.822,0.868c0.227,0.362,0.4,0.785,0.522,1.268c0.122,0.484,0.184,0.988,0.184,1.512
	c0,0.434-0.063,0.892-0.19,1.375s-0.299,0.974-0.516,1.474c-0.217,0.5-0.473,1.007-0.768,1.52c-0.294,0.514-0.604,1.022-0.93,1.527
	c0.082-0.03,0.218-0.036,0.408-0.018c0.189,0.019,0.409,0.031,0.658,0.039c0.249,0.007,0.518,0.014,0.808,0.021
	c0.289,0.007,0.57,0.016,0.842,0.024c0.271,0.009,0.524,0.018,0.76,0.027c0.235,0.009,0.43,0.019,0.584,0.027
	c0.181,0.01,0.313,0.111,0.394,0.302s0.122,0.433,0.122,0.725c0,0.338-0.091,0.613-0.271,0.826
	c-0.182,0.212-0.381,0.318-0.599,0.318h-5.218c-0.264,0.362-0.529,0.717-0.798,1.065c-0.268,0.349-0.516,0.663-0.743,0.944
	c-0.036,0.561-0.067,1.113-0.095,1.656c-0.009,0.235-0.019,0.478-0.027,0.726c-0.009,0.249-0.018,0.496-0.027,0.74
	c-0.009,0.244-0.016,0.479-0.02,0.706c-0.005,0.227-0.007,0.435-0.007,0.625c0,0.489,0.045,0.9,0.136,1.235s0.223,0.608,0.396,0.821
	c0.173,0.212,0.384,0.366,0.634,0.461c0.249,0.095,0.529,0.143,0.838,0.143c0.19,0,0.428-0.045,0.713-0.136s0.598-0.215,0.938-0.374
	c0.34-0.158,0.698-0.346,1.074-0.563c0.375-0.217,0.747-0.455,1.113-0.713c0.367-0.258,0.719-0.529,1.054-0.814
	s0.639-0.577,0.91-0.875V28.327z M130.434,11.137c0-0.099-0.007-0.209-0.021-0.331c-0.014-0.122-0.043-0.237-0.089-0.345
	c-0.045-0.108-0.115-0.198-0.211-0.271s-0.229-0.108-0.401-0.108c-0.236,0-0.476,0.207-0.716,0.62
	c-0.241,0.413-0.473,0.941-0.695,1.583c-0.223,0.642-0.432,1.35-0.627,2.123s-0.374,1.523-0.538,2.25
	c0.137,0.014,0.272,0.025,0.409,0.035c0.136,0.01,0.276,0.022,0.422,0.035c0.272-0.456,0.557-0.95,0.852-1.482
	c0.296-0.532,0.562-1.055,0.798-1.569s0.432-0.995,0.586-1.442S130.434,11.423,130.434,11.137z"/>
<path fill="#FFFFFF" d="M141.986,28.476c-0.325,0.298-0.73,0.617-1.215,0.957c-0.483,0.339-1.007,0.652-1.567,0.937
	c-0.562,0.285-1.134,0.522-1.717,0.712c-0.584,0.19-1.139,0.285-1.663,0.285c-0.471,0-0.867-0.065-1.188-0.197
	c-0.321-0.131-0.582-0.314-0.781-0.55s-0.342-0.522-0.428-0.862s-0.129-0.713-0.129-1.12c0-0.57,0.063-1.235,0.19-1.995
	c0.261-1.572,0.429-2.456,0.503-2.65c0.123-0.387,0.37-1.243,0.74-2.569c0.344-1.081,0.556-1.784,0.637-2.11
	c0.044-0.229,0.168-0.435,0.373-0.618c0.187-0.165,0.397-0.3,0.634-0.405c0.235-0.105,0.479-0.183,0.733-0.233
	c0.253-0.05,0.482-0.076,0.687-0.076c0.373,0,0.627,0.07,0.76,0.21c0.134,0.141,0.2,0.328,0.2,0.563c0,0.199-0.046,0.48-0.139,0.844
	c-0.094,0.364-0.199,0.778-0.318,1.243c-0.119,0.465-0.295,1.063-0.528,1.793s-0.393,1.354-0.478,1.87
	c-0.086,0.516-0.193,1.028-0.323,1.537c-0.131,0.509-0.195,0.971-0.195,1.387c0,0.407,0.045,0.73,0.136,0.97
	c0.09,0.24,0.275,0.359,0.557,0.359c0.325,0,0.688-0.113,1.086-0.339c0.397-0.226,0.801-0.5,1.208-0.821
	c0.407-0.321,0.805-0.653,1.194-0.998c0.389-0.344,0.733-0.638,1.031-0.882V28.476z M135.918,14.231c0-0.21,0.045-0.448,0.136-0.713
	c0.091-0.265,0.237-0.514,0.441-0.747c0.203-0.233,0.475-0.429,0.814-0.589c0.339-0.16,0.762-0.24,1.27-0.24
	c0.316,0,0.615,0.037,0.896,0.11c0.28,0.073,0.524,0.185,0.733,0.335c0.208,0.151,0.373,0.35,0.495,0.596s0.184,0.539,0.184,0.877
	c0,0.311-0.051,0.612-0.149,0.904c-0.1,0.292-0.258,0.553-0.476,0.781c-0.217,0.229-0.491,0.414-0.821,0.555
	s-0.726,0.212-1.188,0.212c-0.797,0-1.385-0.189-1.765-0.569C136.109,15.366,135.918,14.861,135.918,14.231z"/>
<path fill="#FFFFFF" d="M145.59,31.367c-0.846,0-1.585-0.157-2.219-0.47s-1.161-0.734-1.584-1.264s-0.739-1.142-0.951-1.837
	c-0.211-0.696-0.316-1.426-0.316-2.19c0-0.5,0.095-1.096,0.283-1.789c0.189-0.692,0.385-1.306,0.588-1.842
	c0.202-0.536,0.456-1.047,0.763-1.534c0.306-0.487,0.664-0.916,1.073-1.286s0.868-0.666,1.377-0.884s1.073-0.328,1.694-0.328
	c0.508,0,0.979,0.082,1.413,0.244c0.436,0.163,0.813,0.391,1.135,0.685c0.322,0.293,0.573,0.648,0.755,1.064
	c0.181,0.416,0.271,0.881,0.271,1.396c0,0.549-0.184,1.164-0.551,1.845c-0.367,0.681-0.796,1.265-1.285,1.752
	c-0.49,0.487-1.073,0.92-1.748,1.301c-0.676,0.38-1.408,0.677-2.197,0.889c0.136,0.239,0.271,0.438,0.402,0.598
	c0.131,0.159,0.266,0.283,0.401,0.372c0.137,0.088,0.279,0.15,0.43,0.186c0.149,0.036,0.311,0.053,0.483,0.053
	c0.543,0,1.115-0.106,1.717-0.319c0.602-0.212,1.188-0.478,1.758-0.796c0.57-0.318,1.108-0.666,1.615-1.042
	c0.507-0.376,0.938-0.732,1.29-1.069l1.751,1.779c-0.796,0.848-1.643,1.598-2.538,2.25c-0.39,0.28-0.808,0.555-1.256,0.825
	c-0.448,0.27-0.919,0.51-1.412,0.72s-1.004,0.377-1.533,0.503C146.67,31.304,146.133,31.367,145.59,31.367z M143.778,24.902
	c0.327,0,0.684-0.082,1.069-0.245c0.387-0.164,0.745-0.374,1.077-0.631c0.331-0.256,0.656-0.602,0.974-1.035
	c0.318-0.434,0.478-0.792,0.478-1.075c0-0.398-0.075-0.726-0.226-0.982c-0.149-0.257-0.334-0.385-0.552-0.385
	c-0.391,0-0.725,0.071-1.001,0.213c-0.277,0.142-0.509,0.325-0.695,0.551c-0.187,0.226-0.336,0.482-0.449,0.77
	c-0.114,0.288-0.246,0.644-0.396,1.068c-0.149,0.425-0.234,0.774-0.252,1.049C143.787,24.473,143.778,24.708,143.778,24.902z"/>
<path fill="#FFFFFF" d="M151.271,28.53c0-0.597,0.036-1.287,0.108-2.07c0.072-0.783,0.163-1.643,0.271-2.579
	c0.109-0.937,0.231-1.78,0.367-2.531c0.136-0.751,0.267-1.394,0.394-1.928c0.1-0.416,0.292-0.765,0.577-1.045
	c0.284-0.28,0.672-0.421,1.16-0.421s0.828,0.149,1.019,0.448c0.189,0.299,0.284,0.697,0.284,1.194c0,0.136-0.013,0.319-0.04,0.55
	c-0.027,0.231-0.062,0.484-0.103,0.76c-0.04,0.276-0.083,0.561-0.129,0.855c-0.045,0.294-0.088,0.629-0.129,1.005
	c-0.04,0.375-0.074,0.656-0.102,0.841c-0.027,0.186-0.041,0.31-0.041,0.374h0.271c0.055-0.1,0.141-0.26,0.259-0.482
	c0.117-0.222,0.253-0.541,0.407-0.957c0.153-0.416,0.318-0.785,0.495-1.106c0.177-0.321,0.342-0.629,0.495-0.923
	c0.154-0.294,0.294-0.554,0.421-0.781c0.127-0.226,0.222-0.394,0.285-0.502c0.289-0.489,0.62-0.824,0.991-1.004
	c0.371-0.181,0.782-0.272,1.235-0.272c0.452,0,0.812,0.19,1.079,0.57c0.267,0.38,0.4,0.905,0.4,1.575c0,0.1-0.021,0.267-0.062,0.502
	s-0.093,0.516-0.156,0.841s-0.133,0.747-0.21,1.263c-0.077,0.516-0.147,0.977-0.211,1.384c-0.063,0.407-0.115,0.81-0.155,1.208
	c-0.041,0.398-0.062,0.765-0.062,1.1c0,0.562,0.07,1.023,0.21,1.385c0.141,0.362,0.36,0.543,0.659,0.543
	c0.108,0,0.262-0.041,0.461-0.122c0.299-0.109,0.489-0.204,0.57-0.285c0.398-0.308,0.606-0.457,0.624-0.448
	c0.027,0.009,0.331-0.171,0.91-0.543c0.724-0.461,1.588-1.027,2.593-1.697l-0.014,3.041l-0.679,0.516
	c-0.055,0.045-0.48,0.281-1.276,0.706c-1.149,0.615-1.868,0.986-2.158,1.113c-0.706,0.317-1.145,0.498-1.316,0.543
	c-0.453,0.145-0.928,0.217-1.426,0.217s-0.916-0.36-1.256-1.079c-0.339-0.72-0.509-1.771-0.509-3.156
	c0-0.543,0.036-1.128,0.108-1.758c0.072-0.629,0.163-1.305,0.271-2.029h-0.217l-3.557,7.059c-0.189,0.38-0.394,0.634-0.61,0.76
	c-0.227,0.136-0.489,0.204-0.787,0.204c-0.372,0-0.67-0.079-0.896-0.238c-0.227-0.158-0.4-0.371-0.522-0.638s-0.204-0.57-0.244-0.91
	C151.292,29.243,151.271,28.892,151.271,28.53z"/>
<path fill="#FFFFFF" d="M175.718,28.327c-0.87,0.507-1.645,0.95-2.324,1.33c-0.68,0.38-1.285,0.697-1.814,0.95
	c-0.53,0.253-1.002,0.443-1.414,0.57s-0.786,0.19-1.121,0.19c-0.685,0-1.287-0.208-1.81-0.625c-0.521-0.416-0.958-1.016-1.31-1.798
	c-0.351-0.783-0.614-1.731-0.789-2.844c-0.176-1.113-0.264-2.367-0.264-3.76c0-0.543,0.022-1.122,0.067-1.737
	c0.045-0.616,0.107-1.227,0.188-1.833c-0.273-0.041-0.485-0.078-0.636-0.113c-0.15-0.036-0.31-0.071-0.479-0.106
	c-0.168-0.035-0.383-0.073-0.642-0.113c-0.26-0.041-0.636-0.091-1.128-0.151c-0.218-0.03-0.387-0.088-0.506-0.173
	c-0.117-0.086-0.204-0.187-0.259-0.302s-0.087-0.237-0.096-0.363s-0.014-0.234-0.014-0.325c0-0.143,0.089-0.252,0.266-0.327
	c0.178-0.075,0.405-0.131,0.683-0.169c0.277-0.037,0.582-0.058,0.914-0.063c0.332-0.004,0.65-0.002,0.955,0.007
	c0.305,0.009,0.578,0.016,0.818,0.021c0.241,0.004,0.407-0.002,0.498-0.021c0.244-1.218,0.554-2.398,0.929-3.54
	s0.795-2.157,1.26-3.045c0.466-0.889,0.974-1.602,1.524-2.139c0.552-0.537,1.13-0.806,1.734-0.806c0.39,0,0.745,0.109,1.066,0.326
	c0.322,0.217,0.596,0.506,0.822,0.868c0.227,0.362,0.4,0.785,0.522,1.268c0.122,0.484,0.184,0.988,0.184,1.512
	c0,0.434-0.063,0.892-0.19,1.375s-0.299,0.974-0.516,1.474c-0.217,0.5-0.473,1.007-0.768,1.52c-0.294,0.514-0.604,1.022-0.93,1.527
	c0.082-0.03,0.218-0.036,0.408-0.018c0.189,0.019,0.409,0.031,0.658,0.039c0.249,0.007,0.518,0.014,0.808,0.021
	s0.57,0.016,0.842,0.024c0.271,0.009,0.524,0.018,0.76,0.027c0.235,0.009,0.43,0.019,0.584,0.027
	c0.181,0.01,0.313,0.111,0.394,0.302s0.122,0.433,0.122,0.725c0,0.338-0.091,0.613-0.271,0.826
	c-0.182,0.212-0.381,0.318-0.599,0.318h-5.218c-0.264,0.362-0.529,0.717-0.798,1.065c-0.268,0.349-0.516,0.663-0.743,0.944
	c-0.036,0.561-0.067,1.113-0.095,1.656c-0.009,0.235-0.019,0.478-0.027,0.726c-0.009,0.249-0.018,0.496-0.027,0.74
	c-0.009,0.244-0.016,0.479-0.02,0.706c-0.005,0.227-0.007,0.435-0.007,0.625c0,0.489,0.045,0.9,0.136,1.235s0.223,0.608,0.396,0.821
	c0.173,0.212,0.384,0.366,0.634,0.461c0.249,0.095,0.529,0.143,0.838,0.143c0.19,0,0.428-0.045,0.713-0.136s0.598-0.215,0.938-0.374
	c0.34-0.158,0.698-0.346,1.074-0.563c0.375-0.217,0.747-0.455,1.113-0.713c0.367-0.258,0.719-0.529,1.054-0.814
	s0.639-0.577,0.91-0.875V28.327z M171.375,11.137c0-0.099-0.007-0.209-0.021-0.331c-0.014-0.122-0.043-0.237-0.089-0.345
	c-0.045-0.108-0.115-0.198-0.211-0.271s-0.229-0.108-0.401-0.108c-0.236,0-0.476,0.207-0.716,0.62
	c-0.241,0.413-0.473,0.941-0.695,1.583c-0.223,0.642-0.432,1.35-0.627,2.123s-0.374,1.523-0.538,2.25
	c0.137,0.014,0.272,0.025,0.409,0.035c0.136,0.01,0.276,0.022,0.422,0.035c0.272-0.456,0.557-0.95,0.852-1.482
	c0.296-0.532,0.562-1.055,0.798-1.569s0.432-0.995,0.586-1.442S171.375,11.423,171.375,11.137z"/>
<path fill="#FFFFFF" d="M106.944,33.867c2.04,0,3.829,0.274,5.365,0.821c1.537,0.547,2.815,1.276,3.835,2.184
	c1.02,0.909,1.788,1.953,2.304,3.132c0.517,1.179,0.774,2.401,0.774,3.665c0,1.184-0.23,2.354-0.692,3.514
	c-0.461,1.16-1.156,2.229-2.085,3.206c-0.93,0.979-2.102,1.824-3.517,2.536c-1.415,0.713-3.075,1.214-4.982,1.504
	c-0.036,0.882-0.066,1.691-0.091,2.429c-0.012,0.313-0.024,0.628-0.036,0.941c-0.012,0.314-0.021,0.602-0.027,0.861
	c-0.006,0.26-0.012,0.486-0.018,0.68c-0.006,0.193-0.009,0.326-0.009,0.398c-0.024,0.847-0.125,1.724-0.3,2.632
	c-0.176,0.909-0.43,1.796-0.764,2.663c-0.333,0.866-0.739,1.688-1.217,2.464s-1.036,1.456-1.672,2.04
	c-0.637,0.583-1.348,1.047-2.136,1.39s-1.648,0.515-2.581,0.515c-0.989,0-1.873-0.256-2.651-0.769s-1.46-1.202-2.045-2.07
	c-0.585-0.867-1.08-1.868-1.484-3.001c-0.404-1.133-0.733-2.317-0.986-3.552c-0.253-1.235-0.438-2.48-0.552-3.733
	c-0.115-1.254-0.172-2.435-0.172-3.544c0-1.904,0.175-3.743,0.526-5.516c0.351-1.771,0.852-3.433,1.505-4.981
	c0.653-1.55,1.444-2.963,2.375-4.241c0.931-1.278,1.979-2.375,3.146-3.292c1.167-0.917,2.436-1.625,3.808-2.125
	C103.937,34.118,105.396,33.867,106.944,33.867z M96.055,54.308c0,0.495,0.003,1.162,0.009,2.002c0.006,0.839,0.039,1.736,0.1,2.69
	s0.157,1.92,0.29,2.898s0.329,1.862,0.588,2.653c0.259,0.792,0.585,1.438,0.978,1.938c0.392,0.501,0.884,0.752,1.475,0.752
	c0.615,0,1.14-0.215,1.574-0.644c0.435-0.429,0.796-0.984,1.086-1.667s0.519-1.456,0.688-2.32c0.169-0.863,0.295-1.73,0.38-2.601
	s0.139-1.701,0.163-2.492c0.024-0.791,0.036-1.465,0.036-2.021v-0.852c-0.993-0.392-1.774-0.735-2.342-1.032
	c-0.568-0.296-0.996-0.581-1.283-0.854s-0.47-0.561-0.547-0.863s-0.117-0.655-0.117-1.059c0-0.223,0.006-0.442,0.018-0.66
	c0.012-0.217,0.045-0.408,0.099-0.576c0.054-0.167,0.131-0.304,0.233-0.409c0.102-0.104,0.242-0.157,0.421-0.157
	c0.12,0,0.23,0.024,0.332,0.075c0.102,0.05,0.23,0.119,0.386,0.207c0.395,0.226,0.753,0.411,1.076,0.555
	c0.323,0.145,0.598,0.261,0.826,0.349c0.263,0.101,0.502,0.176,0.718,0.226c0-0.158,0.003-0.473,0.009-0.942
	c0.006-0.469,0.042-1.006,0.109-1.609s0.179-1.235,0.337-1.894c0.158-0.659,0.389-1.263,0.693-1.812s0.699-1.003,1.186-1.363
	c0.486-0.359,1.088-0.539,1.806-0.539c0.217,0,0.44,0.021,0.669,0.063c0.229,0.042,0.437,0.121,0.624,0.236s0.344,0.27,0.471,0.464
	c0.126,0.193,0.19,0.442,0.19,0.745c0,0.086-0.003,0.144-0.009,0.175c-0.006,0.03-0.009,0.07-0.009,0.119l-1.102,4.71l-0.163,1.447
	c1.18-0.183,2.196-0.477,3.051-0.88c0.854-0.403,1.562-0.88,2.121-1.43c0.561-0.55,0.976-1.155,1.246-1.815s0.406-1.338,0.406-2.035
	c0-0.679-0.13-1.373-0.389-2.082c-0.259-0.71-0.708-1.356-1.348-1.938c-0.639-0.582-1.495-1.061-2.567-1.437
	c-1.073-0.376-2.423-0.564-4.051-0.564c-1.222,0-2.329,0.233-3.32,0.699c-0.992,0.466-1.875,1.098-2.649,1.896
	c-0.774,0.799-1.446,1.73-2.014,2.795s-1.037,2.199-1.406,3.402c-0.369,1.204-0.641,2.444-0.816,3.72
	C96.143,51.854,96.055,53.098,96.055,54.308z"/>
<path fill="#FFFFFF" d="M136.252,62.377c-0.278,0.391-0.649,0.849-1.113,1.373c-0.465,0.524-0.986,1.025-1.565,1.501
	s-1.201,0.878-1.864,1.208c-0.664,0.329-1.328,0.494-1.991,0.494c-0.802,0-1.47-0.254-2.005-0.762s-0.997-1.245-1.387-2.213
	c-0.292,0.335-0.651,0.675-1.076,1.021c-0.426,0.347-0.892,0.66-1.396,0.94c-0.505,0.28-1.031,0.511-1.579,0.689
	c-0.547,0.18-1.095,0.269-1.642,0.269c-0.579,0-1.144-0.118-1.692-0.356c-0.549-0.236-1.034-0.577-1.457-1.021
	c-0.422-0.444-0.76-0.986-1.014-1.626c-0.253-0.639-0.38-1.36-0.38-2.163c0-0.901,0.127-1.828,0.383-2.777
	c0.255-0.95,0.649-1.978,1.184-3.084c0.533-1.106,1.107-2.063,1.72-2.868c0.613-0.806,1.284-1.509,2.013-2.109
	c0.728-0.602,1.495-1.079,2.303-1.435c0.807-0.354,1.629-0.532,2.467-0.532c0.279,0,0.498,0.056,0.655,0.165
	c0.158,0.109,0.289,0.234,0.392,0.375c0.104,0.141,0.203,0.277,0.301,0.411c0.097,0.135,0.218,0.231,0.364,0.293
	c0.146,0.062,0.294,0.101,0.445,0.119c0.152,0.018,0.307,0.027,0.465,0.027c0.134,0,0.27-0.003,0.409-0.01
	c0.14-0.006,0.276-0.009,0.41-0.009c0.182,0,0.352,0.019,0.51,0.055c0.158,0.037,0.297,0.116,0.418,0.238s0.215,0.292,0.281,0.512
	s0.1,0.519,0.1,0.896c0,0.576-0.061,1.217-0.181,1.919c-0.121,0.703-0.26,1.424-0.415,2.161c-0.155,0.738-0.333,1.579-0.532,2.523
	s-0.299,1.74-0.299,2.387c0,0.553,0.052,0.985,0.154,1.297c0.102,0.312,0.322,0.468,0.66,0.468c0.254,0,0.519-0.063,0.797-0.188
	c0.277-0.126,0.558-0.29,0.841-0.493c0.284-0.203,0.567-0.434,0.851-0.69c0.284-0.258,0.553-0.523,0.806-0.799
	c0.591-0.646,1.188-1.376,1.792-2.189L136.252,62.377z M120.725,60.96c0,0.311,0.021,0.612,0.063,0.905
	c0.042,0.292,0.117,0.554,0.227,0.783c0.108,0.23,0.254,0.417,0.435,0.561c0.182,0.143,0.411,0.215,0.689,0.215
	c0.446,0,0.852-0.194,1.214-0.583c0.363-0.389,0.678-0.856,0.943-1.403s0.48-1.111,0.644-1.694s0.269-1.069,0.317-1.458l1.35-5.884
	c-0.495,0-0.978,0.122-1.448,0.368c-0.47,0.245-0.914,0.577-1.33,0.995c-0.416,0.419-0.799,0.897-1.149,1.436
	c-0.35,0.538-0.693,1.202-1.031,1.991c-0.338,0.79-0.576,1.483-0.715,2.081C120.794,59.871,120.725,60.434,120.725,60.96z"/>
<path fill="#FFFFFF" d="M149.846,62.809c-1.16,0.676-2.193,1.267-3.1,1.773s-1.713,0.929-2.42,1.267s-1.335,0.592-1.885,0.761
	s-1.048,0.253-1.495,0.253c-0.912,0-1.716-0.277-2.412-0.833c-0.696-0.555-1.278-1.354-1.746-2.397s-0.819-2.308-1.053-3.792
	c-0.234-1.484-0.352-3.155-0.352-5.014c0-0.724,0.03-1.496,0.09-2.316s0.144-1.635,0.251-2.443
	c-0.364-0.054-0.646-0.104-0.847-0.151c-0.201-0.047-0.413-0.094-0.638-0.141c-0.226-0.047-0.511-0.098-0.856-0.151
	c-0.347-0.054-0.848-0.12-1.503-0.201c-0.292-0.04-0.517-0.117-0.675-0.231c-0.157-0.114-0.272-0.249-0.346-0.403
	s-0.115-0.315-0.128-0.483c-0.012-0.168-0.018-0.313-0.018-0.434c0-0.19,0.118-0.335,0.354-0.436c0.236-0.1,0.54-0.175,0.909-0.225
	c0.37-0.051,0.776-0.078,1.22-0.085c0.442-0.006,0.867-0.003,1.273,0.01c0.406,0.012,0.77,0.021,1.092,0.026
	c0.321,0.007,0.542-0.003,0.664-0.026c0.325-1.624,0.737-3.197,1.237-4.72s1.06-2.876,1.681-4.061
	c0.62-1.185,1.297-2.136,2.032-2.852c0.734-0.716,1.506-1.074,2.313-1.074c0.52,0,0.993,0.145,1.422,0.434
	c0.429,0.29,0.794,0.675,1.096,1.157c0.302,0.482,0.534,1.046,0.697,1.691c0.162,0.645,0.244,1.317,0.244,2.016
	c0,0.579-0.084,1.189-0.254,1.833c-0.169,0.645-0.398,1.299-0.688,1.966c-0.29,0.667-0.631,1.343-1.023,2.027
	c-0.392,0.685-0.806,1.363-1.239,2.036c0.108-0.04,0.29-0.048,0.543-0.023c0.254,0.025,0.547,0.042,0.879,0.052
	c0.331,0.01,0.69,0.019,1.076,0.028c0.387,0.01,0.761,0.021,1.122,0.033c0.362,0.012,0.7,0.023,1.014,0.036
	c0.313,0.012,0.573,0.024,0.778,0.036c0.241,0.014,0.417,0.147,0.525,0.402c0.108,0.256,0.163,0.578,0.163,0.967
	c0,0.451-0.121,0.818-0.363,1.102c-0.241,0.283-0.507,0.425-0.797,0.425h-6.958c-0.352,0.482-0.706,0.956-1.063,1.421
	s-0.688,0.884-0.99,1.258c-0.049,0.748-0.091,1.484-0.127,2.208c-0.012,0.314-0.024,0.637-0.036,0.969s-0.024,0.66-0.036,0.986
	c-0.013,0.325-0.021,0.64-0.027,0.94c-0.006,0.302-0.009,0.58-0.009,0.833c0,0.651,0.061,1.201,0.182,1.647s0.297,0.812,0.527,1.095
	c0.229,0.283,0.511,0.488,0.845,0.615c0.333,0.127,0.705,0.19,1.117,0.19c0.253,0,0.57-0.061,0.951-0.182
	c0.38-0.12,0.797-0.286,1.25-0.497c0.453-0.212,0.93-0.462,1.431-0.752c0.502-0.289,0.997-0.605,1.486-0.95
	c0.489-0.344,0.957-0.705,1.403-1.086c0.447-0.38,0.852-0.769,1.215-1.167V62.809z M144.054,39.888c0-0.132-0.01-0.279-0.027-0.441
	c-0.019-0.162-0.058-0.315-0.118-0.459s-0.154-0.264-0.281-0.36c-0.128-0.096-0.307-0.145-0.536-0.145
	c-0.315,0-0.634,0.276-0.954,0.827c-0.321,0.551-0.63,1.255-0.927,2.111c-0.297,0.857-0.576,1.8-0.836,2.831
	c-0.261,1.03-0.5,2.03-0.718,3c0.182,0.019,0.363,0.034,0.545,0.048s0.369,0.029,0.563,0.047c0.363-0.608,0.742-1.267,1.136-1.976
	c0.394-0.71,0.748-1.407,1.063-2.093c0.315-0.686,0.576-1.326,0.781-1.923C143.951,40.758,144.054,40.27,144.054,39.888z"/>
<path fill="#FFFFFF" d="M154.696,55.808c0.495-0.669,1.05-1.388,1.665-2.157c0.616-0.769,1.439-1.654,2.471-2.658
	c1.032-1.004,1.876-1.727,2.534-2.166c0.657-0.44,1.275-0.66,1.855-0.66c0.145,0,0.308,0.027,0.488,0.083s0.353,0.157,0.516,0.305
	s0.299,0.354,0.407,0.617c0.108,0.265,0.163,0.605,0.163,1.023c0,0.837-0.115,1.651-0.344,2.444
	c-0.229,0.793-0.664,1.756-1.304,2.887s-1.07,2.109-1.294,2.933c-0.224,0.824-0.335,1.685-0.335,2.582
	c0,0.492,0.073,0.886,0.218,1.181s0.331,0.442,0.561,0.442c0.29,0,0.598-0.061,0.924-0.183c0.325-0.122,0.651-0.28,0.977-0.476
	c0.326-0.194,0.646-0.417,0.96-0.667c0.313-0.25,0.608-0.509,0.887-0.777c0.663-0.621,1.314-1.328,1.954-2.12l0.308,4.818
	c-0.217,0.158-0.491,0.356-0.823,0.595s-0.7,0.49-1.104,0.756c-0.404,0.267-0.842,0.536-1.313,0.809
	c-0.471,0.271-0.944,0.513-1.421,0.722c-0.477,0.21-0.953,0.383-1.43,0.519s-0.933,0.204-1.366,0.204c-0.68,0-1.27-0.169-1.77-0.509
	c-0.5-0.339-0.91-0.771-1.231-1.294c-0.321-0.522-0.562-1.095-0.723-1.716c-0.16-0.621-0.24-1.207-0.24-1.759
	c0-0.391,0.053-0.826,0.16-1.308c0.106-0.481,0.238-0.966,0.396-1.453c0.156-0.487,0.332-0.963,0.527-1.426
	c0.194-0.464,0.376-0.878,0.546-1.243c0.17-0.366,0.317-0.664,0.442-0.896c0.126-0.231,0.207-0.365,0.245-0.402l-0.38-0.055
	c-0.205,0.131-0.552,0.466-1.041,1.003c-0.488,0.537-1.04,1.214-1.656,2.031c-0.615,0.818-1.252,1.736-1.909,2.757
	s-1.252,2.073-1.782,3.159c-0.266,0.538-0.483,1.006-0.652,1.406c-0.169,0.399-0.334,0.721-0.497,0.965s-0.341,0.428-0.534,0.553
	c-0.193,0.124-0.44,0.187-0.742,0.187c-0.398,0-0.712-0.107-0.941-0.323c-0.229-0.215-0.404-0.501-0.524-0.858
	c-0.121-0.356-0.199-0.762-0.235-1.215s-0.055-0.918-0.055-1.395c0-0.828,0.01-1.913,0.027-3.255
	c0.019-1.341,0.075-2.828,0.172-4.46c0.097-1.633,0.272-3.323,0.529-5.073c0.255-1.75,0.51-3.49,0.763-5.223
	c0.254-1.731,0.631-3.38,1.133-4.945c0.501-1.565,1.111-2.942,1.83-4.133c0.719-1.19,1.562-2.136,2.528-2.837
	c0.966-0.701,2.078-1.051,3.334-1.051c0.652,0,1.186,0.097,1.603,0.291c0.416,0.194,0.748,0.468,0.995,0.819
	c0.247,0.352,0.419,0.774,0.516,1.265c0.097,0.492,0.145,1.041,0.145,1.648c0,0.902-0.126,1.901-0.38,2.998
	c-0.253,1.097-0.588,2.237-1.004,3.42c-0.417,1.182-0.891,2.379-1.421,3.592c-0.531,1.213-1.074,2.389-1.629,3.528
	c-0.556,1.14-1.102,2.216-1.638,3.228c-0.537,1.012-1.011,1.901-1.421,2.669L154.696,55.808z M156.303,44.419
	c0.713-1.846,1.229-3.403,1.55-4.67c0.32-1.267,0.481-2.202,0.481-2.805c0-0.917-0.129-1.376-0.387-1.376
	c-0.313,0-0.778,0.513-1.394,1.538c-0.616,1.025-1.34,2.515-2.173,4.468c-0.205,0.665-0.396,1.352-0.57,2.063
	c-0.175,0.712-0.313,1.423-0.416,2.133c-0.103,0.709-0.203,1.407-0.303,2.093c-0.1,0.687-0.192,1.334-0.28,1.941
	c-0.265,1.433-0.468,2.834-0.607,4.206c0.326-0.761,0.683-1.587,1.069-2.479s0.768-1.776,1.143-2.651s0.729-1.701,1.061-2.479
	C155.81,45.622,156.085,44.962,156.303,44.419z"/>
<path fill="#FFFFFF" d="M175.708,57.921c-0.349,1.315-0.76,2.52-1.234,3.611s-0.981,2.033-1.522,2.823
	c-0.54,0.791-1.099,1.406-1.676,1.847c-0.576,0.44-1.141,0.66-1.693,0.66c-0.913,0-1.582-0.693-2.01-2.081
	c-0.427-1.388-0.641-3.439-0.641-6.154c0-1.344,0-2.53,0-3.56c0-1.028,0.006-2.058,0.019-3.087c0.012-1.029,0.012-1.359-0.002-0.992
	c-0.013,0.368-0.025,0.707-0.036,1.019c-0.003,0.075-0.007,0.207-0.014,0.393s0.039,0.094,0.137-0.275s0.229-0.754,0.392-1.153
	s0.372-0.763,0.627-1.091c0.255-0.327,0.555-0.599,0.9-0.813c0.347-0.215,0.761-0.322,1.244-0.322l0.47,0.036
	c0.574,0,1.015,0.104,1.321,0.314c0.308,0.209,0.461,0.487,0.461,0.834l-1.464,10.525l0.236-0.015
	c0.532-1.231,1.025-2.479,1.479-3.739c0.454-1.262,0.848-2.297,1.18-3.105c0.333-0.809,0.653-1.514,0.962-2.117
	c0.308-0.604,0.644-1.104,1.006-1.503c0.362-0.397,0.771-0.696,1.224-0.896s0.994-0.299,1.623-0.299
	c0.531,0,0.938,0.105,1.222,0.316c0.283,0.212,0.426,0.492,0.426,0.842l-1.684,10.516l0.271-0.015l4.507-10.392
	c0.145-0.338,0.458-0.637,0.941-0.896c0.482-0.259,1.056-0.389,1.719-0.389c0.688,0,1.243,0.142,1.665,0.425
	c0.423,0.284,0.634,0.648,0.634,1.095c0,0.338-0.058,0.7-0.172,1.086c-0.115,0.387-0.238,0.745-0.371,1.077s-0.26,0.615-0.38,0.851
	c-0.121,0.235-0.188,0.365-0.199,0.39c-0.266,0.482-0.54,1.05-0.823,1.701c-0.284,0.651-0.51,1.134-0.679,1.447
	c-0.206,0.362-0.387,0.7-0.543,1.014c0.169,0.471,0.386,0.894,0.651,1.268c0.229,0.313,0.513,0.604,0.851,0.868
	c0.338,0.266,0.742,0.398,1.213,0.398c0.397,0,0.856-0.105,1.375-0.316s1.008-0.449,1.466-0.715
	c0.543-0.302,1.099-0.646,1.666-1.032v4.366c-0.797,0.533-1.62,0.959-2.471,1.275c-0.851,0.317-1.669,0.477-2.453,0.477
	c-0.615,0-1.197-0.076-1.746-0.229s-1.031-0.393-1.448-0.723c-0.416-0.329-0.748-0.757-0.995-1.283s-0.377-1.163-0.39-1.911
	c-0.41,0.966-0.838,1.85-1.284,2.652c-0.447,0.802-0.905,1.493-1.376,2.072s-0.947,1.031-1.43,1.357
	c-0.482,0.325-0.966,0.488-1.448,0.488c-0.169,0-0.316-0.13-0.443-0.389c-0.127-0.26-0.232-0.609-0.316-1.05
	c-0.085-0.44-0.154-0.953-0.208-1.539c-0.055-0.585-0.097-1.203-0.127-1.854c-0.03-0.652-0.052-1.321-0.063-2.01
	c-0.012-0.688-0.018-1.357-0.018-2.009L175.708,57.921z"/>
<path fill="#FFFFFF" d="M210.349,62.377c-0.278,0.391-0.649,0.849-1.113,1.373c-0.465,0.524-0.986,1.025-1.565,1.501
	s-1.201,0.878-1.864,1.208c-0.664,0.329-1.328,0.494-1.991,0.494c-0.802,0-1.47-0.254-2.005-0.762s-0.997-1.245-1.387-2.213
	c-0.292,0.335-0.651,0.675-1.076,1.021c-0.426,0.347-0.892,0.66-1.396,0.94c-0.505,0.28-1.031,0.511-1.579,0.689
	c-0.547,0.18-1.095,0.269-1.642,0.269c-0.579,0-1.144-0.118-1.692-0.356c-0.549-0.236-1.034-0.577-1.457-1.021
	c-0.422-0.444-0.76-0.986-1.014-1.626c-0.253-0.639-0.38-1.36-0.38-2.163c0-0.901,0.127-1.828,0.383-2.777
	c0.255-0.95,0.649-1.978,1.184-3.084c0.533-1.106,1.107-2.063,1.72-2.868c0.613-0.806,1.284-1.509,2.013-2.109
	c0.728-0.602,1.495-1.079,2.303-1.435c0.807-0.354,1.629-0.532,2.467-0.532c0.279,0,0.498,0.056,0.655,0.165
	c0.158,0.109,0.289,0.234,0.392,0.375c0.104,0.141,0.203,0.277,0.301,0.411c0.097,0.135,0.218,0.231,0.364,0.293
	c0.146,0.062,0.294,0.101,0.445,0.119c0.152,0.018,0.307,0.027,0.465,0.027c0.134,0,0.27-0.003,0.409-0.01
	c0.14-0.006,0.276-0.009,0.41-0.009c0.182,0,0.352,0.019,0.51,0.055c0.158,0.037,0.297,0.116,0.418,0.238s0.215,0.292,0.281,0.512
	s0.1,0.519,0.1,0.896c0,0.576-0.061,1.217-0.181,1.919c-0.121,0.703-0.26,1.424-0.415,2.161c-0.155,0.738-0.333,1.579-0.532,2.523
	s-0.299,1.74-0.299,2.387c0,0.553,0.052,0.985,0.154,1.297c0.102,0.312,0.322,0.468,0.66,0.468c0.254,0,0.519-0.063,0.797-0.188
	c0.277-0.126,0.558-0.29,0.841-0.493c0.284-0.203,0.567-0.434,0.851-0.69c0.284-0.258,0.553-0.523,0.806-0.799
	c0.591-0.646,1.188-1.376,1.792-2.189L210.349,62.377z M194.822,60.96c0,0.311,0.021,0.612,0.063,0.905
	c0.042,0.292,0.117,0.554,0.227,0.783c0.108,0.23,0.254,0.417,0.435,0.561c0.182,0.143,0.411,0.215,0.689,0.215
	c0.446,0,0.852-0.194,1.214-0.583c0.363-0.389,0.678-0.856,0.943-1.403s0.48-1.111,0.644-1.694s0.269-1.069,0.317-1.458l1.35-5.884
	c-0.495,0-0.978,0.122-1.448,0.368c-0.47,0.245-0.914,0.577-1.33,0.995c-0.416,0.419-0.799,0.897-1.149,1.436
	c-0.35,0.538-0.693,1.202-1.031,1.991c-0.338,0.79-0.576,1.483-0.715,2.081C194.891,59.871,194.822,60.434,194.822,60.96z"/>
<path fill="#FFFFFF" d="M215.98,67.17l0.398-2.188c-0.652,0.573-1.331,1.035-2.036,1.388c-0.706,0.353-1.392,0.528-2.055,0.528
	c-0.579,0-1.144-0.117-1.692-0.353s-1.034-0.573-1.457-1.014c-0.422-0.44-0.76-0.978-1.014-1.611
	c-0.253-0.633-0.38-1.348-0.38-2.145c0-1.05,0.072-2.012,0.217-2.887c0.145-0.874,0.323-1.954,0.535-3.239s0.463-2.299,0.752-3.041
	c0.29-0.742,0.622-1.493,0.995-2.253c0.277-0.543,0.676-0.957,1.194-1.24s1.025-0.426,1.52-0.426c0.422,0,0.784,0.106,1.086,0.317
	c0.301,0.211,0.452,0.54,0.452,0.987c0,0.133-0.015,0.277-0.044,0.435c-0.03,0.157-0.08,0.325-0.151,0.507
	c-0.213,0.556-0.394,1.216-0.54,1.98s-0.342,1.785-0.586,3.06c-0.244,1.275-0.438,2.286-0.581,3.033s-0.215,1.414-0.215,1.999
	c0,0.305,0.021,0.601,0.063,0.888c0.042,0.286,0.117,0.542,0.226,0.768s0.254,0.409,0.435,0.549c0.181,0.141,0.41,0.211,0.688,0.211
	c0.446,0,0.851-0.194,1.213-0.583c0.362-0.39,0.676-0.857,0.941-1.404c0.265-0.547,0.479-1.111,0.643-1.694
	c0.163-0.584,0.269-1.069,0.316-1.459l1.45-6.769c0.085-0.398,0.254-0.76,0.508-1.086c0.241-0.313,0.525-0.582,0.852-0.806
	c0.327-0.224,0.665-0.39,1.016-0.498s0.683-0.163,0.997-0.163c0.374,0,0.688,0.082,0.942,0.245s0.381,0.42,0.381,0.77
	c0,0.109-0.019,0.236-0.055,0.381c-0.057,0.321-0.132,0.753-0.227,1.294s-0.202,1.157-0.322,1.847
	c-0.121,0.69-0.289,1.658-0.506,2.903s-0.392,2.246-0.527,3.005c-0.306,1.791-0.617,3.715-0.935,5.772
	c0.366-0.205,0.762-0.458,1.186-0.759c0.424-0.302,0.896-0.706,1.414-1.212s1.098-1.143,1.737-1.908
	c0.64-0.765,1.357-1.721,2.154-2.866l0.869,4.028c-0.218,0.371-0.495,0.749-0.833,1.133c-0.362,0.407-0.748,0.803-1.158,1.187
	c-0.604,0.551-1.038,0.923-1.304,1.114c-0.084,0.06-0.524,0.406-1.32,1.039c-0.242,0.205-1.041,0.76-2.396,1.665
	c-0.331,0.217-0.557,0.612-0.679,1.185c-0.122,0.573-0.263,1.638-0.422,3.193c-0.069,0.444-0.112,0.786-0.13,1.026
	c-0.073,0.576-0.143,1.125-0.209,1.647c-0.066,0.521-0.183,1.117-0.352,1.787s-0.367,1.286-0.597,1.848
	c-0.229,0.561-0.529,1.119-0.902,1.675c-0.374,0.555-0.786,1.028-1.237,1.421c-0.452,0.392-0.997,0.709-1.635,0.95
	c-0.639,0.241-1.337,0.362-2.096,0.362c-0.614,0-1.184-0.069-1.707-0.208s-1.003-0.353-1.436-0.642
	c-0.434-0.289-0.789-0.685-1.066-1.185c-0.276-0.5-0.439-1.088-0.487-1.763c-0.097-1.277,0.253-2.627,1.05-4.05
	c0.446-0.796,0.76-1.347,0.941-1.654c0.181-0.308,0.464-0.75,0.851-1.329c0.386-0.566,0.79-1.078,1.212-1.536
	c0.845-0.952,1.542-1.718,2.091-2.296C214.565,68.453,215.219,67.833,215.98,67.17z M216.043,71.533
	c-0.846,0.603-1.681,1.568-2.502,2.896c-0.822,1.327-1.475,2.678-1.959,4.054c-0.398,1.158-0.2,1.737,0.597,1.737
	c0.289,0,0.549-0.036,0.778-0.109c0.229-0.072,0.44-0.202,0.633-0.389c0.193-0.188,0.362-0.393,0.507-0.615
	c0.146-0.224,0.299-0.537,0.462-0.941s0.308-0.803,0.435-1.194c0.126-0.393,0.286-0.914,0.479-1.565
	c0.108-0.351,0.189-0.74,0.241-1.169c0.053-0.431,0.116-0.946,0.189-1.549C215.976,72.085,216.023,71.7,216.043,71.533z"/>
</svg>
