<?xml version="1.0" encoding="utf-8"?>
<!-- Generator: Adobe Illustrator 15.1.0, SVG Export Plug-In  -->
<!DOCTYPE svg PUBLIC "-//W3C//DTD SVG 1.1//EN" "http://www.w3.org/Graphics/SVG/1.1/DTD/svg11.dtd" [
	<!ENTITY ns_flows "http://ns.adobe.com/Flows/1.0/">
]>
<svg version="1.1"
	 xmlns="http://www.w3.org/2000/svg" xmlns:xlink="http://www.w3.org/1999/xlink" xmlns:a="http://ns.adobe.com/AdobeSVGViewerExtensions/3.0/"
	 x="0px" y="0px" width="250px" height="100px" viewBox="-15.598 -11.28 250 100" enable-background="new -15.598 -11.28 250 100"
	 xml:space="preserve">
<defs>
</defs>
<g id="Forma_1_1_">
	<g>
		<path fill-rule="evenodd" clip-rule="evenodd" fill="#18545A" d="M85.478,48.402L76.572,30.59
			c-11.421,1.161-15.294,3.484-16.648,5.228c-0.194,0.387-0.968,1.354-0.194,3.678c1.742,6.002,0,10.068-1.741,12.391
			c-4.259,5.809-13.938,8.324-30.974,8.324c-5.227,0-8.905,1.162-10.066,2.904s-0.387,4.84,0,5.809h45.88
			c1.742,0,3.29-0.969,4.065-2.324c0.967-1.355,0.967-3.291,0.193-4.646l-3.098-6.389h16.842c1.742,0,3.291-0.969,4.065-2.322
			C86.252,51.693,86.252,49.951,85.478,48.402z M50.632,46.271c0.193-0.387,0.969-1.354,0.193-4.064
			c-1.549-5.422,0-9.294,1.549-11.616c3.098-4.647,9.292-7.357,19.939-8.906l-4.453-9.1c-0.773-1.743-2.516-2.71-4.451-2.71
			c-1.938,0-3.485,0.967-4.453,2.71l-7.938,16.069L38.436,2.71C37.662,0.969,35.919,0,33.983,0s-3.484,0.969-4.453,2.71
			L0.493,61.759c-0.774,1.549-0.581,3.291,0.193,4.84c0.969,1.355,2.517,2.324,4.065,2.324h2.71
			c-0.581-2.904-0.775-6.971,1.743-10.842c3.097-4.84,9.098-7.357,18.003-7.357C44.631,50.724,49.47,48.015,50.632,46.271z"/>
	</g>
</g>
<path fill="#18545A" d="M101.765,3.44c1.486,0,2.789,0.199,3.907,0.598c1.119,0.399,2.051,0.929,2.794,1.591
	c0.743,0.662,1.302,1.422,1.678,2.281s0.564,1.749,0.564,2.669c0,0.862-0.168,1.715-0.504,2.56c-0.337,0.844-0.843,1.623-1.52,2.335
	c-0.677,0.713-1.53,1.329-2.561,1.847c-1.031,0.519-2.24,0.884-3.63,1.095c-0.025,0.643-0.048,1.232-0.065,1.769
	c-0.009,0.229-0.018,0.458-0.026,0.687c-0.009,0.229-0.016,0.438-0.02,0.627c-0.005,0.189-0.009,0.354-0.014,0.495
	c-0.004,0.141-0.006,0.238-0.006,0.291c-0.019,0.616-0.091,1.255-0.219,1.917c-0.128,0.662-0.313,1.308-0.557,1.939
	c-0.242,0.631-0.538,1.229-0.887,1.795s-0.755,1.061-1.218,1.486c-0.464,0.425-0.982,0.762-1.556,1.013
	c-0.573,0.25-1.2,0.375-1.88,0.375c-0.721,0-1.364-0.187-1.932-0.56c-0.566-0.374-1.063-0.876-1.489-1.508
	c-0.427-0.632-0.787-1.361-1.081-2.186c-0.295-0.825-0.534-1.688-0.719-2.588s-0.318-1.806-0.402-2.719
	c-0.083-0.913-0.125-1.773-0.125-2.582c0-1.387,0.128-2.727,0.383-4.017c0.256-1.291,0.621-2.501,1.097-3.629
	s1.052-2.158,1.73-3.089c0.678-0.931,1.441-1.73,2.291-2.397s1.774-1.183,2.774-1.547C99.574,3.623,100.638,3.44,101.765,3.44z
	 M93.833,18.329c0,0.361,0.002,0.847,0.007,1.458c0.004,0.611,0.028,1.265,0.072,1.96c0.044,0.695,0.114,1.398,0.211,2.111
	c0.097,0.713,0.239,1.357,0.429,1.934c0.188,0.576,0.426,1.047,0.712,1.412c0.285,0.365,0.644,0.547,1.074,0.547
	c0.448,0,0.83-0.156,1.146-0.469s0.58-0.717,0.791-1.215c0.211-0.497,0.378-1.06,0.502-1.689c0.122-0.629,0.215-1.261,0.276-1.895
	c0.062-0.634,0.101-1.239,0.118-1.815s0.027-1.067,0.027-1.472v-0.621c-0.724-0.285-1.293-0.536-1.707-0.751
	c-0.414-0.216-0.726-0.423-0.935-0.622s-0.342-0.408-0.398-0.629c-0.057-0.22-0.085-0.478-0.085-0.771
	c0-0.163,0.004-0.323,0.013-0.48c0.009-0.158,0.033-0.298,0.072-0.42s0.096-0.221,0.17-0.298s0.176-0.115,0.307-0.115
	c0.088,0,0.168,0.019,0.242,0.055c0.074,0.037,0.168,0.087,0.281,0.151c0.287,0.165,0.549,0.299,0.784,0.405
	c0.235,0.105,0.436,0.189,0.601,0.253c0.192,0.073,0.366,0.128,0.523,0.165c0-0.115,0.002-0.344,0.006-0.687
	c0.005-0.342,0.031-0.733,0.08-1.172c0.049-0.44,0.131-0.899,0.246-1.379c0.114-0.479,0.283-0.919,0.505-1.319
	s0.509-0.731,0.863-0.993c0.354-0.262,0.793-0.394,1.316-0.394c0.158,0,0.32,0.016,0.487,0.046s0.318,0.088,0.455,0.172
	c0.136,0.084,0.25,0.196,0.342,0.338c0.093,0.141,0.139,0.322,0.139,0.543c0,0.063-0.002,0.104-0.007,0.127
	c-0.004,0.022-0.006,0.051-0.006,0.087l-0.803,3.431l-0.118,1.055c0.858-0.133,1.6-0.347,2.222-0.641
	c0.623-0.294,1.138-0.641,1.546-1.042c0.407-0.4,0.71-0.841,0.907-1.322s0.296-0.975,0.296-1.482c0-0.495-0.095-1-0.283-1.517
	s-0.516-0.987-0.981-1.411c-0.465-0.424-1.089-0.773-1.87-1.047c-0.781-0.273-1.766-0.411-2.95-0.411
	c-0.891,0-1.696,0.17-2.419,0.509c-0.723,0.339-1.365,0.8-1.93,1.381c-0.563,0.582-1.053,1.26-1.467,2.036s-0.756,1.602-1.024,2.479
	c-0.269,0.876-0.467,1.78-0.595,2.709S93.833,17.448,93.833,18.329z"/>
<path fill="#18545A" d="M123.113,24.207c-0.202,0.285-0.473,0.618-0.812,1c-0.338,0.382-0.718,0.747-1.14,1.093
	s-0.875,0.64-1.358,0.88c-0.483,0.24-0.967,0.36-1.45,0.36c-0.584,0-1.07-0.185-1.46-0.555c-0.391-0.37-0.727-0.907-1.011-1.611
	c-0.212,0.243-0.474,0.491-0.784,0.744c-0.31,0.252-0.648,0.48-1.017,0.685c-0.367,0.204-0.75,0.372-1.149,0.502
	c-0.398,0.131-0.797,0.196-1.196,0.196c-0.422,0-0.832-0.086-1.232-0.259c-0.399-0.173-0.754-0.421-1.061-0.745
	c-0.309-0.324-0.555-0.718-0.738-1.184c-0.186-0.465-0.277-0.991-0.277-1.576c0-0.657,0.093-1.332,0.278-2.023
	c0.186-0.691,0.474-1.44,0.862-2.246c0.389-0.806,0.807-1.502,1.253-2.089c0.446-0.586,0.936-1.099,1.466-1.537
	s1.09-0.786,1.678-1.044s1.187-0.388,1.797-0.388c0.203,0,0.362,0.04,0.478,0.12c0.115,0.08,0.21,0.171,0.285,0.273
	s0.147,0.202,0.219,0.3c0.07,0.098,0.159,0.168,0.266,0.213c0.105,0.045,0.214,0.074,0.324,0.087s0.224,0.02,0.339,0.02
	c0.097,0,0.196-0.002,0.298-0.007s0.201-0.007,0.299-0.007c0.133,0,0.256,0.014,0.371,0.04c0.115,0.027,0.217,0.084,0.305,0.173
	s0.156,0.213,0.205,0.373c0.048,0.16,0.072,0.377,0.072,0.653c0,0.42-0.044,0.886-0.132,1.398c-0.088,0.512-0.188,1.037-0.302,1.574
	c-0.114,0.538-0.243,1.15-0.389,1.838c-0.145,0.688-0.217,1.268-0.217,1.739c0,0.403,0.037,0.718,0.111,0.945
	c0.075,0.227,0.235,0.34,0.481,0.34c0.185,0,0.378-0.046,0.58-0.137s0.406-0.211,0.613-0.359c0.206-0.148,0.413-0.315,0.619-0.503
	c0.207-0.188,0.402-0.381,0.587-0.582c0.431-0.47,0.866-1.002,1.306-1.594L123.113,24.207z M111.803,23.174
	c0,0.227,0.016,0.447,0.046,0.66c0.031,0.213,0.086,0.403,0.165,0.571c0.079,0.168,0.186,0.304,0.317,0.408
	c0.132,0.104,0.299,0.156,0.502,0.156c0.325,0,0.62-0.142,0.885-0.425c0.264-0.283,0.493-0.624,0.687-1.022
	c0.193-0.398,0.35-0.81,0.469-1.234s0.196-0.778,0.231-1.062l0.983-4.286c-0.361,0-0.713,0.089-1.055,0.268
	c-0.344,0.179-0.666,0.42-0.97,0.725c-0.303,0.305-0.582,0.653-0.837,1.045c-0.255,0.393-0.506,0.876-0.752,1.451
	c-0.246,0.575-0.419,1.08-0.521,1.516C111.854,22.381,111.803,22.791,111.803,23.174z"/>
<path fill="#18545A" d="M133.014,24.521c-0.845,0.492-1.597,0.923-2.257,1.292s-1.248,0.677-1.763,0.923s-0.973,0.431-1.373,0.554
	s-0.764,0.185-1.089,0.185c-0.665,0-1.25-0.202-1.757-0.606c-0.508-0.404-0.932-0.986-1.272-1.747
	c-0.341-0.76-0.597-1.681-0.767-2.762c-0.171-1.081-0.256-2.298-0.256-3.652c0-0.527,0.021-1.09,0.065-1.688
	c0.043-0.598,0.104-1.191,0.183-1.78c-0.266-0.039-0.471-0.076-0.617-0.11c-0.146-0.034-0.301-0.069-0.464-0.103
	c-0.164-0.034-0.372-0.071-0.624-0.11s-0.617-0.088-1.095-0.147c-0.213-0.029-0.376-0.085-0.491-0.168s-0.199-0.181-0.252-0.293
	c-0.054-0.112-0.084-0.23-0.094-0.353c-0.008-0.122-0.013-0.227-0.013-0.315c0-0.139,0.086-0.244,0.259-0.317
	c0.172-0.073,0.393-0.127,0.662-0.164c0.27-0.036,0.565-0.057,0.888-0.062c0.323-0.004,0.632-0.002,0.928,0.007
	s0.562,0.016,0.796,0.02c0.233,0.005,0.395-0.002,0.483-0.02c0.236-1.183,0.537-2.329,0.901-3.438
	c0.364-1.109,0.771-2.095,1.224-2.958s0.945-1.556,1.48-2.077s1.097-0.782,1.685-0.782c0.379,0,0.724,0.105,1.036,0.316
	c0.312,0.21,0.578,0.492,0.798,0.843s0.39,0.762,0.508,1.231c0.119,0.47,0.178,0.959,0.178,1.468c0,0.422-0.062,0.867-0.185,1.335
	c-0.123,0.469-0.29,0.946-0.501,1.432s-0.459,0.978-0.745,1.477c-0.285,0.499-0.587,0.993-0.903,1.483
	c0.079-0.029,0.212-0.035,0.396-0.017c0.185,0.018,0.397,0.03,0.64,0.037c0.241,0.007,0.503,0.014,0.784,0.021
	c0.281,0.007,0.554,0.015,0.817,0.024s0.51,0.018,0.738,0.026s0.417,0.018,0.567,0.026c0.175,0.01,0.303,0.108,0.382,0.293
	c0.079,0.186,0.118,0.421,0.118,0.705c0,0.328-0.088,0.596-0.264,0.802c-0.176,0.207-0.369,0.31-0.581,0.31h-5.067
	c-0.256,0.352-0.515,0.697-0.775,1.035c-0.26,0.338-0.501,0.644-0.721,0.916c-0.036,0.545-0.066,1.081-0.093,1.608
	c-0.009,0.229-0.018,0.464-0.026,0.705c-0.009,0.242-0.018,0.481-0.026,0.719s-0.016,0.466-0.02,0.686
	c-0.005,0.22-0.007,0.422-0.007,0.606c0,0.475,0.044,0.875,0.132,1.2c0.089,0.325,0.217,0.591,0.385,0.797
	c0.167,0.207,0.372,0.356,0.615,0.448c0.242,0.093,0.514,0.139,0.813,0.139c0.185,0,0.416-0.044,0.693-0.132
	c0.276-0.088,0.58-0.208,0.91-0.362s0.678-0.336,1.043-0.547c0.364-0.211,0.726-0.442,1.082-0.692
	c0.356-0.251,0.697-0.515,1.022-0.791c0.325-0.277,0.62-0.561,0.884-0.851V24.521z M128.795,7.826c0-0.096-0.006-0.203-0.02-0.321
	c-0.013-0.119-0.042-0.23-0.086-0.335s-0.112-0.192-0.205-0.263c-0.093-0.07-0.223-0.105-0.391-0.105
	c-0.229,0-0.461,0.201-0.694,0.602c-0.234,0.401-0.459,0.914-0.676,1.538c-0.216,0.624-0.419,1.312-0.608,2.062
	c-0.189,0.75-0.364,1.479-0.522,2.186c0.132,0.013,0.265,0.024,0.396,0.034c0.133,0.01,0.27,0.021,0.41,0.034
	c0.265-0.443,0.541-0.922,0.827-1.439c0.287-0.517,0.545-1.025,0.774-1.524c0.229-0.499,0.419-0.966,0.569-1.4
	C128.721,8.46,128.795,8.104,128.795,7.826z"/>
<path fill="#18545A" d="M140.016,24.666c-0.316,0.29-0.71,0.6-1.18,0.929c-0.471,0.33-0.979,0.633-1.523,0.91
	c-0.545,0.276-1.101,0.507-1.667,0.692c-0.567,0.185-1.105,0.277-1.615,0.277c-0.457,0-0.842-0.063-1.153-0.191
	c-0.313-0.127-0.565-0.305-0.758-0.534c-0.194-0.229-0.332-0.507-0.416-0.837c-0.083-0.329-0.125-0.692-0.125-1.087
	c0-0.554,0.062-1.2,0.185-1.938c0.253-1.527,0.416-2.385,0.488-2.573c0.12-0.375,0.359-1.207,0.719-2.495
	c0.334-1.05,0.54-1.733,0.618-2.05c0.043-0.222,0.164-0.422,0.363-0.6c0.181-0.16,0.386-0.291,0.614-0.394
	c0.229-0.102,0.467-0.177,0.713-0.227c0.246-0.049,0.469-0.073,0.667-0.073c0.362,0,0.608,0.068,0.738,0.204
	c0.13,0.137,0.194,0.319,0.194,0.547c0,0.193-0.045,0.467-0.136,0.82c-0.09,0.353-0.192,0.755-0.309,1.207
	c-0.115,0.452-0.286,1.032-0.513,1.742c-0.227,0.709-0.381,1.315-0.464,1.815c-0.083,0.501-0.188,0.999-0.314,1.493
	c-0.126,0.495-0.189,0.944-0.189,1.348c0,0.396,0.044,0.709,0.132,0.942s0.268,0.349,0.54,0.349c0.316,0,0.668-0.11,1.055-0.33
	s0.778-0.485,1.174-0.797s0.782-0.635,1.16-0.969s0.712-0.62,1.002-0.857V24.666z M134.123,10.831c0-0.204,0.043-0.435,0.131-0.692
	c0.088-0.257,0.231-0.5,0.429-0.726c0.198-0.226,0.462-0.417,0.791-0.572c0.33-0.155,0.74-0.233,1.233-0.233
	c0.307,0,0.597,0.036,0.869,0.106c0.272,0.071,0.51,0.18,0.713,0.326c0.201,0.146,0.362,0.339,0.48,0.579
	c0.119,0.24,0.178,0.523,0.178,0.852c0,0.302-0.048,0.595-0.145,0.878c-0.097,0.284-0.25,0.537-0.461,0.759
	s-0.478,0.401-0.798,0.539c-0.321,0.138-0.706,0.206-1.153,0.206c-0.774,0-1.346-0.184-1.715-0.552S134.123,11.443,134.123,10.831z"
	/>
<path fill="#18545A" d="M143.515,27.474c-0.82,0-1.538-0.152-2.154-0.456c-0.615-0.304-1.128-0.713-1.538-1.228
	c-0.411-0.514-0.719-1.109-0.924-1.785s-0.308-1.384-0.308-2.127c0-0.486,0.092-1.064,0.275-1.737s0.374-1.269,0.57-1.79
	s0.443-1.017,0.741-1.49c0.297-0.473,0.645-0.889,1.042-1.249c0.398-0.36,0.844-0.646,1.338-0.859s1.042-0.319,1.646-0.319
	c0.493,0,0.95,0.079,1.372,0.237c0.423,0.158,0.79,0.379,1.103,0.665c0.313,0.286,0.557,0.63,0.732,1.034s0.264,0.856,0.264,1.356
	c0,0.533-0.178,1.13-0.535,1.792c-0.356,0.662-0.772,1.229-1.248,1.702s-1.042,0.894-1.697,1.263
	c-0.656,0.37-1.368,0.658-2.134,0.864c0.132,0.232,0.263,0.426,0.39,0.581c0.128,0.155,0.259,0.275,0.391,0.361
	c0.133,0.086,0.271,0.146,0.417,0.181c0.146,0.034,0.302,0.051,0.47,0.051c0.527,0,1.083-0.103,1.668-0.31
	c0.584-0.206,1.153-0.464,1.707-0.773c0.554-0.309,1.076-0.646,1.569-1.012c0.492-0.365,0.909-0.711,1.252-1.038l1.701,1.727
	c-0.773,0.824-1.596,1.553-2.466,2.186c-0.378,0.271-0.784,0.539-1.22,0.801c-0.435,0.262-0.892,0.496-1.371,0.699
	c-0.479,0.204-0.976,0.366-1.489,0.489C144.563,27.413,144.043,27.474,143.515,27.474z M141.755,21.195
	c0.317,0,0.664-0.079,1.039-0.238c0.375-0.159,0.723-0.363,1.045-0.612c0.322-0.249,0.638-0.584,0.946-1.005
	s0.463-0.769,0.463-1.044c0-0.386-0.072-0.705-0.218-0.954c-0.146-0.25-0.324-0.374-0.536-0.374c-0.379,0-0.704,0.069-0.973,0.207
	s-0.494,0.315-0.675,0.535s-0.326,0.468-0.437,0.748s-0.238,0.625-0.384,1.038c-0.146,0.412-0.228,0.752-0.245,1.018
	C141.764,20.778,141.755,21.006,141.755,21.195z"/>
<path fill="#18545A" d="M149.033,24.719c0-0.58,0.035-1.25,0.105-2.01s0.158-1.596,0.264-2.505c0.105-0.91,0.225-1.729,0.355-2.459
	c0.133-0.729,0.26-1.354,0.383-1.872c0.097-0.404,0.283-0.743,0.561-1.015c0.276-0.272,0.652-0.409,1.127-0.409
	s0.805,0.145,0.988,0.435c0.186,0.29,0.277,0.677,0.277,1.16c0,0.132-0.014,0.31-0.039,0.534c-0.027,0.225-0.06,0.471-0.1,0.738
	c-0.039,0.269-0.081,0.545-0.125,0.831s-0.086,0.611-0.125,0.976c-0.04,0.365-0.072,0.637-0.1,0.817
	c-0.025,0.18-0.039,0.301-0.039,0.362h0.264c0.053-0.097,0.136-0.252,0.25-0.468s0.246-0.525,0.396-0.93
	c0.148-0.404,0.31-0.762,0.48-1.074c0.172-0.312,0.332-0.611,0.481-0.896s0.285-0.539,0.409-0.758
	c0.122-0.22,0.215-0.382,0.276-0.488c0.281-0.475,0.602-0.8,0.962-0.976s0.761-0.264,1.2-0.264s0.789,0.185,1.048,0.554
	c0.26,0.369,0.389,0.879,0.389,1.529c0,0.097-0.02,0.259-0.059,0.488c-0.04,0.229-0.091,0.501-0.152,0.817s-0.129,0.725-0.204,1.226
	c-0.074,0.501-0.143,0.949-0.204,1.345s-0.112,0.787-0.151,1.173c-0.04,0.387-0.06,0.743-0.06,1.068
	c0,0.545,0.068,0.993,0.204,1.345c0.137,0.352,0.35,0.527,0.64,0.527c0.105,0,0.255-0.04,0.448-0.119
	c0.29-0.105,0.475-0.198,0.554-0.277c0.387-0.299,0.589-0.444,0.606-0.435c0.026,0.009,0.32-0.167,0.884-0.527
	c0.702-0.448,1.542-0.998,2.518-1.648l-0.014,2.953l-0.658,0.501c-0.053,0.044-0.467,0.272-1.24,0.686
	c-1.116,0.598-1.814,0.958-2.096,1.081c-0.686,0.308-1.112,0.483-1.279,0.527c-0.439,0.141-0.9,0.211-1.384,0.211
	s-0.89-0.35-1.22-1.048c-0.329-0.699-0.494-1.721-0.494-3.065c0-0.527,0.035-1.096,0.105-1.707s0.158-1.268,0.264-1.971h-0.211
	l-3.454,6.855c-0.185,0.369-0.382,0.615-0.593,0.738c-0.221,0.132-0.475,0.198-0.766,0.198c-0.36,0-0.65-0.077-0.869-0.23
	c-0.221-0.154-0.39-0.36-0.508-0.62c-0.119-0.259-0.198-0.554-0.237-0.883C149.053,25.411,149.033,25.07,149.033,24.719z"/>
<path fill="#18545A" d="M172.775,24.521c-0.845,0.492-1.597,0.923-2.257,1.292s-1.248,0.677-1.763,0.923s-0.973,0.431-1.373,0.554
	s-0.764,0.185-1.089,0.185c-0.665,0-1.25-0.202-1.757-0.606c-0.508-0.404-0.932-0.986-1.272-1.747
	c-0.341-0.76-0.597-1.681-0.767-2.762c-0.171-1.081-0.256-2.298-0.256-3.652c0-0.527,0.021-1.09,0.065-1.688
	c0.043-0.598,0.104-1.191,0.183-1.78c-0.266-0.039-0.471-0.076-0.617-0.11c-0.146-0.034-0.301-0.069-0.464-0.103
	c-0.164-0.034-0.372-0.071-0.624-0.11s-0.617-0.088-1.095-0.147c-0.213-0.029-0.376-0.085-0.491-0.168s-0.199-0.181-0.252-0.293
	c-0.054-0.112-0.084-0.23-0.094-0.353c-0.008-0.122-0.013-0.227-0.013-0.315c0-0.139,0.086-0.244,0.259-0.317
	c0.172-0.073,0.393-0.127,0.662-0.164c0.27-0.036,0.565-0.057,0.888-0.062c0.323-0.004,0.632-0.002,0.928,0.007
	s0.562,0.016,0.796,0.02c0.233,0.005,0.395-0.002,0.483-0.02c0.236-1.183,0.537-2.329,0.901-3.438
	c0.364-1.109,0.771-2.095,1.224-2.958s0.945-1.556,1.48-2.077s1.097-0.782,1.685-0.782c0.379,0,0.724,0.105,1.036,0.316
	c0.312,0.21,0.578,0.492,0.798,0.843s0.39,0.762,0.508,1.231c0.119,0.47,0.178,0.959,0.178,1.468c0,0.422-0.062,0.867-0.185,1.335
	c-0.123,0.469-0.29,0.946-0.501,1.432s-0.459,0.978-0.745,1.477c-0.285,0.499-0.587,0.993-0.903,1.483
	c0.079-0.029,0.212-0.035,0.396-0.017c0.185,0.018,0.397,0.03,0.64,0.037c0.241,0.007,0.503,0.014,0.784,0.021
	c0.281,0.007,0.554,0.015,0.817,0.024s0.51,0.018,0.738,0.026s0.417,0.018,0.567,0.026c0.175,0.01,0.303,0.108,0.382,0.293
	c0.079,0.186,0.118,0.421,0.118,0.705c0,0.328-0.088,0.596-0.264,0.802c-0.176,0.207-0.369,0.31-0.581,0.31h-5.067
	c-0.256,0.352-0.515,0.697-0.775,1.035c-0.26,0.338-0.501,0.644-0.721,0.916c-0.036,0.545-0.066,1.081-0.093,1.608
	c-0.009,0.229-0.018,0.464-0.026,0.705c-0.009,0.242-0.018,0.481-0.026,0.719s-0.016,0.466-0.02,0.686
	c-0.005,0.22-0.007,0.422-0.007,0.606c0,0.475,0.044,0.875,0.132,1.2c0.089,0.325,0.217,0.591,0.385,0.797
	c0.167,0.207,0.372,0.356,0.615,0.448c0.242,0.093,0.514,0.139,0.813,0.139c0.185,0,0.416-0.044,0.693-0.132
	c0.276-0.088,0.58-0.208,0.91-0.362s0.678-0.336,1.043-0.547c0.364-0.211,0.726-0.442,1.082-0.692
	c0.356-0.251,0.697-0.515,1.022-0.791c0.325-0.277,0.62-0.561,0.884-0.851V24.521z M168.557,7.826c0-0.096-0.006-0.203-0.02-0.321
	c-0.013-0.119-0.042-0.23-0.086-0.335s-0.112-0.192-0.205-0.263c-0.093-0.07-0.223-0.105-0.391-0.105
	c-0.229,0-0.461,0.201-0.694,0.602c-0.234,0.401-0.459,0.914-0.676,1.538c-0.216,0.624-0.419,1.312-0.608,2.062
	c-0.189,0.75-0.364,1.479-0.522,2.186c0.132,0.013,0.265,0.024,0.396,0.034c0.133,0.01,0.27,0.021,0.41,0.034
	c0.265-0.443,0.541-0.922,0.827-1.439c0.287-0.517,0.545-1.025,0.774-1.524c0.229-0.499,0.419-0.966,0.569-1.4
	C168.482,8.46,168.557,8.104,168.557,7.826z"/>
<path fill="#18545A" d="M105.513,30.319c1.927,0,3.615,0.258,5.066,0.775c1.45,0.517,2.657,1.205,3.62,2.063
	c0.964,0.858,1.688,1.843,2.176,2.958c0.487,1.113,0.731,2.267,0.731,3.459c0,1.118-0.218,2.224-0.653,3.318
	c-0.437,1.095-1.093,2.104-1.97,3.027s-1.984,1.722-3.319,2.395c-1.336,0.673-2.904,1.146-4.705,1.42
	c-0.033,0.832-0.063,1.597-0.085,2.293c-0.012,0.297-0.023,0.593-0.034,0.89c-0.012,0.297-0.021,0.567-0.025,0.813
	c-0.006,0.246-0.012,0.46-0.018,0.643s-0.008,0.308-0.008,0.376c-0.023,0.799-0.118,1.627-0.284,2.485
	c-0.165,0.857-0.406,1.695-0.721,2.514s-0.697,1.594-1.149,2.327c-0.452,0.732-0.979,1.375-1.579,1.926s-1.272,0.988-2.017,1.313
	c-0.743,0.324-1.556,0.486-2.437,0.486c-0.935,0-1.769-0.242-2.504-0.726c-0.734-0.484-1.379-1.136-1.931-1.955
	c-0.553-0.819-1.021-1.764-1.401-2.834c-0.382-1.069-0.692-2.188-0.932-3.354c-0.239-1.166-0.413-2.341-0.521-3.524
	s-0.162-2.299-0.162-3.347c0-1.798,0.165-3.534,0.496-5.208c0.331-1.673,0.805-3.241,1.422-4.704
	c0.616-1.463,1.363-2.797,2.242-4.004c0.879-1.207,1.869-2.243,2.971-3.108s2.301-1.534,3.596-2.006
	C102.674,30.556,104.052,30.319,105.513,30.319z M95.231,49.62c0,0.468,0.003,1.098,0.009,1.89c0.005,0.793,0.036,1.64,0.094,2.541
	c0.057,0.9,0.147,1.813,0.273,2.736c0.125,0.924,0.311,1.759,0.556,2.506c0.244,0.747,0.552,1.357,0.923,1.831
	c0.37,0.473,0.834,0.71,1.393,0.71c0.581,0,1.076-0.203,1.486-0.608c0.41-0.404,0.752-0.93,1.025-1.574s0.49-1.375,0.65-2.19
	c0.159-0.815,0.278-1.635,0.358-2.456c0.079-0.821,0.131-1.605,0.153-2.354c0.023-0.747,0.035-1.383,0.035-1.908v-0.804
	c-0.938-0.37-1.676-0.694-2.212-0.975c-0.537-0.28-0.94-0.549-1.212-0.807s-0.443-0.529-0.517-0.814c-0.074-0.286-0.11-0.619-0.11-1
	c0-0.211,0.006-0.418,0.017-0.623c0.012-0.205,0.043-0.386,0.094-0.544s0.124-0.287,0.22-0.387c0.096-0.099,0.229-0.149,0.398-0.149
	c0.113,0,0.218,0.024,0.313,0.071c0.096,0.048,0.218,0.113,0.364,0.195c0.372,0.214,0.711,0.389,1.017,0.524
	c0.305,0.137,0.564,0.246,0.779,0.329c0.248,0.095,0.474,0.166,0.678,0.214c0-0.15,0.003-0.446,0.008-0.891
	c0.006-0.443,0.04-0.949,0.104-1.52s0.169-1.166,0.318-1.788s0.368-1.192,0.655-1.71c0.287-0.519,0.66-0.947,1.119-1.287
	c0.46-0.34,1.028-0.51,1.706-0.51c0.205,0,0.416,0.02,0.632,0.06c0.217,0.04,0.413,0.115,0.59,0.224
	c0.176,0.108,0.324,0.255,0.443,0.438c0.12,0.184,0.18,0.418,0.18,0.704c0,0.081-0.003,0.136-0.009,0.165
	c-0.006,0.028-0.008,0.066-0.008,0.112l-1.04,4.447l-0.153,1.367c1.113-0.173,2.073-0.45,2.881-0.831
	c0.807-0.381,1.474-0.831,2.003-1.35c0.528-0.52,0.92-1.091,1.176-1.715c0.256-0.623,0.384-1.264,0.384-1.921
	c0-0.642-0.123-1.297-0.367-1.967s-0.669-1.279-1.271-1.829c-0.604-0.549-1.412-1.001-2.425-1.357
	c-1.014-0.354-2.288-0.532-3.825-0.532c-1.153,0-2.198,0.22-3.135,0.66c-0.937,0.44-1.771,1.036-2.501,1.791
	c-0.731,0.754-1.365,1.633-1.902,2.639c-0.536,1.005-0.979,2.076-1.327,3.212c-0.349,1.137-0.605,2.308-0.771,3.513
	C95.314,47.303,95.231,48.477,95.231,49.62z"/>
<path fill="#18545A" d="M133.187,57.239c-0.262,0.369-0.612,0.801-1.051,1.297c-0.438,0.495-0.932,0.968-1.479,1.417
	s-1.134,0.829-1.76,1.141c-0.627,0.311-1.254,0.467-1.88,0.467c-0.757,0-1.388-0.24-1.894-0.72
	c-0.505-0.479-0.941-1.176-1.309-2.089c-0.276,0.315-0.615,0.637-1.017,0.964c-0.402,0.327-0.842,0.623-1.318,0.889
	c-0.477,0.265-0.974,0.481-1.49,0.65c-0.517,0.17-1.033,0.254-1.551,0.254c-0.547,0-1.079-0.112-1.598-0.336
	c-0.519-0.225-0.977-0.546-1.375-0.966c-0.399-0.419-0.719-0.931-0.957-1.534c-0.24-0.604-0.359-1.284-0.359-2.043
	c0-0.852,0.12-1.726,0.361-2.623c0.24-0.896,0.613-1.867,1.117-2.912c0.504-1.044,1.046-1.946,1.625-2.707
	c0.578-0.761,1.211-1.425,1.899-1.993c0.688-0.567,1.412-1.019,2.175-1.354c0.762-0.335,1.538-0.502,2.329-0.502
	c0.264,0,0.47,0.052,0.619,0.155s0.272,0.222,0.369,0.354c0.098,0.133,0.192,0.262,0.284,0.389s0.206,0.219,0.344,0.276
	s0.277,0.095,0.421,0.112s0.29,0.025,0.438,0.025c0.126,0,0.255-0.002,0.387-0.008s0.261-0.009,0.387-0.009
	c0.172,0,0.333,0.017,0.481,0.052c0.149,0.034,0.281,0.109,0.396,0.225s0.202,0.276,0.266,0.483
	c0.063,0.207,0.094,0.489,0.094,0.846c0,0.545-0.058,1.149-0.171,1.813c-0.114,0.664-0.245,1.345-0.392,2.041
	c-0.147,0.696-0.314,1.49-0.503,2.382c-0.188,0.893-0.282,1.644-0.282,2.255c0,0.521,0.049,0.93,0.146,1.225
	c0.097,0.294,0.305,0.441,0.624,0.441c0.239,0,0.489-0.06,0.752-0.179c0.262-0.118,0.526-0.273,0.795-0.465
	c0.268-0.192,0.535-0.41,0.803-0.652c0.268-0.243,0.521-0.495,0.761-0.755c0.558-0.609,1.122-1.299,1.691-2.066L133.187,57.239z
	 M118.525,55.901c0,0.293,0.02,0.578,0.06,0.854s0.111,0.522,0.215,0.74c0.103,0.218,0.239,0.394,0.41,0.528
	c0.171,0.136,0.388,0.203,0.65,0.203c0.422,0,0.805-0.184,1.147-0.551c0.342-0.367,0.639-0.809,0.89-1.324
	c0.251-0.517,0.454-1.05,0.608-1.601c0.153-0.551,0.254-1.009,0.299-1.376l1.275-5.556c-0.468,0-0.924,0.115-1.367,0.347
	c-0.445,0.231-0.863,0.545-1.257,0.94c-0.393,0.396-0.755,0.847-1.085,1.355c-0.331,0.508-0.655,1.135-0.975,1.881
	c-0.318,0.745-0.544,1.4-0.675,1.965S118.525,55.404,118.525,55.901z"/>
<path fill="#18545A" d="M146.021,57.646c-1.095,0.639-2.07,1.196-2.926,1.675s-1.617,0.878-2.285,1.196
	c-0.667,0.319-1.261,0.559-1.779,0.718c-0.52,0.16-0.99,0.239-1.412,0.239c-0.861,0-1.62-0.262-2.277-0.786
	c-0.657-0.523-1.207-1.278-1.649-2.265c-0.441-0.985-0.773-2.179-0.994-3.58s-0.331-2.979-0.331-4.734
	c0-0.684,0.028-1.412,0.085-2.188c0.056-0.774,0.135-1.543,0.236-2.307c-0.344-0.051-0.61-0.099-0.8-0.143s-0.39-0.089-0.602-0.133
	c-0.213-0.045-0.482-0.093-0.809-0.143c-0.327-0.051-0.801-0.114-1.42-0.19c-0.274-0.038-0.487-0.111-0.636-0.219
	c-0.149-0.108-0.258-0.234-0.327-0.381c-0.068-0.146-0.108-0.298-0.121-0.456c-0.011-0.159-0.017-0.295-0.017-0.409
	c0-0.18,0.112-0.317,0.335-0.411c0.224-0.095,0.51-0.166,0.859-0.213c0.349-0.048,0.732-0.074,1.15-0.08
	c0.418-0.005,0.819-0.002,1.203,0.009c0.383,0.012,0.727,0.021,1.03,0.025c0.304,0.006,0.513-0.002,0.627-0.025
	c0.308-1.533,0.696-3.019,1.169-4.456c0.472-1.438,1.001-2.715,1.586-3.834c0.586-1.119,1.226-2.016,1.92-2.692
	c0.693-0.676,1.421-1.014,2.184-1.014c0.49,0,0.938,0.137,1.342,0.41c0.405,0.273,0.75,0.638,1.035,1.093
	c0.285,0.456,0.504,0.988,0.658,1.596c0.153,0.609,0.23,1.244,0.23,1.903c0,0.547-0.079,1.124-0.239,1.73
	c-0.159,0.608-0.376,1.227-0.649,1.856s-0.596,1.268-0.966,1.914s-0.761,1.287-1.171,1.923c0.103-0.038,0.273-0.045,0.514-0.022
	c0.239,0.023,0.516,0.039,0.829,0.049c0.313,0.009,0.651,0.018,1.017,0.027c0.364,0.009,0.718,0.02,1.06,0.03
	c0.342,0.012,0.66,0.023,0.957,0.034c0.296,0.012,0.541,0.023,0.735,0.034c0.228,0.013,0.393,0.14,0.495,0.381
	c0.103,0.24,0.153,0.545,0.153,0.913c0,0.425-0.114,0.771-0.342,1.039c-0.229,0.268-0.479,0.401-0.753,0.401h-6.569
	c-0.332,0.456-0.667,0.903-1.005,1.342c-0.337,0.438-0.649,0.835-0.935,1.188c-0.046,0.707-0.086,1.401-0.12,2.085
	c-0.012,0.297-0.023,0.602-0.034,0.914c-0.012,0.313-0.023,0.624-0.034,0.932c-0.012,0.308-0.021,0.604-0.025,0.889
	c-0.006,0.285-0.009,0.547-0.009,0.786c0,0.615,0.058,1.134,0.172,1.555c0.114,0.422,0.28,0.767,0.497,1.034
	c0.218,0.269,0.483,0.462,0.798,0.581c0.314,0.12,0.666,0.18,1.056,0.18c0.239,0,0.538-0.057,0.897-0.171
	c0.359-0.113,0.753-0.271,1.181-0.47s0.878-0.436,1.352-0.709c0.473-0.273,0.94-0.573,1.402-0.897
	c0.462-0.325,0.904-0.667,1.326-1.025c0.422-0.359,0.804-0.727,1.146-1.103V57.646z M140.553,36.005
	c0-0.125-0.009-0.264-0.025-0.417c-0.018-0.153-0.055-0.298-0.111-0.434c-0.058-0.136-0.146-0.25-0.266-0.34
	s-0.289-0.136-0.507-0.136c-0.297,0-0.598,0.26-0.9,0.781c-0.303,0.52-0.595,1.184-0.875,1.993c-0.28,0.81-0.544,1.7-0.789,2.673
	c-0.246,0.973-0.472,1.917-0.678,2.833c0.171,0.018,0.343,0.032,0.515,0.045c0.171,0.013,0.349,0.027,0.531,0.044
	c0.344-0.574,0.701-1.195,1.073-1.865c0.371-0.67,0.706-1.328,1.003-1.976c0.298-0.647,0.544-1.253,0.738-1.815
	S140.553,36.365,140.553,36.005z"/>
<path fill="#18545A" d="M150.604,51.036c0.467-0.632,0.99-1.311,1.572-2.036c0.58-0.726,1.358-1.563,2.332-2.511
	c0.975-0.948,1.771-1.63,2.393-2.045c0.621-0.416,1.205-0.624,1.752-0.624c0.137,0,0.291,0.026,0.461,0.079
	c0.172,0.052,0.334,0.147,0.487,0.287c0.154,0.14,0.282,0.334,0.385,0.584c0.103,0.249,0.153,0.571,0.153,0.966
	c0,0.79-0.108,1.559-0.324,2.308c-0.217,0.749-0.627,1.658-1.23,2.726c-0.604,1.068-1.012,1.991-1.222,2.77
	c-0.211,0.778-0.316,1.591-0.316,2.438c0,0.464,0.068,0.836,0.205,1.114c0.137,0.279,0.313,0.418,0.53,0.418
	c0.273,0,0.563-0.058,0.871-0.173c0.308-0.114,0.615-0.265,0.923-0.448c0.308-0.185,0.609-0.395,0.905-0.631
	c0.297-0.235,0.575-0.48,0.838-0.733c0.626-0.587,1.241-1.254,1.846-2.003l0.291,4.55c-0.205,0.15-0.465,0.338-0.778,0.563
	s-0.661,0.462-1.042,0.714c-0.382,0.252-0.795,0.506-1.239,0.763s-0.892,0.484-1.342,0.682c-0.45,0.198-0.9,0.361-1.35,0.49
	c-0.45,0.128-0.88,0.192-1.29,0.192c-0.642,0-1.198-0.16-1.671-0.48c-0.472-0.32-0.859-0.728-1.163-1.222
	c-0.303-0.493-0.53-1.033-0.682-1.62c-0.152-0.586-0.228-1.14-0.228-1.661c0-0.368,0.05-0.779,0.151-1.234
	c0.101-0.454,0.225-0.912,0.373-1.372c0.148-0.461,0.314-0.909,0.498-1.347s0.355-0.828,0.516-1.174
	c0.16-0.345,0.3-0.627,0.418-0.846c0.119-0.219,0.195-0.346,0.231-0.38l-0.358-0.052c-0.194,0.124-0.521,0.439-0.983,0.946
	c-0.461,0.507-0.982,1.146-1.563,1.919c-0.581,0.771-1.183,1.64-1.803,2.603c-0.621,0.964-1.183,1.958-1.684,2.983
	c-0.251,0.508-0.456,0.949-0.615,1.327c-0.16,0.378-0.316,0.682-0.47,0.911c-0.154,0.23-0.322,0.404-0.505,0.521
	c-0.182,0.118-0.416,0.177-0.7,0.177c-0.376,0-0.673-0.102-0.889-0.305c-0.217-0.203-0.382-0.474-0.495-0.811
	c-0.114-0.337-0.188-0.72-0.223-1.147c-0.034-0.429-0.051-0.867-0.051-1.316c0-0.782,0.008-1.807,0.025-3.073
	c0.017-1.268,0.07-2.671,0.162-4.212c0.091-1.541,0.258-3.138,0.499-4.79s0.481-3.296,0.721-4.932
	c0.239-1.635,0.596-3.191,1.069-4.67c0.474-1.477,1.05-2.778,1.729-3.902s1.475-2.017,2.387-2.679
	c0.913-0.662,1.962-0.993,3.148-0.993c0.615,0,1.12,0.092,1.513,0.275c0.394,0.184,0.706,0.441,0.94,0.774
	c0.233,0.332,0.396,0.73,0.486,1.194c0.092,0.464,0.137,0.983,0.137,1.556c0,0.852-0.119,1.796-0.358,2.832
	c-0.239,1.035-0.556,2.112-0.948,3.229c-0.394,1.116-0.841,2.247-1.342,3.392c-0.502,1.146-1.015,2.256-1.538,3.332
	c-0.524,1.076-1.04,2.092-1.547,3.047s-0.954,1.795-1.341,2.521L150.604,51.036z M152.12,40.282
	c0.674-1.743,1.161-3.212,1.464-4.409c0.303-1.196,0.454-2.079,0.454-2.648c0-0.866-0.121-1.299-0.364-1.299
	c-0.297,0-0.735,0.484-1.316,1.452s-1.266,2.375-2.052,4.219c-0.193,0.627-0.373,1.276-0.538,1.947
	c-0.165,0.672-0.297,1.344-0.394,2.014s-0.191,1.329-0.285,1.977c-0.094,0.648-0.182,1.259-0.265,1.833
	c-0.25,1.353-0.441,2.676-0.574,3.971c0.309-0.718,0.646-1.498,1.011-2.341s0.725-1.678,1.078-2.503
	c0.354-0.826,0.688-1.606,1.002-2.342C151.655,41.418,151.915,40.794,152.12,40.282z"/>
<path fill="#18545A" d="M170.442,53.032c-0.329,1.242-0.718,2.379-1.166,3.409c-0.448,1.031-0.927,1.92-1.438,2.666
	c-0.511,0.747-1.038,1.328-1.582,1.743c-0.545,0.416-1.077,0.624-1.6,0.624c-0.861,0-1.494-0.655-1.897-1.965
	c-0.403-1.311-0.604-3.248-0.604-5.811c0-1.27,0-2.39,0-3.361s0.006-1.943,0.017-2.915c0.012-0.972,0.011-1.284-0.001-0.938
	c-0.013,0.348-0.023,0.668-0.034,0.962c-0.003,0.071-0.007,0.195-0.014,0.371c-0.006,0.175,0.037,0.088,0.13-0.261
	c0.092-0.349,0.216-0.711,0.37-1.089c0.153-0.377,0.351-0.72,0.591-1.029c0.241-0.31,0.524-0.565,0.851-0.768
	c0.327-0.203,0.719-0.305,1.175-0.305l0.443,0.034c0.542,0,0.958,0.1,1.248,0.297s0.435,0.46,0.435,0.788l-1.382,9.938l0.223-0.015
	c0.503-1.162,0.969-2.339,1.397-3.53s0.8-2.169,1.114-2.933c0.314-0.763,0.616-1.429,0.907-1.999
	c0.291-0.569,0.608-1.042,0.95-1.419c0.343-0.375,0.728-0.657,1.156-0.846c0.428-0.188,0.938-0.281,1.532-0.281
	c0.501,0,0.886,0.1,1.153,0.299s0.401,0.464,0.401,0.795l-1.589,9.929l0.257-0.015l4.255-9.812c0.137-0.319,0.433-0.601,0.889-0.846
	c0.455-0.245,0.997-0.368,1.624-0.368c0.648,0,1.173,0.134,1.572,0.401c0.398,0.269,0.598,0.613,0.598,1.034
	c0,0.319-0.055,0.661-0.162,1.025c-0.108,0.365-0.226,0.704-0.351,1.017c-0.126,0.313-0.245,0.581-0.358,0.804
	c-0.114,0.222-0.178,0.345-0.188,0.367c-0.251,0.456-0.51,0.991-0.777,1.606c-0.269,0.615-0.481,1.071-0.642,1.367
	c-0.193,0.342-0.364,0.661-0.512,0.957c0.159,0.444,0.364,0.844,0.615,1.196c0.216,0.297,0.483,0.57,0.803,0.82
	c0.318,0.251,0.701,0.376,1.145,0.376c0.377,0,0.81-0.1,1.299-0.299c0.49-0.199,0.951-0.425,1.385-0.675
	c0.513-0.285,1.036-0.609,1.572-0.975v4.123c-0.752,0.503-1.529,0.904-2.333,1.204c-0.803,0.3-1.575,0.449-2.315,0.449
	c-0.581,0-1.131-0.072-1.649-0.216s-0.974-0.37-1.367-0.682c-0.393-0.312-0.706-0.715-0.939-1.212
	c-0.234-0.496-0.356-1.098-0.368-1.804c-0.387,0.911-0.792,1.746-1.213,2.503c-0.422,0.758-0.854,1.41-1.299,1.957
	s-0.895,0.974-1.35,1.282c-0.456,0.307-0.912,0.461-1.367,0.461c-0.16,0-0.3-0.122-0.419-0.367c-0.12-0.245-0.22-0.575-0.3-0.991
	c-0.079-0.416-0.145-0.9-0.196-1.453c-0.051-0.552-0.091-1.136-0.119-1.751c-0.029-0.615-0.049-1.248-0.06-1.897
	c-0.012-0.649-0.018-1.282-0.018-1.897L170.442,53.032z"/>
<path fill="#18545A" d="M203.151,57.239c-0.262,0.369-0.612,0.801-1.051,1.297c-0.438,0.495-0.932,0.968-1.479,1.417
	s-1.134,0.829-1.76,1.141c-0.627,0.311-1.254,0.467-1.88,0.467c-0.757,0-1.388-0.24-1.894-0.72
	c-0.505-0.479-0.941-1.176-1.309-2.089c-0.276,0.315-0.615,0.637-1.017,0.964c-0.402,0.327-0.842,0.623-1.318,0.889
	c-0.477,0.265-0.974,0.481-1.49,0.65c-0.517,0.17-1.033,0.254-1.551,0.254c-0.547,0-1.079-0.112-1.598-0.336
	c-0.519-0.225-0.977-0.546-1.375-0.966c-0.399-0.419-0.719-0.931-0.957-1.534c-0.24-0.604-0.359-1.284-0.359-2.043
	c0-0.852,0.12-1.726,0.361-2.623c0.24-0.896,0.613-1.867,1.117-2.912c0.504-1.044,1.046-1.946,1.625-2.707
	c0.578-0.761,1.211-1.425,1.899-1.993c0.688-0.567,1.412-1.019,2.175-1.354c0.762-0.335,1.538-0.502,2.329-0.502
	c0.264,0,0.47,0.052,0.619,0.155s0.272,0.222,0.369,0.354c0.098,0.133,0.192,0.262,0.284,0.389s0.206,0.219,0.344,0.276
	s0.277,0.095,0.421,0.112s0.29,0.025,0.438,0.025c0.126,0,0.255-0.002,0.387-0.008s0.261-0.009,0.387-0.009
	c0.172,0,0.333,0.017,0.481,0.052c0.149,0.034,0.281,0.109,0.396,0.225s0.202,0.276,0.266,0.483
	c0.063,0.207,0.094,0.489,0.094,0.846c0,0.545-0.058,1.149-0.171,1.813c-0.114,0.664-0.245,1.345-0.392,2.041
	c-0.147,0.696-0.314,1.49-0.503,2.382c-0.188,0.893-0.282,1.644-0.282,2.255c0,0.521,0.049,0.93,0.146,1.225
	c0.097,0.294,0.305,0.441,0.624,0.441c0.239,0,0.489-0.06,0.752-0.179c0.262-0.118,0.526-0.273,0.795-0.465
	c0.268-0.192,0.535-0.41,0.803-0.652c0.268-0.243,0.521-0.495,0.761-0.755c0.558-0.609,1.122-1.299,1.691-2.066L203.151,57.239z
	 M188.49,55.901c0,0.293,0.02,0.578,0.06,0.854s0.111,0.522,0.215,0.74c0.103,0.218,0.239,0.394,0.41,0.528
	c0.171,0.136,0.388,0.203,0.65,0.203c0.422,0,0.805-0.184,1.147-0.551c0.342-0.367,0.639-0.809,0.89-1.324
	c0.251-0.517,0.454-1.05,0.608-1.601c0.153-0.551,0.254-1.009,0.299-1.376l1.275-5.556c-0.468,0-0.924,0.115-1.367,0.347
	c-0.445,0.231-0.863,0.545-1.257,0.94c-0.393,0.396-0.755,0.847-1.085,1.355c-0.331,0.508-0.655,1.135-0.975,1.881
	c-0.318,0.745-0.544,1.4-0.675,1.965S188.49,55.404,188.49,55.901z"/>
<path fill="#18545A" d="M208.469,61.764l0.377-2.065c-0.615,0.541-1.257,0.979-1.923,1.311c-0.667,0.333-1.313,0.499-1.94,0.499
	c-0.547,0-1.079-0.111-1.598-0.333c-0.519-0.223-0.977-0.541-1.375-0.957c-0.399-0.416-0.719-0.923-0.957-1.521
	c-0.24-0.598-0.359-1.273-0.359-2.025c0-0.99,0.068-1.899,0.205-2.725c0.136-0.826,0.305-1.846,0.505-3.06
	c0.2-1.213,0.437-2.17,0.71-2.871c0.273-0.7,0.587-1.41,0.94-2.128c0.262-0.513,0.638-0.902,1.127-1.171
	c0.49-0.268,0.968-0.401,1.436-0.401c0.398,0,0.74,0.1,1.024,0.3c0.284,0.199,0.428,0.51,0.428,0.932
	c0,0.125-0.015,0.262-0.042,0.41c-0.028,0.148-0.076,0.308-0.143,0.479c-0.202,0.524-0.372,1.148-0.51,1.87
	c-0.139,0.723-0.323,1.686-0.554,2.89s-0.414,2.158-0.549,2.864c-0.136,0.705-0.203,1.334-0.203,1.887
	c0,0.288,0.02,0.567,0.06,0.838s0.111,0.513,0.214,0.726s0.239,0.386,0.41,0.519c0.171,0.132,0.387,0.198,0.649,0.198
	c0.421,0,0.804-0.184,1.146-0.551s0.638-0.809,0.889-1.325c0.25-0.517,0.452-1.05,0.606-1.601c0.153-0.551,0.253-1.01,0.299-1.377
	l1.369-6.392c0.08-0.376,0.239-0.718,0.479-1.025c0.229-0.296,0.496-0.55,0.805-0.761c0.308-0.21,0.627-0.367,0.959-0.47
	c0.33-0.103,0.645-0.154,0.941-0.154c0.354,0,0.649,0.078,0.89,0.231c0.239,0.154,0.359,0.396,0.359,0.728
	c0,0.103-0.017,0.223-0.051,0.359c-0.054,0.303-0.125,0.71-0.214,1.222c-0.09,0.511-0.191,1.092-0.306,1.743
	c-0.113,0.652-0.272,1.565-0.477,2.741c-0.205,1.176-0.371,2.121-0.498,2.837c-0.289,1.691-0.583,3.509-0.883,5.451
	c0.346-0.193,0.719-0.432,1.119-0.717c0.4-0.284,0.846-0.666,1.336-1.144c0.489-0.479,1.036-1.079,1.641-1.802
	c0.604-0.723,1.281-1.625,2.033-2.707l0.82,3.804c-0.205,0.351-0.467,0.707-0.786,1.069c-0.342,0.385-0.706,0.759-1.094,1.121
	c-0.569,0.521-0.979,0.871-1.23,1.052c-0.08,0.057-0.495,0.384-1.247,0.981c-0.229,0.193-0.982,0.718-2.263,1.571
	c-0.313,0.205-0.525,0.578-0.641,1.119c-0.116,0.541-0.248,1.547-0.398,3.016c-0.065,0.419-0.106,0.742-0.123,0.969
	c-0.069,0.544-0.135,1.063-0.197,1.556s-0.173,1.056-0.332,1.688c-0.159,0.632-0.347,1.213-0.563,1.743
	c-0.217,0.53-0.501,1.058-0.854,1.582c-0.353,0.523-0.741,0.971-1.168,1.342c-0.427,0.37-0.94,0.669-1.544,0.897
	c-0.603,0.228-1.262,0.342-1.979,0.342c-0.579,0-1.117-0.065-1.611-0.196s-0.946-0.333-1.356-0.605
	c-0.409-0.273-0.744-0.646-1.006-1.119c-0.262-0.472-0.415-1.026-0.461-1.664c-0.091-1.207,0.24-2.481,0.992-3.824
	c0.421-0.751,0.717-1.271,0.889-1.562c0.17-0.291,0.438-0.709,0.803-1.255c0.364-0.535,0.746-1.019,1.145-1.451
	c0.798-0.899,1.456-1.622,1.975-2.168C207.133,62.976,207.752,62.39,208.469,61.764z M208.529,65.884
	c-0.799,0.569-1.587,1.481-2.362,2.734c-0.776,1.253-1.393,2.528-1.85,3.827c-0.377,1.094-0.188,1.641,0.563,1.641
	c0.273,0,0.518-0.034,0.734-0.103c0.216-0.068,0.416-0.191,0.598-0.367c0.183-0.177,0.342-0.371,0.479-0.581
	c0.137-0.211,0.282-0.508,0.437-0.889c0.153-0.382,0.29-0.758,0.41-1.128c0.119-0.371,0.271-0.863,0.452-1.479
	c0.104-0.331,0.179-0.698,0.229-1.104c0.05-0.406,0.109-0.894,0.179-1.462C208.466,66.406,208.511,66.042,208.529,65.884z"/>
</svg>
