<svg xmlns="http://www.w3.org/2000/svg" width="102" height="40"><path fill="#18545A" d="M40.188 25.426l-4.054-8.11c-5.2.53-6.962 1.587-7.58 2.38-.087.177-.44.617-.087 1.675.793 2.74 0 4.59-.793 5.65-1.94 2.646-6.345 3.79-14.1 3.79-2.38 0-4.055.53-4.583 1.32-.52.795-.17 2.205 0 2.647h20.89c.8 0 1.5-.44 1.85-1.06.44-.615.44-1.496.09-2.113l-1.41-2.91h7.67c.797 0 1.5-.44 1.85-1.056.62-.705.62-1.5.268-2.203zm-15.864-.97c.088-.176.44-.616.088-1.85-.705-2.468 0-4.23.705-5.288 1.41-2.116 4.23-3.35 9.077-4.054L32.167 9.12c-.352-.792-1.145-1.233-2.026-1.233-.88 0-1.58.44-2.02 1.234l-3.62 7.32-5.724-11.81c-.353-.79-1.146-1.23-2.028-1.23s-1.586.442-2.027 1.235L1.5 31.51c-.35.705-.263 1.498.09 2.203.44.618 1.145 1.06 1.85 1.06H4.67c-.263-1.323-.352-3.175.794-4.937 1.41-2.203 4.142-3.35 8.196-3.35 7.938 0 10.14-1.232 10.67-2.026zm23.278-19.5c.676 0 1.27.09 1.78.273.508.18.933.42 1.27.72s.594.64.765 1.04.257.79.257 1.21c0 .39-.076.78-.23 1.163-.152.385-.383.74-.69 1.064-.31.325-.698.605-1.167.84s-1.02.403-1.653.5c-.01.292-.022.56-.03.804l-.012.31-.01.288-.005.225-.003.133c-.01.28-.04.57-.1.873-.058.3-.142.594-.254.882-.11.286-.245.558-.404.816s-.344.483-.554.676c-.21.193-.447.347-.708.46s-.546.172-.856.172c-.328 0-.62-.086-.88-.256-.258-.17-.484-.4-.678-.688-.194-.29-.358-.62-.492-.996s-.243-.765-.327-1.175-.14-.823-.18-1.24-.05-.806-.05-1.174c0-.63.06-1.24.175-1.83.117-.587.283-1.138.5-1.65.216-.515.478-.983.787-1.407.31-.426.656-.79 1.043-1.093.385-.304.806-.54 1.26-.704.46-.162.94-.246 1.456-.246zm-3.61 6.78c0 .164 0 .386.002.664s.013.576.033.892.052.636.096.96.11.62.195.88.194.478.324.644.293.25.49.25c.203 0 .377-.072.52-.215.145-.14.265-.32.36-.55.097-.22.173-.48.23-.77.056-.28.098-.57.126-.86.028-.29.046-.56.054-.82s.012-.486.012-.67v-.283c-.33-.13-.59-.243-.777-.34s-.33-.194-.426-.284c-.09-.09-.15-.186-.18-.286-.02-.1-.04-.22-.04-.35 0-.076.01-.15.01-.22s.02-.137.04-.19c.02-.058.044-.103.077-.138.035-.037.08-.054.14-.054.04 0 .077.01.11.024.035.016.077.04.13.07.13.073.25.134.356.182s.198.084.274.113c.086.034.166.06.237.076 0-.052 0-.16.003-.313s.014-.334.036-.534.06-.41.11-.63c.053-.215.13-.415.23-.6s.233-.33.394-.45.36-.18.6-.18c.07 0 .146.01.22.02s.147.04.21.08.113.09.155.155c.04.064.063.147.063.247v.058c-.002.01-.003.024-.003.04l-.368 1.56-.055.48c.39-.064.725-.16 1.01-.295.283-.134.52-.292.703-.474.184-.18.32-.38.41-.6.09-.22.136-.44.136-.67 0-.225-.044-.455-.13-.69-.086-.236-.235-.45-.447-.643s-.498-.35-.85-.476c-.36-.125-.807-.188-1.346-.188-.406 0-.772.076-1.1.23s-.622.365-.88.63c-.256.265-.48.574-.668.927-.19.35-.345.73-.467 1.13-.123.396-.214.81-.27 1.23s-.09.83-.09 1.234zM57.32 14.41c-.09.13-.214.28-.37.455-.153.174-.326.34-.518.498-.192.158-.398.29-.618.4-.22.11-.44.165-.66.165-.266 0-.487-.084-.665-.253-.18-.168-.34-.413-.46-.733-.1.11-.22.224-.36.34s-.3.218-.47.31c-.168.094-.34.17-.524.23-.18.06-.363.09-.544.09-.193 0-.38-.04-.56-.12s-.345-.19-.485-.338c-.14-.147-.253-.327-.336-.54-.085-.21-.126-.45-.126-.716 0-.3.04-.606.125-.92.085-.316.216-.657.392-1.023.176-.367.366-.684.57-.95.202-.268.425-.5.666-.7s.496-.36.764-.476.54-.18.82-.18c.09 0 .164.02.217.05.052.034.096.08.13.122l.1.137c.032.045.072.076.12.097.05.02.1.034.15.04s.1.01.153.01c.042 0 .09 0 .134-.004h.135c.06 0 .118.005.17.017s.1.04.14.08.07.098.092.17.032.17.032.298c0 .19-.02.403-.06.636s-.087.47-.138.715l-.176.836c-.066.31-.1.574-.1.79 0 .182.018.326.052.43.033.102.106.154.22.154.082 0 .17-.022.262-.063s.185-.095.28-.162c.093-.068.187-.144.28-.23.095-.086.184-.173.268-.265.196-.215.394-.457.595-.727l.287 1.316zm-5.148-.47c0 .104.007.204.02.3s.04.184.076.26c.036.077.085.14.144.187.06.047.136.07.23.07.147 0 .28-.064.402-.192.12-.13.224-.284.313-.465.088-.18.16-.37.214-.562s.09-.354.11-.483l.45-1.95c-.16 0-.322.04-.48.12-.154.082-.3.192-.44.33-.14.14-.264.298-.38.477s-.23.4-.342.66-.19.493-.237.69c-.047.198-.07.385-.07.56zm9.656.614c-.385.224-.727.42-1.027.588-.3.168-.56.308-.8.42-.23.112-.44.196-.62.252s-.35.084-.494.084c-.303 0-.57-.092-.8-.276-.23-.184-.424-.45-.58-.795-.154-.346-.27-.765-.35-1.257-.08-.492-.116-1.046-.116-1.663 0-.24.01-.496.03-.768.02-.28.046-.55.082-.81-.12-.02-.214-.04-.28-.05l-.212-.05-.284-.05-.5-.07c-.096-.017-.17-.04-.223-.08-.05-.04-.09-.083-.114-.134-.024-.05-.037-.105-.04-.16-.007-.057-.01-.104-.01-.144 0-.064.04-.11.12-.145.08-.033.18-.058.3-.075.124-.015.258-.025.405-.027.147 0 .288 0 .422.003l.36.01s.18 0 .22-.01c.107-.54.244-1.06.41-1.565s.35-.955.557-1.348.43-.708.673-.946c.247-.238.5-.357.77-.357.173 0 .33.05.47.144.144.096.265.224.365.384s.18.347.23.56c.056.214.083.437.083.67 0 .19-.028.393-.084.606-.054.213-.13.43-.226.65-.096.22-.21.445-.34.67-.13.23-.266.454-.41.677.036-.012.097-.015.18-.007.084.008.18.014.29.017l.358.01.374.01.337.013.26.01c.08.006.14.05.174.134.037.086.055.193.055.32 0 .15-.04.273-.12.367s-.17.14-.265.14h-2.31c-.117.16-.234.318-.353.472-.115.15-.225.29-.325.414-.017.248-.03.49-.043.73l-.01.323-.013.33-.01.31-.003.277c0 .217.02.4.06.547.04.148.1.27.175.363.076.093.17.16.28.203.11.04.234.062.37.062.084 0 .19-.02.315-.06s.264-.096.414-.166.31-.153.476-.25.33-.2.495-.314c.164-.113.32-.233.467-.36.15-.125.282-.254.402-.386v1.536h.004zm-1.92-7.6c0-.044-.003-.092-.01-.146-.005-.054-.018-.105-.038-.153s-.05-.087-.093-.12c-.042-.032-.102-.048-.178-.048-.11 0-.21.092-.32.274-.11.19-.21.42-.31.7-.1.29-.19.6-.28.94-.087.34-.167.68-.24 1l.18.02.187.015c.12-.202.246-.42.376-.655.13-.235.247-.467.35-.694s.19-.44.26-.635.104-.36.104-.485zm5.108 7.666c-.144.132-.323.273-.537.423-.22.15-.45.288-.7.414-.25.126-.5.23-.76.315s-.5.126-.737.126c-.208 0-.383-.03-.525-.087-.14-.05-.257-.13-.345-.24s-.15-.23-.19-.38-.054-.31-.054-.49c0-.25.03-.545.084-.88.114-.695.19-1.086.22-1.17.056-.17.164-.55.328-1.137.15-.48.245-.79.28-.933.02-.1.075-.19.165-.273.08-.072.175-.13.28-.18.103-.044.212-.08.324-.1.113-.023.215-.034.305-.034.164 0 .276.03.335.093s.09.145.09.25c0 .087-.02.21-.06.37l-.14.55c-.054.207-.13.47-.236.794-.105.322-.175.598-.21.825-.04.23-.09.457-.146.68s-.085.43-.085.616c0 .18.02.32.06.43s.122.16.246.16c.144 0 .304-.05.48-.15.176-.1.354-.223.534-.365s.358-.29.53-.44.324-.283.456-.39v1.216zm-2.683-6.298c0-.093.02-.198.06-.315s.105-.228.195-.33c.09-.104.21-.19.36-.26.15-.072.337-.107.56-.107.14 0 .273.016.397.048s.232.082.325.148c.092.066.165.154.22.264.053.11.08.238.08.388 0 .137-.022.27-.066.4s-.114.244-.21.346c-.096.1-.218.183-.363.245s-.32.09-.52.09c-.35 0-.61-.09-.78-.25-.17-.17-.25-.39-.25-.67z"/><path fill="#18545A" d="M66.61 15.9c-.374 0-.7-.07-.982-.21-.28-.137-.514-.324-.7-.558-.187-.234-.327-.505-.42-.813-.094-.31-.14-.63-.14-.97 0-.22.04-.49.124-.79.083-.31.17-.58.26-.82.088-.24.2-.467.336-.68.135-.217.294-.407.474-.57.18-.165.384-.295.61-.39.224-.1.473-.147.748-.147.224 0 .432.036.625.11s.36.17.502.3c.143.13.254.288.333.47.08.186.12.39.12.62 0 .243-.08.514-.244.816-.162.3-.35.56-.568.775-.217.215-.474.407-.773.575s-.623.3-.97.395c.06.105.12.193.177.263.058.07.118.125.178.164.06.04.123.067.19.083.066.014.137.022.214.022.24 0 .493-.048.76-.14.265-.096.524-.213.776-.354.252-.14.49-.294.714-.46.224-.167.414-.325.57-.474l.774.784c-.352.376-.727.708-1.123.996-.172.123-.357.245-.555.365-.198.12-.406.227-.624.32-.218.092-.444.166-.678.222-.232.057-.47.085-.71.085zm-.803-2.86c.144 0 .302-.036.473-.108s.33-.165.476-.28c.147-.112.29-.265.43-.457s.212-.35.212-.475c0-.176-.033-.32-.1-.434-.065-.114-.147-.17-.243-.17-.173 0-.32.03-.443.094s-.225.143-.307.244c-.082.1-.148.213-.2.34s-.107.286-.174.474c-.06.188-.1.342-.11.463 0 .12-.01.23-.01.31z"/><path fill="#18545A" d="M69.12 14.645c0-.264.017-.57.05-.915s.07-.727.12-1.14c.047-.414.1-.787.16-1.12.062-.33.12-.615.175-.85.044-.185.13-.34.255-.463s.297-.186.513-.186.366.07.45.2c.085.13.126.31.126.53 0 .06-.01.14-.02.25-.01.102-.03.214-.05.336l-.06.378s-.04.28-.058.445-.033.29-.046.37c-.01.084-.018.14-.018.167h.12l.113-.213s.115-.24.18-.424c.07-.185.144-.348.22-.49.08-.14.15-.278.22-.408.07-.13.13-.246.187-.346l.125-.222c.13-.215.273-.363.44-.443s.343-.12.543-.12.36.087.477.255c.12.17.178.4.178.697 0 .044-.01.118-.027.22-.017.106-.04.23-.07.374s-.057.33-.09.558l-.09.615s-.05.357-.07.533-.028.34-.028.487c0 .25.032.453.094.613s.16.24.29.24c.05 0 .116-.02.204-.056.13-.045.217-.09.25-.123.18-.134.27-.2.28-.196.012.002.146-.078.402-.24.32-.206.7-.456 1.144-.75l-.007 1.342-.3.23c-.024.02-.213.124-.564.31-.51.274-.827.438-.955.494-.31.14-.505.22-.58.24-.2.064-.41.096-.63.096s-.406-.16-.556-.477-.225-.79-.225-1.4c0-.24.014-.5.046-.778s.07-.578.12-.898h-.096l-1.57 3.12c-.085.17-.175.28-.27.336-.1.06-.217.09-.35.09-.16 0-.296-.035-.396-.105-.1-.07-.178-.163-.23-.28-.055-.12-.09-.253-.11-.403-.014-.15-.023-.304-.023-.463zm10.81-.09c-.386.223-.728.42-1.028.587s-.568.308-.803.42c-.24.112-.45.196-.63.252s-.35.084-.5.084c-.304 0-.57-.092-.8-.276-.23-.184-.425-.45-.58-.795-.155-.346-.27-.765-.35-1.257-.08-.492-.117-1.046-.117-1.663 0-.24.01-.496.03-.768.02-.28.046-.55.082-.81-.12-.02-.215-.04-.28-.05l-.213-.05-.283-.05c-.116-.02-.28-.04-.5-.07-.097-.017-.17-.04-.224-.08-.05-.04-.09-.083-.114-.134-.024-.05-.037-.105-.042-.16-.003-.057-.005-.104-.005-.144 0-.064.04-.11.12-.145.08-.033.18-.058.3-.075.122-.015.256-.025.403-.027s.288 0 .422.003l.36.01s.18 0 .22-.01c.107-.54.244-1.06.41-1.565s.35-.955.557-1.348.43-.708.674-.946c.248-.238.5-.357.77-.357.174 0 .33.05.47.144.145.096.266.224.366.384s.18.347.23.56c.056.214.083.437.083.67 0 .19-.03.393-.085.606-.056.213-.13.43-.228.65s-.21.445-.34.67c-.13.23-.266.454-.41.677.036-.012.097-.015.18-.007.084.008.18.014.29.017l.358.01.374.01.335.013.258.01c.08.006.14.05.175.134.037.086.055.193.055.32 0 .15-.04.273-.12.367s-.167.14-.263.14h-2.31c-.117.16-.234.318-.353.472s-.228.29-.328.414c-.02.248-.03.49-.046.73l-.01.323-.012.33-.01.31-.002.277c0 .217.02.4.06.547.04.148.1.27.176.363.078.093.17.16.28.203.11.04.236.062.37.062.086 0 .19-.02.317-.06s.264-.096.414-.166.31-.153.474-.25.33-.2.495-.314.32-.233.468-.36.282-.254.402-.386v1.536h.004zm-1.92-7.6c0-.045-.004-.093-.01-.147s-.02-.105-.04-.153-.05-.087-.092-.12c-.042-.032-.102-.048-.178-.048-.104 0-.21.092-.316.274-.107.19-.21.42-.308.7-.098.29-.19.6-.277.94-.09.34-.17.68-.24 1l.18.02.18.015c.12-.202.245-.42.375-.655.13-.235.25-.467.352-.694s.19-.44.26-.635.102-.36.102-.485zm-28.7 10.24c.876 0 1.645.116 2.305.352.66.235 1.21.55 1.648.94.44.39.768.838.99 1.346.223.507.334 1.032.334 1.575 0 .51-.1 1.012-.297 1.51-.2.498-.498.958-.897 1.378s-.903.784-1.51 1.09-1.323.522-2.143.646c-.015.38-.03.727-.04 1.044l-.014.405s-.01.26-.01.37l-.01.3-.003.17c-.01.368-.054.74-.13 1.13s-.184.77-.327 1.148-.317.727-.523 1.06c-.206.333-.446.626-.72.877s-.578.45-.917.598c-.338.148-.708.22-1.11.22-.425 0-.804-.11-1.14-.33-.333-.22-.627-.516-.878-.89-.252-.372-.465-.802-.638-1.29-.174-.486-.315-.995-.424-1.526-.11-.53-.188-1.065-.237-1.603-.05-.54-.08-1.046-.08-1.523 0-.82.07-1.61.222-2.37.15-.76.366-1.475.647-2.14.28-.667.62-1.274 1.02-1.824s.852-1.02 1.354-1.414 1.05-.7 1.637-.91c.586-.215 1.213-.323 1.88-.323zm-4.682 8.786c0 .22 0 .5.004.86.002.37.016.75.043 1.16.026.41.067.83.124 1.25.05.42.14.8.25 1.14s.25.62.42.838c.17.215.38.323.63.323.26 0 .49-.092.673-.277.187-.184.342-.423.467-.717s.223-.626.296-.997c.07-.37.126-.743.162-1.117s.06-.73.07-1.074c.01-.34.015-.63.015-.87v-.366c-.427-.165-.763-.313-1.007-.44-.244-.128-.428-.25-.55-.368s-.2-.242-.236-.37c-.034-.13-.05-.283-.05-.456 0-.098.003-.19.008-.286.005-.095.02-.178.043-.25s.057-.13.1-.176.105-.068.18-.068c.05 0 .1.01.144.03.043.02.1.05.165.09.17.095.322.175.46.237s.258.11.356.15c.112.042.215.075.31.096l.002-.406c.003-.204.02-.434.047-.694.03-.26.078-.53.146-.814.07-.284.17-.544.3-.78.13-.234.3-.43.51-.584s.47-.234.777-.234c.092 0 .19.01.287.028s.188.05.27.1c.08.05.146.12.2.2.056.087.083.19.083.32 0 .04 0 .065-.005.078s-.003.03-.003.05l-.473 2.025-.07.623c.51-.08.946-.205 1.314-.378.365-.174.67-.38.91-.616.24-.238.42-.498.535-.782.116-.284.174-.575.174-.875 0-.292-.054-.59-.165-.895s-.306-.582-.58-.833c-.275-.25-.643-.458-1.104-.62-.46-.16-1.04-.243-1.74-.243-.525 0-1 .1-1.427.3-.428.2-.807.47-1.14.814s-.62.744-.866 1.2c-.243.46-.445.947-.603 1.464-.16.52-.276 1.05-.35 1.6-.08.554-.117 1.087-.117 1.61zm17.28 3.47c-.12.17-.28.37-.48.59s-.424.44-.673.65c-.25.206-.516.38-.8.52-.286.14-.572.21-.857.21-.346 0-.633-.11-.863-.33-.23-.22-.428-.53-.596-.95-.13.14-.28.29-.47.44s-.384.286-.6.407c-.218.123-.444.22-.68.298s-.47.118-.706.118c-.25 0-.49-.05-.727-.152s-.445-.25-.626-.44c-.18-.19-.325-.422-.434-.696-.11-.274-.164-.584-.164-.93 0-.387.054-.785.163-1.193s.28-.85.51-1.326c.227-.476.474-.887.74-1.233.26-.344.55-.65.863-.905.312-.26.642-.463.99-.615.346-.15.7-.23 1.06-.23.12 0 .213.026.28.073s.124.1.168.16l.13.176s.093.1.156.125c.06.027.124.044.19.05s.132.013.2.013c.056 0 .115 0 .175-.006s.12 0 .177 0c.077 0 .15.007.218.023s.13.05.18.102c.053.05.093.124.12.22s.045.22.045.383c0 .247-.027.522-.08.824-.05.3-.11.61-.176.93l-.23 1.08c-.086.41-.13.75-.13 1.03 0 .236.02.42.067.557.045.137.14.204.285.204.11 0 .223-.03.34-.08s.24-.127.364-.215.244-.19.366-.3c.12-.11.236-.225.345-.344.255-.277.51-.59.77-.94l.373 1.71zm-6.676-.61c0 .14.01.27.027.39s.05.24.09.34c.045.1.11.18.185.24.08.06.177.09.296.09.19 0 .366-.08.52-.25.158-.17.29-.37.407-.6s.206-.48.276-.73.116-.46.136-.624l.58-2.53c-.215 0-.42.05-.624.158-.204.106-.394.25-.573.43s-.343.385-.493.616c-.15.23-.296.516-.442.855-.144.338-.247.636-.306.894s-.088.5-.088.724zm12.518.8c-.498.29-.942.546-1.332.765-.39.218-.736.4-1.04.544-.304.146-.574.255-.81.33-.237.07-.45.11-.643.11-.392 0-.737-.12-1.037-.36-.3-.24-.55-.58-.75-1.03-.202-.45-.353-.994-.454-1.63-.1-.64-.15-1.358-.15-2.157 0-.31.012-.642.038-.995.025-.35.06-.7.107-1.05-.16-.02-.28-.043-.37-.063l-.278-.06c-.097-.02-.22-.043-.368-.066-.15-.024-.366-.053-.647-.087-.125-.016-.22-.05-.29-.1s-.117-.106-.15-.172c-.03-.063-.048-.133-.054-.205-.006-.074-.01-.136-.01-.188 0-.083.05-.145.154-.188s.234-.078.39-.1c.16-.023.336-.035.527-.037.19-.002.372 0 .547.004.177.005.334.01.47.01.14.004.236 0 .287-.01.14-.698.316-1.374.53-2.03s.457-1.235.723-1.744c.267-.51.558-.918.874-1.226.316-.308.648-.462.995-.462.224 0 .43.062.61.187.186.125.343.29.473.5.13.207.226.45.3.726.07.276.102.565.102.865 0 .25-.038.513-.11.79-.07.277-.17.56-.296.845-.126.284-.27.575-.44.87-.17.293-.348.585-.535.874.048-.018.125-.02.235-.01.11.01.238.017.38.02l.463.013.486.013.434.016c.137.004.248.01.337.014.105.007.18.065.226.174.05.11.07.248.07.416 0 .19-.05.35-.154.47-.103.122-.217.183-.342.183h-2.99c-.15.208-.302.41-.456.61-.152.2-.294.38-.425.54-.02.32-.04.638-.058.95l-.014.415-.018.425s-.01.273-.01.403c-.006.13-.007.25-.007.36 0 .28.025.516.077.708s.13.35.227.47.22.21.364.268c.144.055.304.082.48.082.11 0 .247-.027.41-.08.163-.05.343-.123.538-.214s.4-.196.614-.32c.215-.127.428-.264.638-.41.21-.15.413-.305.605-.468s.366-.33.522-.5v1.992zm-2.49-9.85c0-.057-.004-.12-.01-.19-.01-.07-.026-.136-.052-.2s-.066-.113-.12-.154-.133-.063-.232-.063c-.135 0-.272.12-.41.357-.138.236-.27.54-.398.906-.127.37-.248.772-.36 1.215-.11.444-.214.874-.308 1.29l.234.02c.078.007.16.01.242.02.157-.26.32-.543.488-.85s.32-.603.457-.9c.14-.293.25-.57.34-.824s.14-.466.14-.63zm4.576 6.843c.213-.29.45-.597.716-.927.264-.33.618-.712 1.062-1.143.444-.434.806-.744 1.09-.93s.548-.287.797-.287c.07 0 .14.014.21.038s.16.07.23.13.13.155.177.27c.047.11.07.26.07.44 0 .36-.05.71-.15 1.05s-.283.754-.56 1.24-.46.905-.554 1.26c-.096.354-.144.724-.144 1.11 0 .21.03.38.094.507.06.128.14.19.24.19.125 0 .257-.025.398-.08.14-.05.28-.12.42-.202.14-.083.28-.18.414-.286.136-.107.263-.22.38-.334.287-.27.567-.573.84-.914l.134 2.07c-.093.07-.212.155-.354.257-.146.1-.3.21-.477.325-.174.115-.36.23-.564.347s-.406.22-.61.31-.41.163-.616.22c-.204.058-.4.087-.586.087-.29 0-.545-.074-.76-.22-.216-.146-.39-.33-.53-.556-.138-.22-.24-.47-.31-.734s-.104-.52-.104-.756c0-.17.024-.357.07-.564s.1-.416.17-.626c.067-.21.143-.414.227-.613.088-.2.166-.377.24-.534s.136-.285.19-.385c.053-.1.09-.16.104-.172l-.163-.024c-.09.057-.24.2-.45.43-.21.23-.446.524-.71.876-.265.35-.54.746-.82 1.184-.285.44-.54.89-.77 1.358-.113.23-.207.43-.28.603-.072.175-.143.31-.213.418s-.147.183-.23.236c-.083.052-.19.08-.32.08-.17 0-.305-.047-.404-.14-.1-.09-.175-.216-.226-.37-.053-.15-.087-.327-.103-.52-.014-.196-.022-.396-.022-.6 0-.356.005-.823.01-1.4.01-.576.034-1.215.076-1.916.04-.705.117-1.43.227-2.18l.324-2.25c.11-.744.27-1.453.487-2.126.218-.673.48-1.266.79-1.777.31-.51.67-.92 1.087-1.22.416-.3.893-.45 1.433-.45.28 0 .51.04.69.12.18.087.32.2.427.355.106.15.18.33.22.543.043.21.063.447.063.707 0 .39-.053.82-.162 1.29s-.253.96-.432 1.47c-.18.508-.383 1.023-.61 1.544-.23.522-.463 1.027-.7 1.517-.24.49-.474.953-.705 1.388-.23.437-.43.82-.61 1.15l.16.11zm.69-4.896c.307-.794.53-1.463.666-2.01.138-.542.207-.944.207-1.203 0-.394-.06-.59-.17-.59-.14 0-.34.22-.6.66-.27.44-.58 1.08-.94 1.92-.09.286-.17.58-.245.887-.075.307-.135.613-.18.918l-.13.9-.12.836c-.114.613-.2 1.215-.26 1.805.14-.328.293-.683.46-1.067s.33-.765.49-1.14l.456-1.066c.145-.335.264-.62.357-.853zm8.34 5.805c-.15.565-.326 1.083-.53 1.55-.204.47-.422.875-.655 1.215s-.47.606-.72.794c-.24.19-.49.284-.72.284-.39 0-.68-.295-.862-.892-.183-.596-.275-1.48-.275-2.644v-1.53c0-.44.003-.884.008-1.326.006-.44.006-.585 0-.427l-.014.44-.005.17c0 .08.02.04.06-.12s.1-.32.17-.494.16-.33.27-.47c.11-.14.238-.26.386-.35s.326-.14.534-.14l.2.015c.247 0 .436.046.57.135.13.09.196.21.196.36l-.63 4.522.104-.006c.23-.53.44-1.064.636-1.606s.363-.99.506-1.336c.14-.347.28-.65.41-.91.13-.26.276-.474.43-.646.157-.17.33-.3.527-.384s.425-.128.695-.128c.23 0 .405.045.527.135.125.09.186.21.186.36l-.725 4.52h.117l1.936-4.467c.062-.146.197-.275.405-.386.208-.112.455-.168.74-.168.295 0 .534.06.716.18.18.12.272.28.272.47 0 .146-.025.3-.074.468-.05.167-.1.32-.16.464-.054.14-.11.264-.16.366l-.086.166c-.116.21-.234.454-.356.734-.12.28-.22.486-.29.62-.09.156-.166.3-.233.436.07.203.166.385.28.545.1.136.22.26.366.374.144.114.32.17.52.17.172 0 .37-.045.59-.135.224-.09.434-.194.63-.308.236-.13.474-.277.718-.444v1.88c-.34.23-.695.41-1.06.545-.367.136-.718.203-1.055.203-.266 0-.517-.033-.753-.098s-.443-.167-.622-.31-.32-.324-.426-.55c-.11-.226-.164-.5-.17-.82-.176.414-.36.794-.55 1.14-.194.343-.39.64-.593.89-.2.25-.405.442-.613.583-.208.14-.415.21-.62.21-.074 0-.138-.055-.19-.166-.057-.11-.1-.26-.14-.45-.035-.19-.065-.41-.09-.66-.02-.25-.04-.517-.052-.797-.013-.28-.022-.567-.027-.863-.004-.297-.007-.586-.007-.866l-.23-.035zM93.758 29.45c-.12.167-.28.364-.478.59-.2.224-.424.44-.673.644-.25.204-.516.377-.8.52-.286.14-.572.212-.857.212-.345 0-.632-.11-.862-.328-.23-.218-.428-.535-.596-.95-.126.142-.28.29-.463.438s-.39.284-.6.405c-.22.13-.45.22-.68.3s-.47.12-.71.12c-.25 0-.49-.05-.73-.15-.237-.1-.446-.25-.627-.44-.18-.19-.327-.424-.436-.698-.11-.275-.163-.585-.163-.93 0-.39.055-.786.164-1.194.11-.41.28-.85.51-1.326.23-.477.474-.888.74-1.234.26-.345.55-.65.863-.906.31-.26.64-.464.99-.616.346-.153.7-.23 1.06-.23.12 0 .213.025.28.072s.125.1.17.16l.13.177s.09.1.155.126.125.04.19.05.133.01.2.01c.057 0 .116 0 .176-.004s.12-.002.177-.002c.076 0 .15.01.217.025s.13.05.18.1.093.125.12.22.045.222.045.384c0 .248-.028.523-.08.825-.05.303-.11.613-.178.93l-.23 1.084c-.085.408-.127.75-.127 1.028 0 .24.02.425.066.56.045.135.14.2.285.2.11 0 .223-.025.34-.08.12-.053.24-.123.364-.21.12-.086.242-.186.364-.296.12-.11.234-.225.343-.344.254-.28.51-.59.77-.94l.373 1.71zm-6.675-.61c0 .133.01.263.027.39.018.125.05.237.098.336.047.1.11.18.187.24.078.062.177.092.296.092.2 0 .37-.084.53-.25s.29-.37.407-.604.207-.478.277-.73c.07-.25.116-.458.136-.625l.58-2.53c-.213 0-.42.05-.62.15-.205.104-.395.25-.574.43s-.346.384-.496.615c-.15.23-.3.517-.445.856-.145.34-.25.637-.307.895s-.09.5-.09.728z"/><path fill="#18545A" d="M96.18 31.51l.17-.94c-.28.245-.57.445-.874.596-.304.152-.598.227-.883.227-.25 0-.49-.05-.727-.152-.236-.1-.445-.24-.626-.43-.182-.19-.327-.42-.436-.69-.11-.27-.163-.58-.163-.92 0-.45.04-.864.1-1.24l.23-1.393c.09-.552.2-.99.326-1.307s.267-.643.428-.97c.12-.234.29-.41.514-.533s.44-.182.654-.182c.18 0 .338.047.467.138s.19.233.19.425c0 .056-.007.12-.02.186-.012.068-.034.14-.064.22-.093.24-.17.523-.233.85l-.252 1.317-.25 1.308c-.06.32-.09.607-.09.86 0 .13.01.257.026.38s.05.234.096.33.11.177.187.237.175.09.294.09c.19 0 .365-.086.52-.253s.29-.366.406-.6c.114-.235.206-.478.276-.73s.115-.46.136-.626l.623-2.91c.036-.17.11-.327.22-.467.1-.135.224-.25.364-.346s.282-.167.434-.214c.15-.047.294-.07.43-.07.16 0 .293.036.403.105.11.07.163.18.163.33 0 .05-.008.104-.023.165l-.098.556-.14.794c-.05.298-.124.71-.217 1.25l-.226 1.292c-.13.77-.264 1.598-.4 2.483.157-.09.326-.2.51-.328s.383-.304.606-.52.47-.493.745-.82.583-.74.926-1.234l.375 1.73c-.09.16-.21.325-.356.49-.157.175-.32.346-.5.51-.26.237-.446.397-.56.48-.036.025-.225.174-.57.446-.102.09-.445.326-1.03.714-.14.095-.24.265-.29.51-.053.247-.113.705-.18 1.374-.03.19-.05.34-.057.44-.03.25-.06.486-.09.71s-.08.48-.15.768-.16.55-.258.792c-.1.24-.228.482-.39.72-.16.238-.336.442-.53.61-.195.17-.43.306-.704.41-.274.103-.574.155-.9.155-.264 0-.51-.03-.733-.09s-.43-.15-.62-.275c-.184-.124-.337-.294-.456-.51-.12-.214-.19-.466-.21-.757-.04-.55.11-1.13.453-1.74.192-.342.326-.58.405-.71.08-.133.2-.324.37-.572.166-.245.34-.465.52-.66.364-.41.664-.74.9-.99.234-.247.516-.514.843-.8zm.026 1.875c-.364.26-.722.674-1.075 1.245-.35.57-.63 1.15-.84 1.742-.17.498-.08.747.26.747.128 0 .24-.02.338-.05.098-.03.19-.09.27-.17.085-.08.158-.17.22-.268.06-.096.128-.23.2-.405.07-.174.13-.345.186-.514.054-.17.123-.393.206-.673.05-.152.082-.32.105-.504.025-.187.05-.41.08-.668.034-.26.055-.424.06-.496z"/></svg>